<?xml version="1.0" encoding="UTF-8"?><!-- Generator: Adobe Illustrator 23.0.4, SVG Export Plug-In . SVG Version: 6.00 Build 0)  --><svg xmlns="http://www.w3.org/2000/svg" enable-background="new 0 0 288 581.9" id="Layer_1" version="1.1" viewBox="0 0 288 581.9" x="0px" xml:space="preserve" y="0px">
<g id="change1_1"><path d="m209.5 24.5c-3.2-0.1-6.5 0.8-9.2-1.9-0.5-0.5-1.3-0.6-2.1-0.7-0.9-0.2-1.8-0.1-3-0.2 0.2 0.6 0.2 1.1 0.5 1.6 0.8 1.2 1.7 2.4 2.6 3.6 1.3 1.6 3.7 2 5.7 1.4 1.8-0.6 3.8-0.8 5.7-1.2 0.5-0.1 1.2 0.1 1.7-0.1 1.9-0.8 3.9-1.2 6-1 1.1 0.1 2.3 0.1 3.4 0.2 0.7 0 1.3 0.2 2 0.2 1.7 0 2.9 0.8 3.4 2.3 0.7 2.4 1.3 4.9 1.9 7.3 0.2 0.9-0.1 1.4-0.9 1.6-1.1 0.3-1.5 1.2-1.7 2.2-0.3 1.9-0.6 3.8-0.9 5.8-0.3 2.1-0.4 4.2-0.8 6.3-0.3 1.8-1 3.5-1.3 5.3-0.3 2.2-1.1 4.2-2.1 6.2-0.8 1.6-1 3.6-1.7 5.3-0.6 1.6-1.5 3.2-2.3 4.7-0.2 0.4-0.5 0.8-0.6 1.3-0.4 2.4-0.4 4.8-1 7.1-0.8 3.4-0.5 6.7-0.2 10 0.2 3.7 1 7.3 1.2 10.9 0.2 4.5 0.2 9.1 0 13.7-0.2 4.4-0.7 8.8-1.1 13.2-0.1 0.9-0.4 1.7-0.7 2.5-0.4 1.5-0.7 3.1-1.2 4.6-0.4 1.4-1.1 2.7-1.6 4.1-0.2 0.6-0.5 1.1-0.8 1.6-1.1 2.4-2.1 4.9-3.3 7.3-0.7 1.3-1.8 2.4-2.7 3.6-0.8 1.1-1.7 2.1-2.3 3.3-0.8 1.5-1.9 2.6-3.2 3.6-2 1.4-3.8 3-5.8 4.5-3.3 2.4-6.8 4.3-10.8 5.1-0.9 0.2-1.7 0.6-2.6 0.8-2.4 0.8-4.8 1.5-7.4 1.2-2.7-0.2-5 0.7-7.1 2.2-1.2 0.8-2.5 1.6-3.9 2-1.8 0.6-3.7 0.8-5.6 1.1-1 0.2-1.5 0.6-1.8 1.6-0.9 3.7-0.7 7.5-0.7 11.2 0 3-0.2 6-0.3 9 0 1.2 0.1 2.4 0 3.6-0.2 3.3-0.4 6.7-0.5 10-0.1 4.3 0 8.5-0.1 12.8 0 2-0.3 4-0.4 6.1 0 0.2-0.1 0.5 0 0.7 0.6 5-0.1 10.1-0.2 15.1 0 3.4-0.2 6.8-0.2 10.2 0 0.5 0.3 1.2 0.7 1.3 0.9 0.3 1.9 0.1 2.6-0.7 0.3-0.4 0.6-0.7 0.9-1.1 0.1 0.1 0.3 0.2 0.4 0.3-0.2 0.4-0.3 0.7-0.5 1.1-0.4 0.6-0.8 1.2-1.3 1.7-0.5 0.6-1.1 1.3-1.8 1.7-0.9 0.5-1.3 1.2-1.4 2.1-0.1 2.7-0.2 5.4-0.4 8.1-0.1 1.1 0 2.1 1.5 2.2 0.1 0 0.2 0.2 0.5 0.5-2 0.7-1.8 2.5-2.1 4-0.2 0.9 0.4 1.4 1.1 1 0.9-0.5 1.7-1.2 2.4-1.9 0.5-0.5 0.8-1.2 1.3-1.7 0.2-0.2 0.6-0.1 0.8-0.2 0 0.3 0.1 0.7 0 0.9-0.8 1.1-1.6 2.1-2.6 3.1-0.8 0.8-1.7 1.5-2.5 2.4-0.3 0.3-0.4 0.7-0.5 1.1-0.1 0.5-0.2 1-0.1 1.5 0 0.5 0.2 1 0.4 1.5 0.6-0.2 1.2-0.4 1.7-0.7 0.3-0.2 0.5-0.6 0.6-0.9 1.1-3 3.4-5.3 5.2-7.8 0.9-1.3 1.6-2.6 2.4-3.9 0.2-0.4 0.1-0.9 0.1-1.3-0.4 0-0.8 0.1-1.3 0.1-0.2 0-0.4 0.1-1.1 0.1 0.4-1.3 0.8-2.4 1.2-3.5 0.2-0.6 0.4-1.1 0.5-1.7 0.2-1.5 0.2-1.5-1.3-1.3-0.2 0-0.6-0.2-0.7-0.4-0.5-0.6-1-1.3-1.5-2-0.1-0.2-0.2-0.5-0.3-0.7 0.3-0.1 0.6-0.3 0.8-0.3 0.3 0 0.6 0.3 0.9 0.3 0.9 0.2 1.8 0.2 2.3-0.8 1.9-3.6 3.9-7.1 5.8-10.7 0.6-1.1 0.9-2.2 1.4-3.3 0.3-0.6 0.2-1.1-0.4-1.6-0.3-0.2-0.6-0.8-0.5-1 0.1-0.3 0.7-0.6 1-0.5 1 0.1 1.6-0.4 2-1.2 0.1-0.2 0.2-0.6 0.1-0.8s-0.5-0.2-0.7-0.2c-0.4-0.1-0.8-0.1-1.2-0.1 0.1-0.4 0.3-0.8 0.4-1.2 0.3-1.1 0.5-2.1 0.7-3.2-1.3 0-2.2 0.8-2.4 1.8-0.2 0.7-0.6 1.4-0.9 2.1-0.2 0.4-0.6 0.8-0.6 1.1 0 1.4-0.8 2.4-1.6 3.3-0.6 0.7-0.8 1.6-1.3 2.4-0.3 0.6-0.8 1.2-1.1 1.8-0.3 0.5-0.5 1.1-0.6 1.6-0.2 1.3-0.8 2.3-2.2 2.9 0.9-2.8 1-5.6 2.8-7.9 1.1-1.5 1.5-3.5 2.3-5.2l2.7-6s1.9-4 2.8-6c1.1-2.5 2.3-5.1 3.3-7.7 0.9-2.3 1.8-4.7 2.4-7.1 1.2-4.7 2.1-9.4 3.2-14.1 0.3-1.4 1.1-2.7 1.7-3.9 0.1-0.2 0.5-0.4 0.7-0.4s0.4 0.3 0.5 0.6c0.1 0.1 0.1 0.3 0.1 0.5-0.2 2.1-0.4 4.1-0.6 6.2-0.2 2.5-0.3 4.9-0.4 7.4-0.1 3.7-0.2 7.4-0.2 11.1 0 5.4-1.4 10.5-1.9 15.8 0 0.2-0.1 0.4-0.1 0.6-1 3.1-1.9 6.3-3 9.3-0.7 2.1-1.8 4-2.6 6-0.5 1.2-0.7 2.5-1.2 3.7-1.8 4.3-3.6 8.6-5.5 12.9-0.8 1.8-1.5 3.6-2.4 5.3-0.8 1.6-1.8 3.1-2.8 4.7-0.1 0.1-0.2 0.3-0.3 0.4-0.4 2.5-2.6 4-3.6 6.1-1.1 2.2-2.5 4.1-4.6 5.4-0.4 0.3-0.8 1-0.8 1.6-0.2 3-0.8 5.9-0.1 8.9 0.1 0.5 0 1.1-0.1 1.5-1.2 3.7-0.7 7.4-0.8 11.2-0.1 3-0.4 6-0.6 8.9-0.1 1.8-0.3 3.7-0.3 5.5-0.1 2 0 4 0 6-0.1 2.7-0.3 5.4-0.4 8.1-0.1 1.6-0.2 3.2-0.2 4.8 0 2.3 0.2 4.6 0.2 6.9 0 0.4-0.2 0.9-0.2 1.3-0.1 0.7-0.3 1.3-0.3 2 0.5 4.4-0.6 8.6-0.8 12.9-0.1 2.1 0.3 4.2 0.3 6.3 0 1.8-0.1 3.7-0.2 5.5-0.1 3.7-0.3 7.4-0.4 11.1 0 1.5-0.1 3-0.1 4.4 0 1.6 1.1 2.5 2.3 1.9 0.2-0.1 0.4-0.2 0.5-0.3 1-2.1 2.7-3.8 3.1-6.3 0.3-1.7 1.3-3.2 1.8-4.9 0.8-2.5 1.4-5.1 2.1-7.6 0.7-2.4 1.5-4.8 2.3-7.2 0.2-0.5 0.4-1 0.4-1.5 0.3-2.8 1.2-5.3 2.2-7.9s1.6-5.3 2.6-8c1.2-3.4 2.4-6.7 3.6-10 1.1-2.8 2.2-5.5 3.4-8.2 0.8-1.8 1.8-3.4 2.7-5.1 0.1 0 0.3 0.1 0.4 0.1 0 0.3 0.1 0.6 0 0.9-0.3 0.8-0.7 1.6-1.1 2.4-0.6 1.4-1.2 2.8-1.8 4.3-0.5 1.2-1.1 2.3-1.6 3.4-0.1 0.3-0.3 0.5-0.4 0.8-1.5 4.5-3.1 9-4.5 13.6-1.2 3.7-2.3 7.4-3.4 11.1-1.1 3.6-2.2 7.2-3.1 10.8-0.8 2.9-1.3 5.8-2.1 8.7-0.2 0.7-0.8 1.3-1 2-0.1 0.4 0 0.8 0 1.2 0.4-0.2 0.9-0.2 1.1-0.5 0.7-1.1 1.7-2.2 1.7-3.3 0-1.6 0.8-2.5 1.7-3.5 0.7-0.8 0.7-2.2 1.1-3.2 0.3-0.9 0.8-1.7 1.1-2.5 0.6-1.9 1.1-3.8 1.6-5.6 0.3-1.1 0.5-1.4 1.6-1.8 0.3 1.3-0.2 2.5-0.5 3.7-1.2 3.8-2.4 7.5-3.6 11.3-0.2 0.7-0.4 1.5 0.6 1.8 0.9 0.3 2-0.2 2.3-1 0.6-1.5 1.3-3.1 1.9-4.6 0.5-1.3 1.1-2.7 1.5-4 0.7-2.7 1.8-5.3 3-7.8 0.3-0.7 0.6-1.3 0.8-2 0.1 0 0.2 0.1 0.3 0.1 0 0.3 0 0.5-0.1 0.8-0.3 0.9-0.7 1.7-0.8 2.6-0.2 2.8-1.1 5.3-2.7 7.5-0.4 0.5-0.3 1.4-0.3 2.1 0 0.3 0.5 0.9 0.7 0.9 0.5 0 0.9-0.3 1.3-0.6 0.1-0.1 0.2-0.3 0.3-0.5 1.3-4.8 3.9-9.2 5.7-13.8 1.1-2.9 2.3-5.8 3.2-8.7 1-3 1.6-6.2 2.5-9.3s2-6.2 3-9.3c0.2-0.5 0.4-1.1 0.3-1.5-0.5-1.7 0-3.1 1-4.4 0.7-0.9 1.3-1.8 2.3-2.8-0.1 0.8-0.1 1.7-0.3 2.4-1 3.4-2.2 6.8-3.3 10.2-0.8 2.6-1.7 5.2-2.5 7.9-0.6 1.8-1 3.7-1.5 5.5-0.5 2-0.9 4.1-1.3 6.1-0.1 0.4 0.1 0.9 0.2 1.3 0.4-0.2 0.9-0.3 1.1-0.6 0.9-1.4 1.6-2.8 2-4.6 0.4-2.1 1.3-4.1 1.9-6.1s1.2-4 1.8-6.1c0.8-2.7 1.6-5.3 2.4-8 0.6-2.1 1-4.3 1.6-6.4 0.1-0.3 0.1-0.7 0.3-1 1.9-2.3 1.9-5.2 2.5-7.9 0.3-1.4 0.7-2.8 1.1-4.2 0.9-2.8 2.7-5.4 3.2-8.4 0.3-1.5 0.2-1.6-1.3-1.9-0.4-0.1-0.7-0.6-0.9-0.9-0.3-0.6-0.7-0.8-1.3-0.5-0.9 0.4-2 0.6-2.5 1.7-0.5 1.3 0 2.3 1.4 2.5 1.3 0.2 1.4 0.8 1.1 1.8-0.5 1.6-0.9 3.2-1.3 4.9-0.1 0.3 0.1 0.7 0 0.9-0.1 0.4-0.4 0.8-0.6 1.1-0.3-0.2-0.6-0.4-0.9-0.7-0.4-0.3-0.8-0.6-1.3-0.9-0.2 0.4-0.5 0.8-0.4 1.2 0 0.3 0.5 0.6 0.8 0.7 0.9 0.2 1.1 0.8 0.8 1.6-0.4 1.4-1 2.8-1.4 4.3-0.1 0-0.2-0.1-0.4-0.1 0-0.6 0.1-1.3 0.1-1.9 0.1-1.2-0.4-2.1-1.6-2.5-0.3-0.1-0.6-0.3-1-0.5-1.3-0.6-1.3-0.8-0.3-1.8 0.3-0.3 0.4-0.7 0.7-1 0.4-0.5 0.8-1.1 1.4-1.5 0.9-0.6 1.6-1.2 1.6-2.3 0-0.7 0.2-1 1-0.8 0.3 0.1 0.6-0.2 0.9-0.3-0.1-0.3-0.2-0.6-0.4-0.9-0.4-0.5-0.9-1.3-1.4-1.4-0.5 0-1 0.8-1.5 1.1-1.3 0.6-2.2 1.5-2.3 3 0 0.1-0.1 0.2-0.1 0.3-1.4 1.6-2.8 3.1-4.1 4.8-0.6 0.8-1.1 1.7-1.5 2.7-0.6 1.1-1.1 2.3-2.7 2.9 0.2-0.8 0.3-1.4 0.6-1.8 2.4-3.7 4.9-7.3 7.3-10.9 1.2-1.7 2.4-3.4 3.6-5.1 0.3-0.5 0.7-1 1.1-1.4 2.4-2.4 5-4.8 7.2-7.3 1.9-2.2 3.8-4.5 5.3-6.9 2.3-3.6 3.9-7.6 6.4-11 1.8-2.5 3.1-5.1 4.5-7.7 0.8-1.5 1.4-3.1 2.1-4.5 0.6-1.1 1.4-2 2-3.1 2-3.7 3.9-7.4 5.9-11.1 1.5-2.7 2.7-5.7 4.5-8.1 2.1-2.8 3.4-6 6.1-8.5 2.2-2.1 3.5-5 5.3-7.5 0.7-1 1.5-2 2.3-3s1.6-1.9 2.4-2.8c1.5-1.7 2.9-3.4 4.4-5 2.2-2.4 4.6-4.7 6.9-7 0.9-0.9 1.8-1.7 2.7-2.5 0.7-0.7 1.4-1.3 2-2 0.7-0.8 1.5-1.1 2.4-0.7 0.4 0.2 0.7 0.9 0.9 1.4 0.1 0.2-0.1 0.6-0.3 0.9-0.6 1.2-1.2 2.4-1.9 3.5-0.4 0.6-1 1.1-1.4 1.7-1.4 2.1-3 4-4.2 6.2-0.9 1.7-1.3 3.7-2 5.5-1.1 2.7-2.2 5.4-3.5 8.1-0.9 2-2.1 3.8-2.5 6-0.3 1.7-1.2 3.2-1.9 4.8l-1.8 4.2c-0.5 1.1-1 2.2-1.5 3.2-0.9 2-1.8 4-2.8 6-1.1 2.2-2.4 4.2-3.6 6.3-0.2 0.3-0.4 0.5-0.4 0.8-0.4 2.7-2.2 4.6-3.4 7-0.1 0.3-0.3 0.5-0.4 0.7-0.9 1.6-1.9 3.2-2.8 4.8-1.4 2.7-2.8 5.4-4.3 8-0.9 1.6-1.9 3.1-2.8 4.7-0.5 0.8-0.9 1.6-1.4 2.4-1.9 3-3.9 6-5.8 9.1-1.7 2.8-3.7 5.4-4.9 8.4-1.1 2.8-2.7 5.4-2.9 8.7-0.3 4.4-1.9 8.6-3 12.9l-4.2 15.6c-0.9 3.1-1.8 6.2-2.7 9.3-0.7 2.4-1.3 4.8-2 7.1-0.2 0.8-0.6 1.5-0.9 2.2-0.4 1.1-0.7 2.2-1 3.4-0.1 0.4-0.2 0.9-0.4 1.2-1.4 2.3-2 4.8-2.8 7.3-0.9 2.8-2.5 5.4-3.7 8.1-0.1 0.3-0.4 0.5-0.5 0.8-1.2 4.3-4.5 7.5-6.3 11.6-1.3 3.2-4 5.8-6.1 8.7-0.3 0.5-0.7 0.9-1.1 1.4-1 1.2-1.9 2.3-2.9 3.5-0.3 0.3-0.7 0.6-0.9 1-1.4 3-4.4 4.7-6.1 7.5-0.2 0.3-0.4 0.6-0.7 0.8-2.7 1.7-5.4 3.4-8.2 4.9-1.7 0.9-3.6 1.4-5.3 2.2-0.4 0.2-0.8 1-0.9 1.5-0.1 1.8 0 3.6 0 5.4 0.1 2.8 0.1 5.5 0.2 8.3 0.1 3.7 0.1 7.3 0.2 11 0 1.2 0.2 2.3 0.3 3.5 0.8 5.7 0.2 11.4 0.1 17.1-0.2 4.8-0.5 9.7-0.5 14.5 0 2.9 0.4 5.7 0.4 8.6 0.1 6.3 0 12.5 0 18.8 0 4.5-0.6 9 0.2 13.5 0.1 0.7 0.3 1.5 0.4 2.2 0.2 1 0.5 2 0.5 3.1-0.1 3.7 0.7 7.3 1.6 10.9 0.2 0.8 0.5 1.4 1.4 1.6 0.9 0.1 1.2-0.5 1.8-1.1 1.1-1.3 1.3-2.8 1.7-4.4 0.2-0.9 0.7-1.8 1.2-2.7 0.4-0.9 1-1.8 1.3-2.7 1.8-5.6 3.6-11.2 5.2-16.8 1.1-3.8 1.9-7.6 2.8-11.4 0.7-2.8 1.5-5.6 2.2-8.4 0.6-2.6 1.1-5.2 1.8-7.8 1.1-4.1 2.3-8.1 3.4-12.2 0.8-2.9 1.5-5.9 2.3-8.8 0.5-1.8 1.2-3.6 1.7-5.5 0.5-1.6 0.8-3.3 1.4-4.9 1.1-3.1 1.8-6.4 3.7-9.2 0.6-1 0.6-2.3 1.1-3.4 0.7-1.7 1.6-3.4 2.4-5.1 2.5-5.6 4.9-11.2 7.4-16.8 0.8-1.8 2-3.5 2.9-5.3 1.2-2.4 2.3-4.9 3.5-7.3 1-2 2.2-3.8 3.4-5.8 1.1-2 2.3-4 3.4-6 0.2-0.3 0.3-0.6 0.5-0.8 1.8-2.7 3.6-5.4 5.5-8.1 0.6-0.9 1.4-1.8 2-2.7 2-3 3.9-6 6-8.9 2-2.7 4.3-5.1 6.3-7.8 1-1.4 2-2.8 3.5-3.8 1.1-0.8 1.8-2.3 2.6-3.5 0.2-0.2 0.3-0.5 0.5-0.7 2.5-1.7 4.1-4.5 6.9-5.8 0.3-0.2 0.7-0.5 0.8-0.8 0.9-2.4 3.1-3.5 4.9-4.9 2.3-1.8 4.4-3.7 6.6-5.6 0.5-0.5 1.1-1.1 1.7-1.3 2.1-0.6 3.5-2.3 5-3.6 2.9-2.4 5.9-4.6 9.7-5.6 0.8-0.2 1.7-0.6 2.4-1.1 1.8-1.1 3.8-1.3 5.9-1 2.3 0.3 3.8 1.9 3.8 4.2v13.2c0 0.4-0.1 0.9 0 1.3 0.5 2.7 0.4 5.3-0.9 7.8-0.1 0.2-0.1 0.5-0.1 0.8-0.1 2.9-0.2 5.7-0.3 8.6v0.1c0.4 5.7-1.4 11.1-1.6 16.7-0.1 2.4-0.4 4.9-0.5 7.3-0.4 5.7-0.7 11.4-1.1 17.1-0.1 1.9-0.5 3.8-0.7 5.7-0.1 0.6 0 1.2 0.1 1.8 0.5 2 0.6 3.9 0.1 5.9-0.2 0.6-0.2 1.2-0.1 1.8 0.6 2.4 0.4 4.7 0.1 7.1-0.2 1.9 0.1 3.8 0.2 5.7v5.3c0 4-0.1 8-0.2 12 0 1.6-0.3 3.3-0.2 4.9 0.1 3.1 0.5 6.1 0.6 9.2 0.2 4.7 0.2 9.3 0.4 14 0.1 2.9 0.3 5.8 0.8 8.6 0.4 2 0.6 4 0.4 6-0.1 1.1 0.2 2.3 0.4 3.4 0.7 3.4 1.3 6.8 1.4 10.3 0.1 2.7 1.1 5.5 1.8 8.2 0.5 2 0.9 4-0.4 5.9-0.8 1.2-2.2 1.3-3.1 0.2-1.8-2.2-3.2-4.6-4-7.4-0.3-1-0.8-2-1.4-2.9-1.9-3.1-3.9-6.2-4.9-9.8-0.6-2.5-2-4.8-2.9-7.2-1.1-2.6-2.1-5.2-3-7.9-2.2-6.7-4.4-13.5-6.4-20.2-1.1-3.5-1.8-7.1-2.7-10.7l-1.2-4.5c-1.2-4.6-2.4-9.1-3.5-13.7-0.7-3-1.2-6.1-1.7-9.2-0.6-3.7-1-7.4-1.4-11.1-0.1-0.8 0.1-1.5-0.1-2.3-0.1-0.5-0.6-0.9-0.9-1.4-0.3 0.4-0.6 0.8-0.8 1.2-0.8 2.9-1.7 5.8-2.2 8.7-0.6 3.6-2.1 6.9-3.2 10.4-1.3 3.8-2.1 7.7-3.4 11.5-7.8 23-17.9 45.3-30.5 66.1-6.5 10.6-13.6 20.8-21.4 30.5-6.9 8.5-14.5 20.4-25.8 22.7-6.3 1.3-13.6 1.1-19.2-2.3-7-4.2-8.3-12.5-12-19.2-1.4-2.6-3-5.1-4.7-7.5-0.9-1.3-2-2.4-2.9-3.6-1.1-1.5-2.1-3-3.1-4.5-0.9-1.3-1.7-2.6-2.6-3.9-0.7-1-1.4-1.9-2-3-2.4-4.5-6.1-8-8.7-12.4-1.4-2.2-3.1-4.3-4.6-6.5-1-1.6-1.8-3.3-2.8-4.9-0.7-1.1-1.5-2.1-2.3-3.2-0.5-0.8-1.1-1.6-1.5-2.4-0.5-0.8-1-1.7-1.4-2.6-0.4-0.7-0.9-1.4-1-2.1-0.7-3.7-2.6-6.9-4.5-10-0.2-0.3-0.5-0.7-0.6-1-0.9-2.5-1.8-5-2.8-7.5-0.3-0.9-0.7-1.7-1-2.6-1.1-3-2.2-5.9-3.2-8.9-0.2-0.6-0.4-1.1-0.5-1.7-0.4-3.5-2.1-6.6-3.1-9.9-0.8-2.7-1.3-5.5-2-8.2-0.3-1.2-0.5-2.4-0.7-3.6-0.3-1.9-0.6-3.8-1-5.6-0.5-2.8-1.2-5.5-1.6-8.3-0.7-4.9-2.1-9.7-3.1-14.5-0.6-2.8-1.6-5.4-2.4-8.1-0.4-1.5-0.7-2.9-1.1-4.4-0.8-3.1-1.6-6.3-2.3-9.4-0.5-2.4-0.8-4.8-1.3-7.2s-1-4.8-2.2-7.1c-0.8-1.6-1.1-3.6-1.6-5.4-0.7-2.2-1.4-4.5-2.1-6.7-0.9-2.8-1.8-5.5-2.8-8.3-0.9-2.4-1.9-4.8-2.7-7.3-0.5-1.4-0.8-2.8-1.3-4.2-0.7-2.1-1.4-4.2-2.3-6.3-1.8-4-3.7-7.9-5.5-11.8-2.4-5-4.6-10.1-7.1-15-1.4-2.8-3.1-5.5-4.8-8.2-2.3-3.8-4.7-7.6-7-11.4-0.5-0.8-0.8-1.8-1.2-2.7-0.5-1.1-1-2.3-1.5-3.4-0.7-1.4-1.4-2.8-2-4.2-0.9-2.2-1.8-4.4-2.5-6.6-1.1-3.2-2-6.5-3-9.7-0.5-1.7-1.1-3.4-1.5-5.1-0.4-1.8-0.6-3.7-0.9-5.5-0.2-1.2-0.4-2.4-0.5-3.6-0.1-1.9-0.2-3.8-0.2-5.7 0-0.3 0.5-0.7 0.8-1 0.3 0.3 0.7 0.6 0.8 1 0.4 1.4 0.7 2.8 1.1 4.2 0.1 0.4 0.1 0.8 0.1 1.2-0.2 2.6 0.2 5 1.5 7.3 0.2 0.3 0.4 0.7 0.5 1.1 0.4 3.3 2.4 5.6 4.5 8 0.9 1 1.4 2.5 2.2 3.7 1 1.5 2.1 3 3.3 4.3 2.6 2.9 5.3 5.6 8 8.4 1.6 1.7 3.3 3.4 4.8 5.1 1.9 2.1 3.6 4.3 5.4 6.5 2.1 2.5 4.1 5.1 6.1 7.7 1 1.3 1.8 2.8 2.8 4.2 0.7 1.1 1.6 2.1 2.4 3.2 2.1 3.1 4.3 6.1 6.4 9.3 1.6 2.3 3 4.8 4.5 7.2 0.8 1.3 1.6 2.7 2.4 4.1 0.4 0.6 0.9 1 1.2 1.6 0.8 1.7 1.6 3.5 2.2 5.3 2 5.6 4 11.3 5.9 17 1.1 3.2 1.9 6.4 2.9 9.6 0.7 2.2 1.6 4.3 2.5 6.5 1.8 4.8 3.7 9.5 5.4 14.3 0.3 0.9 0.9 1.3 1.8 1.2s0.9-0.9 0.8-1.6c-0.8-5.5-0.7-11.1-0.6-16.6 0.1-5.1 0.2-10.2 0.7-15.2 0.4-3.5 0-7 0.1-10.5 0.1-3.6-0.4-7.2-0.9-10.7-0.3-2.3-1-4.5-1.5-6.8-0.7-3.1-1.4-6.2-2-9.4l-0.9-4.2c-1.2-5-2.5-9.9-3.5-14.9-0.9-4.4-1.8-8.9-2.1-13.4-0.4-4.2-0.1-8.5-0.1-12.8 0-1.2-0.1-2.4-0.1-3.6 0-0.6-0.1-1.2-0.1-1.8 0.2-5.2 0.3-10.4 0.5-15.6 0.1-1.2 0.4-2.4 0.6-3.6l0.3-0.9c0.7-2.6 1.4-5.2 2.2-7.8 0.7-2.3 0.9-4.6 1-7 0.1-3.1 0.5-6.3 1.9-9.2 0.4-0.9 0.5-2 0.8-3 0.2-0.6 0.6-1.1 0.9-1.6 0.5 0.4 1.2 0.6 1.5 1.1 1 1.4 1 2.7 0.3 4.4-0.8 1.9-0.9 4.2-1.1 6.3-0.4 3.7-0.8 7.5-1 11.2-0.3 3.7-0.9 7.4-0.4 11.2 0.3 2.7 0.1 5.5 0.2 8.3 0.1 1.4 0.3 2.8 0.5 4.3 0.5 3.5 1 7 1.5 10.4 0 0.3 0 0.6 0.1 0.8 1.5 3.3 1.3 7 3.2 10.3 1 1.8 1.2 4.1 1.7 6.2 0.2 0.6 0.3 1.2 0.5 1.8 0.8 2.2 1.7 4.4 2.6 6.7 1.1 2.9 2.2 5.9 3.2 8.9 1.2 3.3 2.4 6.5 3.4 9.8 1 3.2 1.8 6.5 2.4 9.7 0.9 4.1 1.6 8.3 2.2 12.5 1.4 8.6 2.6 17.2 2.8 25.9 0.1 5 0.7 10.1 1.1 15.1 0.4 4.8 0.7 9.6 1.2 14.4 0.5 4.6 1.4 9.3 1.8 13.9 0.3 2.8 0.9 5.4 1.7 8.1 0.1 0.5 0.2 1 0.2 1.5-0.2 2.2 0.4 4.1 1.6 5.9 0.2 0.4 0.4 1 0.3 1.3-0.6 1.6 0 3.1 0.4 4.7 0.9 3.6 1.6 7.2 2.5 10.8 0.8 3 1.7 6.1 2.7 9 0.4 1.1 1.2 2.1 1.9 3.2 0.9 1.4 1.8 2.7 2.7 4.1 0.5 0.7 0.8 1.6 1.1 2.4 1.9 4 3.8 8 5.7 12 0.3 0.5 0.9 1 1.4 1.2 0.7 0.2 1.3-0.1 1.3-1 0.2-3.6 0.5-7.2 0.5-10.9 0-3.6-0.3-7.3-0.4-10.9-0.1-6.9-0.3-13.8-0.2-20.7 0-2.4-0.7-4.2-1.8-6.3-1.5-2.7-1.2-5.8 0.1-8.6 0.9-2 1.2-3.9 1.1-6.1 0-0.6 0-1.2 0.1-1.8 1.3-7.7 1.1-15.5 1.2-23.3 0-0.6 0-1.3-0.3-1.8s-0.9-1.2-1.4-1.2c-4.1-0.1-6.6-2.9-9.2-5.5-3-3-5.3-6.6-7.3-10.3-2.2-4.1-4.3-8.2-5.6-12.7-0.2-0.9-0.3-1.8-0.5-2.7-0.1-0.6-0.1-1.2-0.3-1.8-2.3-6.8-2.4-13.9-1.9-21 0.2-3.7 0.6-7.3 1.1-10.9 0.3-2.3 0.9-4.6 1.7-6.8 1.1-3 2.4-6 3.8-8.9 0.7-1.5 1.8-2.7 2.6-4.1 0.4-0.6 0.7-1.3 1-2 0.2-0.3 0.2-0.7 0.5-1 1.8-2.3 3.6-4.5 5.3-6.8 1.4-1.9 2.7-3.9 4-5.8 0.1-0.2 0.3-0.4 0.5-0.5 3.1-1.8 5-5 8-6.8 2.1-1.3 2.7-2.9 2.6-5.3-0.1-2.5 0.2-4.9 0.3-7.4 0.1-1.3 0.2-2.6 0.2-4 0.1-4.6 0.1-9.1 0.2-13.7 0-1-0.1-1.9-0.2-2.9-0.4-4-0.3-8 0.2-12.1 0.3-2.3 0-4.7 0-7.1 0-6.3 0.1-12.6 0.1-18.9v-18.9c0-0.9 0-1.8 0.2-2.6 0.7-2.2 0.4-4.2-0.2-6.4-0.4-1.4-1.2-2.3-2.7-2.4-2.7-0.2-5.5-0.3-8.3-0.5-1.5-0.1-3-0.2-4.5-0.4-0.6-0.1-1.4-0.3-1.7-0.7-1.8-1.9-4.4-2.4-6.4-3.8-2.3-1.6-5.1-1.5-7.5-2.8-0.3-0.2-0.7-0.2-1-0.4-4-2.6-8.5-4.1-12.6-6.2-0.7-0.4-1.5-0.7-2-1.3-2-1.9-3.9-3.9-5.8-5.8-0.4-0.4-0.8-0.7-1.2-1-0.9-0.7-2-1.3-2.6-2.2-1.6-2.3-3.2-4.7-4.4-7.3-2-4.3-3.8-8.7-5.5-13.2-0.6-1.7-0.9-3.5-1.1-5.3-0.4-3-1.5-5.9-1.1-9 0.1-0.8-0.2-1.6-0.2-2.4-0.1-3.4-0.2-6.7-0.1-10.1 0.1-2.8 0.6-5.6 0.8-8.5 0.1-1.5 0.2-2.9 0.2-4.4v-1c0.4-3 1.1-5.9 1.3-8.9 0.3-3.6 0.6-7.2 0.2-10.8-0.3-3.3-1.1-6.6-2.2-9.8-0.7-2-2.2-3.7-3.4-5.4-1.1-1.6-2.3-3-4.1-4-1-0.5-1.2-2.3-0.6-3.6 0.5-1.1 1.4-1.5 2.7-1.4 1.9 0.1 3.8 0.3 5.7 0.2 2-0.1 3.9 0.2 5.6 1.2 1.9 1.1 2.6 0.6 2.6-1.6 0-0.9 0.3-1.8 0.6-2.6 0.3-1 0.7-1.9 1-2.9 0.7-2.6 1.3-5.2 2.2-7.7 0.5-1.3 1.3-2.5 2-3.8 0.6-1.1 1.1-2.3 1.9-3.3s1.9-1.8 2.8-2.7l1.1-1.1c0.8-0.8 1.5-1.8 2.5-2.5 2.1-1.7 4.4-3.4 6.6-5.1 0.1 0 0.1-0.1 0.2-0.2 2.2-0.9 4.4-1.9 6.7-2.7 0.6-0.2 1.2-0.4 1.9-0.4 0.9-0.1 1.9-0.2 2.7 0.1 2.8 1 5.7 0.5 8.6 0.5 0.5 0 1.1-0.5 1.6-0.8 1-0.5 2-1.1 2.9-1.6 1.1-0.6 2-1.4 3.1-1.9 6.2-3 12.5-3.7 19-1.3 1.5 0.5 2.9 1.3 4.3 1.9 0.4 0.2 0.8 0.5 1.2 0.8 1.4 1.5 2.8 3.1 4.2 4.7 0.4 0.4 0.7 1 0.9 1.5 0.6 1.5 2.6 2 3.9 1.1 2.7-1.8 5.6-3.1 8.8-3.7 1-0.2 1.9-0.3 2.7-1.3 0.8-1.1 2.4-0.8 3.3 0.3 0.3 0.4 1 0.7 1.3 0.6 1.6-0.4 3.1-0.2 4.6 0.2 1.9 0.6 3.9 1 5.7 1.7 1.1 0.4 2 1.4 3.1 2.1 0.6 0.4 1.1 0.8 1.7 0.9 0.9 0.2 1.6 0.4 1.8 1.4 0 0.1 0.2 0.3 0.2 0.4 0.5 1.4 1.4 1.9 2.9 1.9 1.6 0 3.1 0.6 4.6 1 2.1 0.6 4.1 1.2 6.2 1.9 0.6 0.2 1.1 0.3 1.7 0.5-0.1 0-0.1 0.1-0.1 0.3zm-69.2 51.8c-0.4-0.3-1-0.6-1.2-1-0.6-1.2-1.1-2.4-1.6-3.6-1.2-2.9-2.3-5.8-3.5-8.6-0.1-0.3-0.3-0.7-0.6-0.9-0.5-0.3-1.1-0.1-1 0.5 0.2 1.9 0.4 3.8 1 5.6 0.7 2.3 1.8 4.5 2.7 6.8 0.4 1 0.8 2.2 1.4 3.1s1.6 1.6 2.4 2.4c0.2 0.2 0.3 0.5 0.4 0.8 0.4 1.2 0.8 2.3 1.1 3.5 0.2 0.8 0.4 1.6 0.3 2.5 0 1-0.3 1.9-0.5 2.9 2.5 0.2 2.8 0.1 2.9-2.2 0.1-1-0.1-2.1-0.1-3.1 0-0.7 0.1-1.4 0.2-2.1 0.1-1.1 0.3-2.2 0.3-3.3 0-1.6-0.1-3.3-0.1-4.9-0.1-1.8-0.1-3.5-0.2-5.3 0-0.5-0.4-1.1-0.8-1.4-1.1-0.6-1.5-1.5-1.8-2.5-0.3-0.9-0.6-1.8-1.2-2.5-0.8-1-3-0.9-3.3 0.2-0.5 2.1-0.2 4.1 0.6 6 1 2.4 1.8 4.7 2.6 7.1zm-9.8 32.6c-0.7-1.3-1.6-2.6-2.1-4-0.6-1.8-2.3-3.3-1.2-5.5 0 0 0-0.1-0.1-0.1s-0.3 0-0.4 0c-1.1 0.6-1.8 0.2-2.4-0.8-1.1-2.1-1.6-4.6-4.3-5.6-0.3-0.1-0.5-0.5-0.7-0.8-0.9-1.2-1.8-2.4-2.8-3.5-0.6-0.7-1.5-1.1-2.5-0.6-0.6 0.4-1.1 3.1-0.9 3.8 0.7 2.3 1 4.8 2.7 6.7 0.1 0.1 0.1 0.2 0.1 0.3 0.8 1.6 1.3 3.4 2.4 4.8 2.8 3.6 4.9 7.6 6.8 11.6 1.3 2.6 2.2 5.4 4.1 7.8 0.2 0.3 0.4 0.6 0.5 1 0.5 1.6 1.1 2 2.9 1.8 1-0.1 1.5-0.5 1.4-1.5-0.2-1.3-0.4-2.5-0.7-3.8-0.5-2.3-0.5-2.3 1.2-3.7 0.7-0.6 1-0.3 1.2 0.3 0.4 1.9 1 3.9 1.2 5.8 0.2 2.1 0.1 2.1 2.1 2.8 0.3 0.1 0.5 0.8 0.7 1.2-0.4 0.2-0.7 0.5-1.1 0.5s-0.7-0.3-1.1-0.4c-0.5-0.1-1.1-0.3-1.4-0.1s-0.3 0.9-0.4 1.4c-0.2 1.7-0.1 3.5-0.6 5.2-0.5 1.6-0.5 3.1-0.3 4.7 0.2 1.9 1.3 3.5 1.1 5.6-0.4 3.4-0.3 6.9-0.4 10.4 0 0.9 0.6 1.3 1.3 1.2 0.4 0 1.1-0.5 1.1-0.9 0.3-1.6 0.6-3.3 0.5-4.9 0-2-0.4-4-0.6-6-0.1-0.8-0.3-1.7-0.1-2.4 0.7-1.8 0.5-3.6-0.1-5.4-0.3-0.9-0.4-1.7 0.6-2.4 0.3 0.7 0.4 1.5 0.4 2.2 0.1 0.6 0.1 1.3 0.1 1.9 0 0.8 0 1.5 0.1 2.3 0 0.5 0 1.2 0.3 1.4 0.6 0.3 1.4 0.5 2 0.4 0.3 0 0.7-0.8 0.7-1.2 0.1-1.5 0-3-0.1-4.5-0.1-2.6-0.3-5.3-0.4-7.9 0-0.9-0.2-1.8-1.1-2.4-0.2-0.1-0.4-0.6-0.4-0.9 0-0.6 0.1-1.1 0.2-1.7 0.3-1.2 0.6-2.4-0.9-3.2-0.1-0.1-0.2-0.3-0.3-0.5-0.5-2.6-1-5.2-1.5-7.9l-0.3-2.1c0.1 0 0.2-0.1 0.4-0.1 0.3 0.5 0.4 1.2 0.8 1.6 1.2 1 1.4 2.2 1.4 3.6 0 0.9 0.1 1.8 0.2 2.6 0.2 1 0.5 2 0.8 3.1 2-2.1 2-4.8 0.7-7.1-0.5-0.9-0.8-1.9-1.3-2.9 1.8 0 2.4-0.5 2.6-2.6 0.2-3 0.3-6.1 0.3-9.1 0-0.9-0.5-1.5-1.2-2.1-0.8-0.7-1.4-1.7-1.8-2.7-0.6-1.2-0.9-2.5-1.3-3.7-0.3-0.8-0.6-1.6-0.8-2.4-0.6-1.9-1.4-3.1-3.2-3.3-0.9-0.1-1.4-0.6-1.6-1.5-0.1-0.6-0.3-1.2-0.6-1.7-1.1-1.8-2.2-3.6-3.4-5.3-0.1-0.2-0.2-0.3-0.3-0.5-1.2-1.6-2.3-3.2-3.7-4.6-0.4-0.5-1.3-0.8-1.9-0.8-0.8 0-1.2 0.7-1.1 1.4 0 0.7 0.2 1.5 0.4 2.2 0.1 0.4 0.2 0.7 0.3 1.4-0.8-0.3-1.2-0.5-1.7-0.7-0.4-0.1-0.9-0.2-1.2 0-0.2 0.1-0.3 0.7-0.2 1.1 0.3 0.9 0.7 1.8 1.1 2.8 0.7 2.1 1.4 4.1 2.7 6 0.7 0.9 1.2 2 1.6 3.1 0.5 1.3 0.7 2.6 1.3 3.9 1.2 2.7 2.6 5.4 3.9 8.1 1 2.1 1.9 4.3 2.7 6.5 0.4 1.2 0.2 1.4-1 1.6-0.8 0.2-1.4 0.7-1.4 1.7zm57 418.2c0.1 0.1 0.3 0.1 0.4 0.2 0.3-0.3 0.7-0.6 1-0.9 1.1-2.1 2.2-4.1 3.3-6.2 0.5-1 1.1-2.1 1.6-3.1 1.2-2.4 2.5-4.7 3.7-7.1 0.4-0.9 0.8-1.8 1.2-2.6 1.7-3.4 3.4-6.9 5-10.3 1.5-3.2 2.9-6.5 4.4-9.8 1-2.1 2.1-4.1 3-6.2 1.4-3.3 2.7-6.7 4.1-10.1 0.2-0.6 0.4-1.2 0.5-1.8 0.2-0.8 0.5-1.5 0.8-2.2 1-2.5 2.2-4.9 3-7.4 0.9-2.7 1.6-5.4 2.5-8.1 0.5-1.5 1.1-3 1.7-4.5 0.7-1.7 1.4-3.3 1.9-5 0.8-2.6 1.5-5.3 2.3-7.9 0.1-0.4 0.4-0.8 0.6-1.1 0.1 0 0.3 0.1 0.4 0.1-0.1 0.9-0.1 1.8-0.3 2.7-1.2 4-2.4 7.9-3.7 11.9-1.2 3.7-2.6 7.4-3.8 11.2-1.5 4.6-2.6 9.4-4.5 13.9-1.3 3.1-2.1 6.5-4.1 9.3-0.4 0.5-0.5 1.2-0.7 1.8-0.4 1.2-0.9 2.3-1.3 3.5-1 2.5-2 5-3.1 7.5-0.6 1.4-1.4 2.8-1.9 4.2-0.4 0.9-0.6 2-0.8 2.9 0 0.2 0.2 0.6 0.4 0.6 0.2 0.1 0.5-0.2 0.6-0.4 0.6-0.9 1.1-1.7 1.6-2.7 0.6-1.1 1-2.2 1.5-3.3 0.4-0.9 1-1.7 1.4-2.6s0.8-1.9 1.2-2.9c0.9-2.1 1.9-4.2 2.9-6.3 0.7-1.6 1.4-3.1 2.1-4.7 0.3-0.7 0.7-1.4 0.8-2.1 0.3-1.7 0.3-3.5 1.9-4.8 0.2-0.2 0.2-0.5 0.4-0.8 0.9-2.4 1.9-4.8 2.8-7.3 1.3-3.9 3.3-7.4 4.3-11.5 0.5-2.1 1.6-4.1 2.3-6.1l1.5-4.5c0.9-3.1 1.8-6.3 2.7-9.4 0.7-2.5 1.5-4.9 2.1-7.3 0.9-3.4 1.5-6.9 2.3-10.4 1.3-5 2.5-10.1 4.3-14.9 0.4-1 0.6-2.1 0.9-3.1 0.9-3.3 1.9-6.6 2.8-9.9 0.5-1.7 0.5-3.5 1.2-5.1 1.1-2.7 2.6-5.2 3.9-7.8 2.3-4.6 4.6-9.1 6.8-13.7 1.2-2.5 2-5.1 3.8-7.3 0.2-0.2 0.2-0.7 0-0.9s-0.7-0.4-0.9-0.3c-0.7 0.4-1.6 0.7-2.1 1.3-1 1.5-2.6 2.2-4 3.1-2.4 1.6-4.8 3.3-7.1 5.1-1.5 1.2-2.9 2.8-4.3 4.1-3.7 3.4-8 6.3-10.4 10.9-0.2 0.3-0.5 0.6-0.7 0.9-0.8 0.8-1.6 1.7-2.3 2.5-0.4 0.4-0.8 0.9-1.2 1.3-1.4 1.9-2.8 3.8-4.2 5.8-0.9 1.2-1.3 2.9-2.5 3.8-1.8 1.3-2.7 3.2-4 4.8-1 1.2-2 2.5-2.8 3.9-1.9 3.3-3.7 6.6-5.6 9.9-0.6 1.1-1.2 2.2-2 3.1-1.7 1.8-2.8 3.8-3.8 6-0.6 1.4-1.4 2.8-2.3 4-0.7 0.8-1.2 1.5-1.5 2.5-0.9 2.9-1.6 5.8-3.3 8.4-1.2 1.8-2.1 3.9-3 5.9-1.4 3.2-2.7 6.5-4.1 9.8-0.1 0.3-0.3 0.5-0.5 0.7-1.1 2.1-2.3 4.2-3.2 6.4-1.1 2.8-2.1 5.8-3.1 8.6-1.7 4.9-3.4 9.7-5 14.6-0.5 1.5-0.9 3-1.3 4.5-1 3.9-2 7.9-3 11.8-0.1 0.5-0.2 1.1-0.5 1.6-1.2 2.3-1.5 5-2 7.5-0.8 3.8-1.5 7.6-2.4 11.4-0.3 1.6-0.8 3.2-1.2 4.8-0.7 2.9-1.3 5.7-1.9 8.6-0.2 1-0.2 1.9-0.9 2.7-0.8 0.9-0.4 2.1 0.4 2.2 0.9-1.4 1.7-2.6 2.5-3.9 0.5-0.8 0.9-1.7 1.3-2.7 0.7-1.9 1.2-3.8 1.8-5.7 0.1-0.4 0.4-0.6 0.7-1 0.2 0.1 0.3 0.1 0.5 0.2-0.7 2.4-1.4 4.8-2.2 7.2-0.3 1-0.7 1.9-1 2.9-0.4 1.3-0.9 2.5-1.4 3.8-0.4 1-0.8 2.1-1.1 3.1 0 0.2 0.6 0.8 0.7 0.7 0.5-0.3 1.1-0.6 1.3-1.1 0.9-2 1.7-4.1 2.5-6.2 0.4-1 1-1.9 1.3-2.8 1.5-3.9 3-7.9 4.5-11.9 0.4-0.9 0.8-1.8 1.1-2.8 0.6-1.8 1.1-3.6 1.7-5.3 0.5-1.4 0.9-2.8 1.4-4.2 0.4-1.4 0.8-2.8 1.3-4.2 0.7-2 1.5-4 2.2-6 1.1-3.1 2.1-6.3 3.1-9.4 0.4-1.3 1-2.6 1.4-3.9 0.8-2.5 1.6-5.1 2.5-7.6 1.1-3 2.3-5.9 3.5-8.9 0.6-1.6 1.1-3.2 1.8-4.7 0.9-1.9 2.2-3.6 2.4-5.8 0-0.2 0.2-0.3 0.3-0.5 0.2 0.6 0.3 1.1 0.1 1.6l-3 8.1c-1.4 3.8-2.8 7.6-4.1 11.4-0.9 2.6-1.6 5.3-2.6 7.9-1.8 4.9-3.7 9.8-5.5 14.8-0.9 2.5-1.5 5-2.2 7.5-1.1 3.5-2.1 7-3.3 10.5-1 3.1-2.2 6.1-3.2 9.1-0.4 1.3-0.6 2.8-0.8 4.2 0 0.1 0.2 0.3 0.4 0.7 1-1.4 2.2-2.5 2.9-3.9 1.3-2.8 2.3-5.7 3.4-8.5 0.2-0.5 0.6-1 0.8-1.6 0.4-0.8 0.8-1.6 1.1-2.4 0.2-0.6 0.3-1.2 0.5-1.7 1-2.3 1.8-4.7 3.1-6.9 1-1.8 1.7-3.8 2.3-5.7 0.3-0.8 0.6-1.6 1.1-2.6 0.4 2-0.3 4.7-1.3 5.9-0.2 0.3-0.6 0.5-0.6 0.9-0.8 3.3-3.1 6-3.4 9.5 0 0.5-0.4 1-0.7 1.5-0.5 0.9-1.2 1.7-1.5 2.6-1 2.5-1.8 5.1-2.7 7.7-0.3 1-0.8 1.9-1.2 2.9-0.4 0.9-0.9 1.7-1.3 2.6-0.2 0.4-0.6 0.8-0.7 1.2-0.3 0.9-0.4 1.8-0.6 2.7 0 0.2 0 0.6 0.2 0.7 0.1 0.1 0.5 0.1 0.6-0.1 0.7-0.9 1.8-1.8 1.9-2.8 0.2-1.8 1-3.2 2-4.5 1.9-2.5 3.1-5.4 4.4-8.3 1.5-3.2 3.3-6.3 4.2-9.8 0.1-0.5 0.4-0.8 0.6-1.3 0.5-1 0.9-2.1 1.4-3.1 0.8-1.6 1.5-3.2 2.3-4.8 0.1 0 0.3 0.1 0.4 0.1-0.1 0.8-0.2 1.7-0.5 2.5-0.9 2.4-1.9 4.8-2.9 7.2-0.2 0.6-0.6 1.1-0.8 1.7-0.7 1.7-1.6 3.4-2 5.2-0.2 1.2-0.1 2.3-1.2 3.1-0.3 0.2 0 1.1 0 1.6 0.5-0.2 1.2-0.2 1.5-0.5 0.8-1.1 1.5-2.4 2.2-3.7 0.5-1 0.8-2.2 1.5-3.1 1.3-2 2.2-4.1 2.7-6.4 0.1-0.5 0.3-1.2 0.7-1.5 1.6-1.4 1.7-3.4 2.4-5.1 1.3-3.7 2.1-7.5 4.6-10.7 0.4-0.5 0.5-1.1 0.7-1.6 0.9-2.4 1.7-4.8 2.6-7.2 0.9-2.5 1.9-5 2.9-7.5 1.5-4 3-8 4.6-11.9 1-2.6 2.3-5.1 3.2-7.7 1.4-3.8 2.6-7.6 3.8-11.4 1.1-3.4 1.9-6.9 3.1-10.3 1.5-4.2 3.6-8.2 4.5-12.6 0.2-0.9 0.9-1.7 1.1-2.6 1-3.3 1.8-6.7 2.7-10 0.5-1.9 1.8-3.7 1.4-5.9 0-0.3 0.2-0.7 0.4-1 0.3-0.7 0.9-1.3 1-2 0.5-3.2 2.1-5.9 3.4-8.7 0.1-0.3 0.5-0.4 0.8-0.6 0.1 0.2 0.3 0.5 0.3 0.7-0.3 1.5-0.6 2.9-1 4.3-0.3 1.1-0.9 2.2-1.3 3.3-0.3 0.9-0.3 1.9-0.6 2.8-1 2.8-2.3 5.5-3.2 8.4-1.5 4.4-2.8 8.9-4.3 13.3-0.2 0.6-0.4 1.3-0.6 1.9-0.9 2.8-1.9 5.5-2.8 8.3-0.7 2-1.2 4-1.9 5.9-1 2.8-2 5.6-3 8.3-0.9 2.7-1.8 5.5-2.8 8.3-0.9 2.4-1.9 4.7-2.8 7.1-0.3 0.7-0.5 1.4-0.8 2.1-1.2 2.9-2.3 5.8-3.5 8.6-0.5 1.2-1.1 2.3-1.6 3.5-0.8 1.9-1.4 3.8-2.1 5.6-0.4 1-0.6 2.1-1.1 3.2-1.8 4.3-3.6 8.7-5.4 13-1.4 3.4-2.8 6.8-4.3 10.2-0.5 1.1-1.1 2.1-1.5 3.1-0.6 1.5-1.1 3.1-1.8 4.7-0.4 0.9-0.6 2-1.8 2.4-0.2 0.1-0.3 0.6-0.2 0.8 0.4 1.3-0.1 2.2-0.8 3.2-1.4 1.4-1.6 2.9-1.6 4.4zm-69.5-64.4c-0.1 0.1-0.3 0.2-0.4 0.3-0.3-0.3-0.5-0.7-0.8-1-1.2-1.5-2.3-3.1-3.5-4.5-0.9-1-2-1.9-2.7-3-2.5-4.1-4.8-8.2-7.2-12.3-0.8-1.3-1.7-2.6-2.5-4-0.6-0.9-1.1-1.9-1.8-2.8-0.8-1.2-1.6-2.3-2.3-3.5-1.6-2.6-3-5.3-4.6-8-1.1-1.9-2.5-3.7-3.4-5.6s-1-4.1-2.8-5.6c-0.2-0.2-0.3-0.6-0.4-1-0.8-1.7-1.5-3.4-2.3-5.1-0.4-0.9-0.9-1.7-1.4-2.5-0.2-0.3-0.5-0.6-0.7-0.9-0.1 0.4-0.5 0.8-0.4 1.2 0.1 0.6 0.6 1.2 0.8 1.8 1.2 3.1 2.2 6.3 3.6 9.4 1.5 3.4 3.3 6.8 5 10.1 1 2.1 2.1 4.1 3.3 6.1 1.6 2.7 3.3 5.3 4.8 8 1.1 1.9 2 3.8 3 5.7 0.2 0.4 0 1.1 0 1.6-0.2 0-0.3 0.1-0.5 0.1-0.3-0.5-0.7-0.9-1-1.4-0.8-1.5-1.6-3-2.4-4.4-1.5-2.5-3.2-4.9-4.7-7.5-2-3.6-3.9-7.4-5.9-11.1-1-1.9-1.9-3.9-2.9-5.9-0.4-0.8-1-1.6-1.5-2.3-0.1-0.2-0.5-0.3-0.7-0.3-0.2 0.1-0.4 0.4-0.4 0.6-0.1 0.3 0 0.7 0.1 1.1 0.9 2.3 1.7 4.7 2.7 7 1.2 2.6 2.7 5.2 4 7.7 1.6 3 3.1 6.1 4.8 9.1 1.7 3.1 3.6 6.1 5.5 9.1 2.6 4.1 5.4 8.2 8 12.3 1.9 2.9 3.7 5.9 5.4 8.9 1.8 3.2 3.4 6.4 5.1 9.6 0.7 1.4 1.8 2.6 2.4 4 2.5 5.2 4.9 10.5 7.3 15.8 1.6 3.5 2.9 7.2 4.4 10.8 0.4 0.9 0.6 1.8 0.9 2.7 0.1 0.4 0 0.8 0 1.2h-0.3c-0.2-0.4-0.4-0.7-0.6-1.1-1.2-2.8-2.3-5.7-3.5-8.5-1.8-4.1-3.7-8.1-5.6-12.2-1.1-2.4-2.2-4.9-3.5-7.2-1.7-3.2-3.6-6.2-5.4-9.3-0.7-1.2-1.4-2.5-2.1-3.7-1.7-3-3.2-6.1-5-9.1-1.9-3.1-4.2-6-6.1-9.1-2.4-3.8-4.7-7.6-6.9-11.4-2-3.6-3.9-7.4-5.8-11.1-0.2-0.4-0.3-1-0.6-1.3-0.4-0.4-1.1-0.5-1.6-0.7-0.2 0.4-0.4 0.9-0.5 1.3 0 0.2 0.1 0.6 0.2 0.8 1.2 2.6 2.4 5.2 3.6 7.8l2.7 5.4c1.8 3.6 3.6 7.3 5.5 10.9 1.3 2.5 2.7 4.9 4 7.4 1.1 2 1.9 4.1 3.1 6.1 1.3 2.1 2.9 4 4.2 6.1 2 3.1 3.8 6.3 5.6 9.5 2.2 3.8 4.2 7.7 6.3 11.6 1.6 3 3.2 6 4.6 9.1 2 4.4 3.9 8.9 5.8 13.4 1.1 2.7 2.2 5.4 3.3 8.1 0.8 2 1.5 4 2.3 6 0.1 0.3 0.2 0.7 0.4 1 0.3 0.7 0.6 1.4 1 2.1 0.3 0.5 0.6 1.2 1 1.3 1.1 0.3 1.6 0.9 2.1 1.8 0.1 0.3 0.4 0.5 0.8 1.1 0.1-0.7 0.2-1 0.2-1.4-0.2-1.9-0.2-3.8-0.6-5.6-1.3-5.6-2.8-11.2-4.3-16.8-0.8-3-1.9-6-2.8-9-0.3-0.9-0.4-2-0.5-2.9 0-0.3 0.4-0.7 0.5-1 0.3-0.7 1-1.4 0.9-2-0.3-1.2-0.8-2.4-1.5-3.5-0.8-1.3-1.7-2.5-2.5-3.8-0.2-0.3-0.2-0.9-0.1-1.3 0.4-1.8 0-3.5-0.7-5.1-0.4-0.9-0.9-1.8-1-2.7-0.3-2.3-1.8-3.9-2.9-5.8-0.5-1-1.1-1.9-1-3.2 1.2 0.3 1.5 1.2 1.6 2 0.1 1.5 1.3 2.1 2.1 3.1 0.1 0.2 0.6 0.3 0.7 0.2 0.2-0.1 0.3-0.5 0.3-0.7-0.1-0.6-0.1-1.1-0.4-1.6-1.8-3.9-3.7-7.8-5.6-11.6-0.3-0.7-0.8-1.3-1.1-2-2.2-3.9-4.2-7.8-6.5-11.6-2.2-3.5-4.6-6.9-6.9-10.3-1.8-2.7-3.7-5.5-5.5-8.3l-1.5-2.4c-0.9-1.5-1.9-3.1-2.8-4.6-0.9-1.4-1.7-3.1-2.9-4.2-1.6-1.6-2.7-3.4-3.3-5.6-0.2-0.9-0.7-1.5-1.8-1.6-0.3 1.8 0.4 3.2 1.3 4.4 1.3 1.6 2.9 3 3 5.3 0 0.3 0.3 0.6 0.5 0.9 2 3.2 3.9 6.5 5.9 9.7 1.1 1.8 2.1 3.6 3.3 5.4 2.3 3.6 4.7 7.2 7 10.7 1.2 1.8 2.4 3.6 3.5 5.4 1 1 1.7 2.4 2.5 3.9zm26.1-162c0-0.5-0.1-1.1-0.1-1.6 0.1-2.3 0.5-4.5 0.3-6.8-0.3-2.9 0.3-5.7 0.8-8.6 0.1-0.4 0.4-0.8 0.7-1 0.9-0.7 0.8-1.1 0.1-2-0.5-0.7-1-1.9-0.7-2.7 0.4-1.1 0.3-2.1 0.2-3.3-0.2-1.5-0.4-3-0.3-4.5 0.2-6.4 0.4-12.9 0.7-19.3 0-0.4 0-0.8-0.1-1.2 0-2.5-0.1-5-0.1-7.5 0-1.4 0.2-2.8 0.2-4.2 0.1-5.5 0.1-11 0.2-16.5 0.1-4 0.5-8.1 0.6-12.1 0.1-4.3 0.1-8.5 0.2-12.8 0-1.5-0.2-2-1.6-2.3-0.8-0.2-1.1-0.7-1.1-1.5 0-0.9 0.1-1.8 0-2.8-0.1-0.5-0.3-1.1-0.7-1.4-1.1-0.8-2.3-0.2-2.2 1.2 0 3 0.2 6.1 0.2 9.1 0 7.3-0.2 14.5-0.2 21.8v6.1c-0.1 5.2-0.4 10.5-0.5 15.7-0.1 6.7 0 13.3 0 20 0 0.4-0.1 0.9-0.1 1.3-0.3 5.2-0.7 10.4-1 15.5-0.3 5.5-0.6 11.1-0.9 16.6-0.2 3.8-0.6 7.6-0.9 11.5-0.4 6.3-0.9 12.7-1.1 19-0.2 4.1 0 8.1 0 12.2 0 0.7 0 1.4-0.1 2.2-0.1 2.1-0.3 4.2-0.3 6.3-0.2 7.6-0.4 15.3-0.5 22.9 0 1.7 0.3 3.5 0.2 5.2-0.1 2.7-0.5 5.5-0.7 8.2-0.1 0.7 0 1.4 0 2 0.1 3.2 0.3 6.4 0.3 9.6 0 3.8-0.3 7.5-0.5 11.3-0.1 3.6-0.2 7.2-0.2 10.8 0 1.2 0.3 2.5 0.7 3.7 0.3 0.9 1.2 1.6 2.3 1.3 1.1-0.2 1.9-0.9 2.1-2.1 0.2-0.8 0.3-1.6 0.3-2.4-0.1-3.3-0.3-6.5-0.5-9.8 0-0.4 0-0.7 0.1-1.1 0.5-2.2 0.6-4.3 0.4-6.5-0.2-2.8-0.2-5.6-0.2-8.4 0.1-5.6 0.3-11.2 0.5-16.8 0.2-5.1 0.3-10.2 0.5-15.3 0-0.4 0.2-0.8 0.4-1.5 0.4 0.5 0.6 0.9 0.9 1.1 0.3 0.3 0.7 0.5 1 0.8 0.3-0.4 0.6-0.7 0.7-1.1 0.1-0.6 0.1-1.2 0.1-1.8 0-0.5-0.2-1-0.2-1.5 0-4.2 0.1-8.3 0.2-12.5 0-1.7 0.1-3.4 0.2-5 0.2-2.5 0.6-5.1 0.7-7.6 0.3-5.4 0.5-10.8 0.8-16.3 0-0.4-0.1-0.9-0.1-1.3 0-2.7-0.1-5.3 0-8 0-1.3 0.4-2.7 0.4-4 0-0.6-0.3-1.2-0.5-1.8-0.5 0.6-1 1-1.6 1.5zm-57.3 18.4h0.4c0.6 2.2 1.2 4.3 1.6 6.5 0.4 2 0.5 4.1 0.7 6.1 0 0.2 0.1 0.5 0.2 0.7 0.4 1.6 0.8 3.2 1.1 4.9 0.6 3.9 0.8 7.9 0.8 11.9 0 3 0.1 5.9 0.3 8.8 0.1 1.3 0.4 2.5-0.5 3.7-0.2 0.2-0.1 0.6-0.2 0.9l-0.3 12.6c0 2-0.1 4.1-0.1 6.1 0.1 3.2 0.1 6.5 0.4 9.7 0.4 4.3 1.1 8.6 1.7 12.8 0.6 3.5 1.2 7.1 1.9 10.6 0.2 1.2 0.9 1.5 2 0.9 1-0.6 1.2-0.1 1.3 0.7 0.1 0.9 0.2 1.8 0.4 2.6 0.2 0.5 0.8 0.8 1.2 1.2 0.3-0.4 0.8-0.8 0.9-1.2 0.1-0.6-0.1-1.2-0.3-1.9-0.5-2.3-1-4.5-1.4-6.8l-0.6-3.6v-1.1c1.6 1.6 4.7 15.8 3.9 17.2-0.5-0.3-1-0.6-1.5-0.8-0.7-0.4-1.1-0.1-1.2 0.7-0.1 1.2 0.6 1.8 2 1.6 0.4 0 1-0.1 1.1 0.1 0.5 1 1.1 2 1.3 3.1 0.2 0.7 0.1 1.4 1 1.4 0.2 0 0.5-0.8 0.8-1.2 0.1 0.1 0.3 0.2 0.6 0.3 0.4 0.1 0.9 0.2 1.3 0.2 0.1 0 0.4-0.6 0.3-0.8-0.2-0.4-0.6-0.7-1-0.9-0.3-0.2-0.7 0-1-0.2s-0.7-0.5-0.7-0.8c-0.4-2.1-0.7-4.2-1-6.4-0.4-2.3-0.9-4.5-1.2-6.8-0.6-3.5-1-7-1.6-10.5-0.2-1.2-0.4-2.3 0.2-3.7 1.7 1.1 0.4 3.4 1.8 4.5 0.7-1.2 0.9-2.4 0.7-3.8l-0.9-8.1c-0.2-1.5-0.4-2.9-0.6-4.4 0-0.3-0.4-0.6-0.6-0.6s-0.6 0.3-0.7 0.5c-0.2 0.9-0.4 1.9-0.4 2.8 0 1.6 0.2 3.2 0.4 4.8h-0.5c-0.1-1.8-0.3-3.7-0.4-5.5-0.1-1.3 0-2.6-0.1-3.9-0.1-1.6-0.2-3.1-0.2-4.7 0-0.4 0.4-1 0.7-1 0.9 0 1.2-0.5 1.2-1.2 0-1-0.3-1.9-0.5-2.9-0.1-0.7-0.6-1.7-0.3-2.2 0.8-1.4 0.6-2.5-0.1-3.7-0.5-0.8-0.4-1.5 0.2-2.2 0.9-1.1 0.6-2.1-0.7-2.7-0.3-0.1-0.6-0.3-0.7-0.5-0.4-0.7 0.1-3.1 0.7-3.7 0.8-0.9 1.1-1.9 0.6-3-0.4-1-1.3-1-2.3-0.9-0.2 0-0.5-0.2-0.8-0.3 0.2-0.2 0.3-0.5 0.5-0.6 1.4-0.9 1.8-2 1.4-3.6-0.3-1.1-0.3-2.2-0.3-3.3-0.1-1.5 0.1-3.1 0-4.7-0.2-3.9-1.9-7.5-1.8-11.4 0-1.1-0.7-2.1-1-3.2-0.7-2.5-1.4-5.1-2.2-7.6-0.4-1.2-0.7-2.5-1.1-3.7-0.7-2.1-1.2-4.3-2.9-5.9-0.2-0.2-0.3-0.5-0.3-0.7-0.2-0.7-0.3-1.5-0.6-2.2-1.3-3.7-2.7-7.5-4.1-11.2-0.3-0.9-1.8-1.9-2-1.5-0.3 0.7-0.5 1.7-0.3 2.4 1.3 3.9 2.7 7.8 4.1 11.7 0.2 0.5 0.5 0.8 0.8 1.3 0.2 0.3 0.5 0.5 0.6 0.7 0.3 1.8 0.6 3.5 0.9 5.3 0 0.2-0.1 0.3-0.1 0.5-0.4-0.2-0.5-0.5-0.6-0.8-0.3-0.7-0.5-1.3-0.7-2-0.6-1.9-1.2-3.7-2.4-5.3-0.1-0.1 0-0.3-0.1-0.5-0.7-1.7-1.3-3.4-2.2-5-0.5-1-1.6-0.8-2.3-0.4-0.4 0.2-0.7 1.1-0.6 1.6 0.1 1.2 0.4 2.4 1.5 3.3 0.3 0.2 0.5 0.7 0.5 1-0.4 2.6 0.4 5.1 0.8 7.6 0.3 1.6 0.9 3 0.5 4.7-0.2 0.7 0.2 1.5 0.5 2.2 0.2 0.4 0.9 0.7 1.4 0.7 0.3 0 0.7-0.6 0.8-0.9 0.2-0.6 0.2-1.3 0.2-2 0-0.6-0.1-1.5-0.2-2.4zm181.1 167.7h-0.5c-0.1-0.3-0.4-0.7-0.4-1-0.3-3-0.5-6-0.7-9-0.5-6.9-1-13.8-1.4-20.7-0.4-7.3-0.9-14.5-1-21.8-0.1-9.3 0.3-18.5 0.5-27.8 0-1.8 0.1-3.6 0.2-5.4 0.1-4.8 0.1-9.6 0.3-14.4 0.2-3.9 0.6-7.9 1.1-11.8 0.3-2.9 0.7-5.8 1.2-8.7 0.1-0.7 0.1-1.4-0.7-1.6-0.5-0.1-1.2 0.2-1.5 0.6-0.4 0.7-0.6 1.5-0.9 2.3-0.2 0.6-0.1 1.3-0.4 1.8-1.3 1.9-1.8 4.1-2 6.3-0.3 4.1-0.5 8.2-0.6 12.3-0.3 8.9-0.5 17.7-0.7 26.6-0.1 4.8 0 9.7 0.1 14.5 0.1 5 0 9.9 0.4 14.9 0.4 6.2 1.1 12.4 1.8 18.6l1.2 12c0.2 1.8 0.2 3.6 0.4 5.4 0.4 2.8 1 5.6 1.4 8.3 0.5 3.2 0.8 6.5 1.3 9.7 0.1 1.1 1 2.2 1.6 2 1.1-0.5 0.6-1.5 0.4-2.3-0.5-2.7-1.1-5.4-1.6-8.1-0.1-0.7 0.1-1.6 0.2-2.4 2.2 0.8 1 3 2.3 4.3 0.2-0.9 0.4-1.4 0.4-2 0-2.7-0.2-5.4-0.2-8.1-0.1-4.5-0.1-9-0.1-13.5-0.1-3.9-0.1-7.8-0.2-11.7-0.1-4.4-0.3-8.9-0.3-13.3s0.3-8.8 0.5-13.2v-0.8c0.2-6.7 0.3-13.5 0.5-20.2 0.2-5 0.4-9.9 0.8-14.8 0.8-8.5 0.2-17.1 1.4-25.6 0.4-3 0.3-6.1 0.4-9.2 0.1-1-0.4-1.6-1.4-1.7s-1.7 0.1-1.9 1.3c-0.1 0.5-0.3 0.9-0.4 1.4-0.4 1.2-0.9 2.5-1.2 3.7-0.2 1 0 2-0.1 3-0.2 2.2-0.5 4.4-0.5 6.5 0.1 5.2-1.1 10.4-0.7 15.7 0.2 3.2-0.4 6.4-0.5 9.7-0.3 7.4-0.5 14.9-0.7 22.3-0.1 3.3-0.4 6.6-0.4 9.9 0 5.3 0.1 10.6 0.2 15.9 0 2.5 0.1 5 0.3 7.5 0.2 3.7 0.5 7.4 0.8 11.1 0.2 3 0.5 6 0.8 9.1 0.3 3.2 0.7 6.4 0.9 9.6 0.1 1.1-0.3 2-0.4 2.8zm-141.1-183.7c0.2 0.1 0.3 0.3 0.5 0.4-0.6 1.3-1.1 2.7-1.7 4-0.7 1.5-1.7 3-2.4 4.5-1.1 2.4-2.2 4.9-3.3 7.4-0.4 1-0.8 2.1-0.8 3.2-0.1 2.4-0.1 4.7-1.2 6.9-0.3 0.6-0.4 1.3-0.5 2-0.5 3.8-0.9 7.6-0.6 11.4 0.3 4.1 0.6 8.1 0.9 12.2 0 0.5 0.1 1 0 1.4-0.2 1.1 0.2 2.1 0.6 3.1 0.3 0.7 0.1 1.5 0.1 2.3 0 0.4-0.3 0.8-0.3 1.3 0 0.4 0.1 1.3 0.2 1.3 0.7 0 1.5 0 2.2-0.2 0.2-0.1 0.5-0.6 0.4-0.9-0.9-2.6-0.4-5.6-1.8-8.1-0.1-0.2 0-0.6 0-0.9 0.1-0.7 0.3-1.4 0.2-2.1-0.1-3.3-0.4-6.6-0.5-9.9-0.1-1.5-0.3-3.1 0-4.5 0.9-4.8 2-9.5 3-14.3 0.1-0.6 0.5-1.2 0.6-1.8 0.4-1.4 0.8-2.8 1.3-4.2 0.1-0.3 0.1-0.8 0.4-1 1.6-1.4 2.1-3.5 2.9-5.3 0.5-1.1 0.8-2.1 1.9-2.8 0.5-0.3 0.8-1.1 1.1-1.6 0.6-1 1.1-2 1.6-2.9 0.2 0.1 0.4 0.2 0.5 0.3-0.4 0.9-0.9 1.8-1.3 2.7-0.3 0.6-0.7 1.1-1 1.6-0.8 2-1.5 4-2.2 6-0.1 0.2-0.2 0.3-0.3 0.5-0.5 1.2-1.1 2.3-1.5 3.5-0.1 0.3 0.3 1.2 0.5 1.2 0.5 0 1.2-0.2 1.5-0.6 0.5-0.8 0.7-1.8 1.1-2.6 0.8-1.8 1.7-3.6 2.6-5.4 0.4-0.8 1.1-1.4 1.6-2.2l3-5.1c0.5-0.8 0.9-1.7 0.3-2.6-0.6-1-1.5-0.5-2.3-0.3 0 0-0.1 0-0.2-0.1 0.2-0.3 0.4-0.6 0.6-1 0.8-1.4 1.6-2.7 2.5-4.1 0.8-1.2 0.7-2.3-0.2-3.3-1-1.1-0.7-2.1-0.1-3.2 1.3-2.1 1-3-0.9-4 0.5-1.2 1-2.3 1.3-3.5 0.1-0.4-0.1-1.2-0.5-1.4s-1.2-0.1-1.7 0c-0.4 0.1-0.7 0.6-1 1-1 1-2.1 2-3 3-1.4 1.5-2.7 3.1-3.9 4.8-1.3 1.8-2.4 3.6-4.3 4.9-1.3 1-2.5 2.2-3.5 3.6s-1.4 3.1-2.3 4.6c-1.2 1.9-1.7 4.2-3.5 5.7-0.3 0.2-0.5 0.8-0.5 1.2 0.1 2.3-1.1 4.1-1.7 6.2-0.7 2.4-1.7 4.8-2.1 7.2-0.5 2.6-0.6 5.2-0.7 7.9-0.2 3.6-0.3 7.1-0.3 10.7 0 1.3 0.1 2.6 0.3 3.8 0.6 3.3 1.3 6.6 2 9.8 0.8 3.6 1.7 7.2 3.8 10.3 0.7 1 1.4 1.9 2 2.9 0.5 0.9 0.8 2 1.4 2.9 0.2 0.3 0.7 0.4 1 0.6 0-0.4 0.2-0.8 0-1.1-0.5-1-0.6-1.9 0-2.8 0.3-0.5 0.1-0.9-0.5-0.9-1.3 0-1.6-1.1-2-1.9-0.7-1.5-1.2-3-1.8-4.5-1.3-3.4-2.4-6.8-2.7-10.5-0.1-1.2-0.2-2.4-0.4-3.6-0.6-3.9-0.6-7.7 0.1-11.6 0.1-0.5 0.4-0.9 0.6-1.4 0.1 0 0.2 0 0.4 0.1 0 1.1 0.1 2.3 0 3.4-0.6 5.7 0.2 11.2 1.6 16.7 0.2 0.7 0.9 1.2 1.4 1.8 0.2-0.8 0.7-1.6 0.6-2.2-0.7-4.3-1.2-8.7-1.1-13.1 0.2-6.3 1.4-12.3 3.5-18.1 0.2-0.6 0.3-1.1 0.5-1.7 0.7-2.3 1.1-4.8 2.2-7 1.4-3 3.4-5.7 5.1-8.5 0.4-0.8 0.5-1.2 0.7-1.5zm25.6-144.7h0.4c0 0.5 0 1.1-0.2 1.6-0.4 1.3-1 2.6-1.4 3.9-0.2 0.6-0.1 1.3 0.1 1.9 0.2 0.9 0.8 1 1.5 0.4 0.3-0.3 0.7-0.7 0.9-1.1 1-2.2 2-4.3 3-6.5l0.6-1.2c0.2 0 0.3 0.1 0.5 0.1 0 0.5 0.2 1.1 0.1 1.5-0.4 1-0.9 1.8-1.4 2.8-0.6 1.1-1.2 2.2-1.6 3.4-0.1 0.3 0.1 0.9 0.4 1.1 0.2 0.2 0.8 0.1 1.1-0.1 2-1.4 3.6-3.2 4.9-5.2 0.3-0.5 0.7-0.8 1.4-0.6 1.6 0.5 2.6 0.2 3.5-1.3 0.7-1.1 1.4-2.1 2-3.2 0.7-1.2 0.5-1.5-0.8-1.7-0.2 0-0.4-0.1-0.6-0.2 0.2-2.2 2.8-2.2 3.3-3.8 0.5 0.5 0.8 1 1.2 1.3 0.1 0.1 0.4-0.2 0.7-0.4-0.3-0.4-0.5-0.8-0.8-1.2-1-0.9-0.8-2 0.4-2.5 0.3-0.1 0.6-0.4 0.9-0.6 1.7-1.8 3.5-3.6 5.1-5.5 0.6-0.7 0.9-1.6 1.3-2.4-0.5-0.1-0.7-0.1-1 0-1.8 0.7-3.5 1.4-4.5 3.3s-3.6 2.6-4.1 5c0 0.1-0.2 0.1-0.3 0.2-1 0.8-2 1.5-2.9 2.3-0.7 0.7-1.1 1.5-1.6 2.3-0.4 0.6-0.7 1.1-1.1 1.7-0.4 0.7-0.9 1.3-1.2 2-0.3 0.8-0.8 1.1-1.3 0.5-0.5-0.7-0.8-1.6-1.1-2.4-0.1-0.4 0.1-0.9 0.2-1.3 0.4 0.1 0.7 0.3 1.1 0.4 0.5 0.1 1.2 0.4 1.5 0.2 0.5-0.3 0.7-1 1-1.5-0.4-0.2-0.8-0.5-1.2-0.5-0.2 0-0.5 0.3-1.1 0.5 0.4-1.2 0.7-2.1 1.1-2.9 0.8-1.6 1-1.7 2.7-1.3 0.3 0.1 0.7-0.4 1.1-0.6-0.3-0.2-0.5-0.5-0.8-0.6s-0.7 0-1.2 0c0.3-0.4 0.4-0.7 0.6-1 1.3-1.6 2.5-3.3 3.8-4.9 0.3-0.3 0.6-0.6 1-0.9 0.8-0.6 1.6-1.2 2.3-1.9 2.9-2.3 5.8-4.7 8.6-7 0.8-0.7 1.5-1.4 2.2-2.1 0.2-0.2 0.2-0.6 0.2-0.9-0.3 0-0.7-0.1-1 0.1-1.2 0.7-2.5 1.5-3.7 2.2-2.1 1.3-4.1 2.7-6.2 4-0.8 0.5-1.5 1-1.8 2-0.1 0.4-0.5 0.7-0.8 0.9-1.5 1-3.1 1.9-3.9 3.6-0.1 0.3-0.4 0.6-0.6 0.7-2.2 1.1-3.5 2.9-4.8 4.9-1 1.6-2.1 3.1-2.9 4.8-0.5 1.1-1.1 1.5-2.5 1.7l2.8-5.6c0.4-0.7 0.7-1.4 1-2.2 0.4-1.6 1.4-2.7 2.5-3.8 1.1-1 1.9-2.2 2.8-3.4 0.5-0.6 0.9-1.4 1.5-2 1.7-1.7 3.4-3.3 5.1-4.9 0.5-0.5 1-1.2 1.7-1.5 1.4-0.6 1.9-1.9 2.6-3.1 0.4-0.7 1.2-1.2 1.8-1.8 0.6-0.5 1.5-0.8 1.7-1.4 0.4-1.4 1-2.3 2.5-2.4 0.2 0 0.4-0.7 0.5-1-0.4-0.1-0.7-0.3-1.1-0.3-0.3 0-0.6 0.1-0.8 0.3-0.8 0.9-1.8 0.8-2.9 0.7h-1.7c-2.6 0.3-4.9 1.4-7 2.8-2.7 1.8-5.3 3.8-7.4 6.3-0.6 0.7-1 1.6-2.2 0.7-0.2-0.1-0.8 0.2-1.1 0.4-0.2 0.1-0.1 0.5-0.2 0.7 0.3 0.1 0.6 0.1 1 0.1 0.8 0 1 0.4 0.6 1.2-0.3 0.5-0.7 1-1 1.5-0.7 1.4-1 1.5-2.2 0.5-0.1-0.1-0.3-0.1-0.4-0.2-0.1 0-0.2 0.1-0.4 0.1 0.1 0.4 0.2 1.1 0.4 1.2 0.9 0.6 0.9 1.3 0.4 2.1-0.6 1-1.5 1.9-2 2.9-0.8 1.7-1.9 3.3-1.8 5.3 0 0.4-0.1 0.9-0.3 1.3-1.6 2.4-2 5.2-2.6 8-0.7 3.3-1.4 6.7-2.1 10-0.1 0.3 0 0.7 0 1.1s-0.1 0.8-0.1 1.2c-0.1 0.7-0.1 1.4-0.2 2.1 0.1 0 0.3 0.1 0.4 0.1-0.2 0.2-0.5 0.5-0.7 0.5-1.5-0.2-3.1-0.1-4.5-0.7-1.3-0.5-2.3-1.7-3.5-2.3-0.5-0.3-1.3-0.1-1.9-0.1 0 0.5-0.1 1.2 0.1 1.6 0.5 0.9 0 1.4-0.8 1.4-2.1 0.2-4.2 0.4-6.3 0.2-2.5-0.2-5-0.8-7.6-1.2-0.2 0-0.3-0.1-0.5 0-0.3 0.1-0.7 0.3-0.8 0.5s0.1 0.8 0.3 0.9c1.1 0.6 2.1 1.4 3.3 1.6 2.8 0.4 5.5 0.5 8.3 0.8 0.3 0 0.6 0 0.8-0.1 4-1 8.1-0.7 12.2-0.6 3.6 0.1 7.2 0.9 10.8 1.3 1.9 0.2 3.8 0.2 5.5-1 0.2-0.2 0.6-0.2 0.9-0.2 0.7 0 1.6 0.1 1.5-1 0-1.1-0.9-1-1.7-1-0.4 0-0.9 0.1-1.3 0.1-2.1 0-4.1 0-6.2-0.2-1.9-0.2-3.7-0.6-5.6-0.9-0.6-0.1-1.2 0-1.9 0 0.8-2.1 1.4-3.9 2.3-5.7 0.8-1.6 2.3-2.9 2.5-4.9 0.4 0.3 0.6 0.2 0.7 0zm-74.4 269.4c-0.1-0.7-0.1-1.3-0.1-1.8-0.2-4.2-0.4-8.4-0.5-12.6 0-3.2 0.2-6.4 0.2-9.6 0.1-3-1-5.6-2.2-8.3-0.2-0.4-0.3-0.9-0.2-1.4 0.1-1.5 0.5-3.1 0.2-4.6-1-6.7-1.4-13.4-3.4-19.9-1.3-4.2-2.2-8.5-3.6-12.7-2-6-4.4-11.8-6.6-17.7-0.2-0.6-0.6-1-0.9-1.6-1.5-2.6-2.9-5.1-4.4-7.7-1.1-1.9-2.4-3.7-3.6-5.5-0.8-1.1-1.7-2.2-2.7-3.2-0.6-0.6-1.3-1.2-2-1.7-0.2 0.1-0.3 0.2-0.5 0.3 0.3 1 0.5 2 0.9 3 1.6 3.3 3.4 6.5 4.8 9.8 2 4.5 3.9 9.1 5.7 13.7 0.9 2.1 1.6 4.3 2.2 6.4 0.9 3.1 1.4 6.4 2.6 9.3 2.1 4.9 2.8 10.2 4.3 15.3 0.8 2.8 0.9 5.8 1.4 8.7 0.5 3.1 0.8 6.2 1.8 9.3 0.7 2.2 0.6 4.6 0.8 7 0.2 3.2 0.4 6.4 0.6 9.5 0 0.3 0 0.6-0.1 1.1-0.8-1.4-1.5-2.5-2.1-3.6-0.2 0-0.3 0.1-0.5 0.1-0.1 0.5-0.2 1.1-0.2 1.6 0.2 1.3 0.5 2.6 0.7 3.9 0.3 2.2 0.5 4.4 0.7 6.6 0 0.3-0.2 0.7-0.3 1h-0.4c-0.4-2.8 0.4-6.1-3-7.9-0.1 3 0.3 5.8 1.8 8.3 0.2 0.3 0.6 0.6 1 0.7 1.6 0.4 2.3 1.2 2.4 2.9 0.2 2 0.4 4 0.7 6 0.1 0.3 0.6 0.6 0.9 0.9 0.3-0.3 0.7-0.6 0.8-0.9 0.1-0.4 0-0.9 0-1.3-0.1-1.1-0.2-2.1-0.4-3.2-0.1-0.6-0.3-1.3-0.6-1.9-0.8-1.6-0.7-3.2-0.2-5.1 0.3 0.5 0.6 0.7 0.7 1 0.3 1.5 0.6 2.9 0.9 4.4 0.2 0.9 0.5 1.6 1.4 1.7 0.8 0.1 1.7 0.2 2.5 0.3 0.4 0 0.9-0.1 1-0.4 0.1-0.2 0-0.8-0.3-1-0.4-0.5-1.2 0.1-2.2 0.8zm88.4-343.6c1.1-1.8 2-3.7 3.2-5.4s2.7-3.1 4-4.8c0.3-0.4 0.2-1.1 0.3-1.7-0.7 0.1-1.4 0.1-2.1 0.2-0.2 0-0.3 0.4-0.5 0.5-0.9 0.8-1.8 1.6-2.8 2.2-1.5 1.1-3.4 1.1-5.2 1.2-0.9 0-1.5 0.3-2.1 1.1-1.5 2-3.2 3.9-4.7 5.8-0.4 0.5-0.7 1.1-0.8 1.7-0.3 1.1-0.6 2.1-1.9 2.5-0.3 0.1-0.7 0.5-0.8 0.9-0.5 1-0.7 2.2-1.3 3.1-0.7 1.1-1.2 2.1-1.1 3.4 0.1 0.7-0.1 1.1-0.9 1.3-0.3 0.1-0.8 0.4-0.8 0.7 0 0.2 0.3 0.6 0.6 0.8 0.7 0.6 0.8 1.2 0.2 2-0.6-0.8-1-1.7-1.7-2.3-0.7-0.7-0.7-1 0.1-1.5 0.6-0.3 1.3-1 1.3-1.5 0.1-1.4 0.3-2.6 1.2-3.6 0.4-0.5 0.2-1-0.6-1.1-0.9-0.1-1.7-0.3-2.6-0.4-0.7-0.1-1.4 0-1.6 0.9-0.3 1.6-0.5 3.1-0.7 4.7-0.2 2.5-0.4 5.1-0.6 7.6-0.3 3.4-0.7 6.7-0.8 10.1-0.2 2.7 0 5.5-0.1 8.2l-0.6 12.9c-0.1 1.9-0.3 3.8-0.3 5.7 0 2.1 0.1 4.2 0.1 6.3 0.1 1.6 0.3 3.1 0.2 4.7-0.1 4.7-0.4 9.5-0.5 14.2 0 0.3 0.2 0.7 0.5 0.8s0.8 0 0.9-0.2c0.3-0.4 0.6-0.9 0.7-1.4 0.5-2.6 0.9-5.2 1.2-7.8 0.1-0.4-0.1-0.9-0.1-1.3 0.2-2.5 0.2-5 0.6-7.4 0.3-1.9 0.3-3.8 0-5.7-0.2-1.4-0.6-3 0-4.2 0.8-1.7 0.8-3 0-4.6-0.3-0.5-0.4-1.5-0.1-2 1.1-2.2 1.4-4.4 0.9-6.9-0.2-0.8-0.2-1.7 0-2.5 0.7-3.3 2.5-6.3 1.6-9.9-0.1-0.2 0.1-0.5 0.1-0.7 0.2-1.5 0.5-3-0.4-4.4-0.2-0.2 0-1 0.2-1.1 1.4-0.4 2.9-0.7 4.3-1.1 0.7-0.2 1.9-0.6 2-1.1 0.6-2.2 2-3.9 3-5.8 1.3-2.3 2.8-4.4 4.7-6.3 1.6-1.6 3.2-3.2 4.6-5 1.3-1.3 1.1-1.4-0.8-1.8zm18.1-19c0.4-0.5 0.8-1 1.3-1.3 0.4-0.3 1.1-0.5 1.1 0.4-0.1 1.3-0.3 2.5-0.4 3.8 0 0.3 0.1 0.8 0.3 0.9s0.7 0 0.9-0.2c0.3-0.3 0.6-0.8 0.8-1.2 0.9-1.2 1.9-1.1 2.6 0.3 0.6 1.2 0.2 2.4-0.4 3.4-0.4 0.7-0.6 1.4-0.1 2.1 0.7 1 0.7 2 0.3 3.1-0.4 1 0.1 1.5 1.1 1.7 0.4 0.1 0.7 0.1 1.1 0.1 0.8 0 1.1 0.4 1.1 1.3 0 0.8 0.3 1.7 0.5 2.5s0.5 1.7 0.6 2.5c0.2 1.8 0.4 3.6 0.6 5.3 0.1 1.5 0.4 3.1-0.5 4.5-0.2 0.4 0 1.3 0.3 1.8 0.9 1.4 0.9 1.9-0.3 3-0.9 0.8-1.4 1.8-1.2 3.1 0.1 0.5 0.1 1-0.2 1.4-1 1.5-2.1 2.9-3.1 4.4-0.2 0.3-0.1 0.8-0.2 1.3 0.4 0 1 0.1 1.3-0.1 0.7-0.4 1.3-1 2-1.5 0.4-0.3 0.9-0.3 1.4-0.5-0.1 0.5-0.1 1.1-0.2 1.6 0 0.2-0.3 0.3-0.4 0.6-0.6 1.2-1.3 2.5-1.7 3.8-0.2 0.5 0.3 1.1 0.5 1.7 0.2 0.7 0.7 1.4 0.6 2-0.1 0.7-0.6 1.4-1 2.1-0.6 1-1.9 1.7-1.6 3.2 0.2 0.7 0 1.2-0.4 1.7-0.8 1.1-1.9 2.2-0.7 3.7 0.1 0.1 0.1 0.2 0 0.3-0.8 2.1-1.5 4.1-1.3 6.4-1.6 1.1-1.8 2.8-2 4.6 0 0 0 0.1-0.1 0.1-0.6 1.1-0.7 2.3-0.3 3.5 0.3 0.7 0 1.1-0.5 1.5-0.3 0.2-0.7 0.3-0.9 0.6s-0.5 0.7-0.4 1 0.5 0.6 0.8 0.7c1.4 0.4 2.7-0.3 3.1-1.7 0.2-0.8 0.4-1.6 0.7-2.4 1-2.6 2.1-5.2 3-7.8 1-3 1.9-6 2.8-9 0.7-2.3 1.4-4.7 1.7-7.1 0.8-4.6 1.3-9.2 1.9-13.9 0.2-2 0.3-4 0.5-6 0.1-1.4 0.1-2.9 0.1-4.3 0-1.1 0.1-2.2 0-3.3-0.6-4.8-1.3-9.6-2-14.4-0.4-2.6-1-5.1-2.3-7.4-1-1.7-2.1-3.4-2.9-5.2s-2-3-3.6-4c-0.2-0.1-0.4-0.3-0.6-0.4-1.1-1-2.1-2.2-3.3-3.1-1.8-1.4-3.6-2.8-5.8-3.5-3-0.9-6-2.2-9-3.2-1.5-0.5-3.2-0.5-4.8-0.7-2.3-0.3-4.5-0.5-6.8-0.7-0.9-0.1-1.9 0-2.4 1-0.5 1.1-1.2 2.3-1.7 3.4-0.2 0.4-0.3 1.2-0.1 1.4 0.3 0.3 1 0.5 1.5 0.4 0.4-0.1 0.9-0.6 1-1.1 0.9-2 1.7-2.7 3.6-2.5 1.7 0.3 3.4 0.4 5.1 0.2 1.6-0.2 2.1 0.6 1.7 2.3-0.4 1.6 0.1 2 1.7 1.7 0.5-0.1 1.1-0.1 1.5 0.1 1 0.6 1.8 0.4 2.5-0.5 0.3-0.3 0.7-0.7 1-0.7 1.1 0.1 2.2 0.3 3.2 0.7 1.1 0.4 2 1.3 3 1.6 1.8 0.5 2.1 1.1 1.3 2.8-0.5 1-0.7 2.2-1 3.3-0.1 0.2 0.1 0.6 0.2 0.7 0.2 0.1 0.6 0 0.7-0.1 0.6-0.6 1.1-1.3 1.6-2 0.3-0.3 0.7-0.5 1-0.8 0.1 0.4 0.3 0.8 0.3 1.1s-0.3 0.7-0.4 1c0.4 1.2-0.1 2.1 0.7 2.9zm-43 367.4c0-0.1 0-0.2 0.1-0.3 2.2 0.1 4.3-0.1 6.1-1.3 0.7-0.5 1.4-1.1 2.1-1.5 1.9-1 3.9-1.7 5.8-2.8 2.4-1.3 4.9-2.6 6.8-4.8 1.1-1.4 2.5-2.6 3.8-3.7 1.8-1.5 3.3-3.3 4.1-5.6 0.1-0.4 0.6-0.6 0.9-0.9 1.8-1.5 3.3-3.1 3.7-5.5 0.1-0.4 0.4-0.9 0.8-1.2 1.2-1.1 2-2.3 2.2-3.9 0.1-1.1 0.6-2.3 1.2-3.2 0.6-0.8 0.6-1.2 0-1.8-0.8-0.9-0.7-1.7-0.2-2.7 0.8-1.4 2-2.7 2.2-4.4 0-0.3 0.4-0.6 0.6-0.9 0.9-1.5 2-2.9 2.5-4.5 0.5-1.5 1.1-2.8 1.9-4.1 1.7-2.8 2.1-6 3.1-9 0.3-1 0.7-1.6 1.8-2 1.1-0.3 1.1-0.9 0.5-1.8-0.2-0.2-0.3-0.7-0.2-0.9s0.5-0.4 0.9-0.5c0.2-0.1 0.5 0.1 0.7 0 0.5-0.3 1.2-0.5 1.4-1 0.1-0.3-0.5-0.9-0.8-1.4-0.1-0.1-0.3-0.1-0.4-0.2-0.9-0.6-0.4-1.5-0.2-2.2 0.1-0.4 0.7-0.6 1.1-0.9 0.3-0.2 0.6-0.2 0.9-0.3-0.1-0.3-0.2-0.7-0.4-0.9-0.8-0.8-0.5-1.3 0.3-1.8 1.2-0.7 1.7-1.9 1.5-3.3-0.1-0.3-0.1-0.5-0.2-0.8-0.2-0.8-0.2-1.4 0.8-1.6 0.8-0.2 1-0.9 0.7-1.5-0.4-0.7-0.9-1.4-1.5-2-0.1-0.1-0.9 0-1 0.2-0.5 1-0.8 2-1.2 3-1 2.6-2 5.2-2.9 7.8-0.4 1.3-0.8 2.6-1.1 3.8-0.3 0.9-0.5 1.8-0.8 2.6-0.4 1.2-0.8 2.4-1.3 3.6-0.2 0.7-0.4 1.3-0.7 2-1.2 2.7-2.9 5.1-3 8.2 0 0.9-0.5 1.5-1.3 2-0.7 0.5-1.3 1.2-1.5 2-0.5 1.5-0.6 3.1-0.9 4.6-0.1 0.4-0.5 0.7-0.7 1-0.5 0.5-1 0.9-1.4 1.4-0.4 0.6-0.6 1.4-1.1 2-0.6 0.9-1.5 1.6-2 2.5-1.1 1.8-2.1 3.6-3.2 5.4-0.6 1-1.1 1.9-1.8 2.8-0.8 1.1-1.6 2.1-2.6 3.1-1.3 1.3-3 2.4-4 3.9-0.9 1.5-2.3 2.4-3.5 3.6-1 1.1-2.2 2.1-3.3 3-1.2 1-2.5 1.8-3.8 2.7-0.8 0.6-1.6 1.2-2.4 1.7-2 1.3-4.2 2.2-5.9 3.8-1.8 1.7-3.7 1.8-5.8 1.7h-1.1c-1.5 0.2-2.6-0.4-3-1.8-0.1-0.3-0.1-0.7-0.3-0.9-0.5-0.3-1.2-0.6-1.8-0.7-0.2 0-0.6 0.4-0.6 0.7-0.6 3.6 1.3 7.3 4.8 8.4 1.4 0.6 3 0.8 4.6 1.1zm-13.3-287.8c0.1 0 0.2 0 0.3-0.1 0.5 1.4 1.1 2.7 1.6 4.1 0.1 0.2-0.2 0.6-0.2 0.9 0 0.5-0.1 1 0 1.4 0.1 0.5 0.4 1 0.6 1.4 0.2 0.6 0.3 1.4 1.2 1.2s1.1-0.8 1-1.7c-0.2-1.9-0.3-3.9-0.5-5.8-0.1-1-0.3-2-0.5-2.9-0.6-2.8-1.2-5.7-1.8-8.5-0.4-2.1-0.7-4.2-1.3-6.2-0.4-1.4-1.2-2.7-1.7-4.1-1.6-5.2-4-10-6.6-14.8-0.5-0.8-0.7-1.9-1.4-2.5-1.3-1-2.7-1.8-4.2-2.7-1.2-0.7-2.3-1.4-2.7-2.9-0.1-0.5-0.4-1-0.8-1.3-0.6-0.5-1.6-1.1-2.1-0.9-0.9 0.3-0.5 1.4-0.2 2.1 0.7 2.1 1.3 4.3 2.2 6.3 0.7 1.6 1.6 3.2 2.4 4.8 0.5 1 1.3 1.9 1.5 2.9 0.3 1.6 0.8 3.1 1.8 4.4 0.4 0.6 0.7 1.2 0.1 2.1-0.4-0.5-0.7-0.9-0.9-1.3-0.8-1-1.4-2.2-2.3-3-0.9-0.9-1.9-1.6-2.1-3-0.1-0.6-0.3-1.3-0.7-1.7s-1.2-0.6-1.8-0.9c0 0.6-0.1 1.2 0 1.7 0.2 0.8 0.6 1.5 0.8 2.3 0.7 1.9 1.2 3.9 2.1 5.7 1.1 2.2 2.5 4.3 3.8 6.5 1.2 2.1 2.1 4.3 3 6.5 1.6 3.9 3.6 7.7 5.4 11.6 0.8 1.6 1.8 3 3.5 3.7 0.9 0.4 1.3 0.1 1.3-0.8-0.1-1.2-0.4-2.3-0.5-3.5-0.2-0.2-0.2-0.6-0.3-1zm68.1-5.6c0.4-0.2 0.6-0.4 0.8-0.4 0.6-0.2 1.2-0.3 1.7-0.4-0.1 0.6 0 1.2-0.3 1.7-1.5 2.9-3.1 5.8-4.5 8.8-0.7 1.3-1.3 2.7-2.6 3.5-0.2 0.1-0.4 0.4-0.5 0.6-1.3 2.1-2.7 4.1-4 6.2-0.2 0.3-0.3 0.7-0.4 1.1 0.4 0.1 0.9 0.4 1.2 0.3 1.1-0.5 2.5-1 3.3-1.8 2.5-2.8 4.7-5.7 7.1-8.5 0.9-1.1 1.7-2.5 3.4-2.8 0-0.3-0.1-0.5-0.1-0.8s-0.1-0.6-0.1-0.9c0.1-1.2 0.6-1.7 1.8-1.4 1.1 0.2 1.6-0.3 2-1.2 0.6-1.5 1.3-3 2.1-4.4 0.9-1.7 0.7-2.3-1.2-2.5-0.6-3 1.2-5.2 2.6-7.5 0 0.5-0.1 1-0.2 1.5-0.1 0.7-0.4 1.4-0.3 2.1s0.7 1.2 1.4 0.7c0.4-0.3 0.8-1.1 0.7-1.6-0.2-1.1 0.6-2.4-0.6-3.4-0.1 0-0.1-0.1-0.2-0.1-0.8-0.2-0.8-0.8-0.7-1.5 0.5-2.9 0.9-5.7 1.4-8.6 0.1-0.5 0.3-0.9 0.4-1.1 0.8 0.2 1.3 0.3 1.8 0.4 0-0.7 0.1-1.4 0-2.1 0-0.2-0.4-0.3-0.6-0.6-0.3-0.4-0.8-0.8-0.7-1.2 0.1-0.9 0.4-1.7 0.6-2.6 0-0.6-0.3-1.2-0.4-1.9-0.1-0.9-0.1-1.9-0.1-2.9-0.4-4 0.9-8.2-0.9-12.1-0.1-0.2 0-0.5-0.1-0.7-0.5-2.4-0.8-4.7-0.1-7.1 0.1-0.2-0.2-0.5-0.2-0.7-0.2 0.1-0.4 0.1-0.5 0.2-0.4 1.1-0.9 2.2-1 3.4-0.3 3.7-0.4 7.3-0.7 11-0.3 3.5-0.7 6.9-1 10.4-0.1 1.2-0.6 1.5-1.7 1.3-1.2-0.2-1.9 0.2-2.1 1.5-0.1 0.6-0.1 1.3-0.1 1.9 0.1 1.4 0.4 1.7 1.8 1.4 0.3 0 0.7 0 0.8 0.2s0.1 0.7-0.1 0.9c-0.1 0.2-0.6 0.2-0.8 0.1-1.2-0.9-1.6-0.2-2 0.8-0.2 0.7-0.5 1.3-0.7 2-0.4 1.6-0.7 3.2-1.1 4.8-0.3 1.2-0.6 2.3-0.9 3.5-0.5 1.7-1 3.4-1.6 5-1.3 1.5-1.6 3.4-1.8 5.5zm-38.7-37.2c-0.7 0.6-1.1 1.1-1.7 1.5-0.7 0.4-0.7 0.8-0.4 1.5 0.1 0.3 0.1 0.8 0 1.1-0.8 1.2-1.9 2.2-2.5 3.4-0.6 1-1.1 2.4-0.9 3.5 0.4 1.9 0.2 3.6-0.4 5.4s-1.1 3.5-1.6 5.3c-0.2 0.6-0.4 1.3-0.4 2 0 0.4 0.5 0.8 0.8 1.1 0.4 0.4 0.8 0.8 1.2 1.1 0.3 0.2 0.8 0.5 1.1 0.4 1.1-0.3 1.9-0.9 2.6-1.9 1.5-2.2 2.9-4.4 5.4-5.6 0.7-0.3 1.2-1 1.8-1.5 1.9-1.9 3.8-3.7 5.7-5.6 0.5-0.5 0.9-1 1.2-1.6 0.7-1.5 1.2-3 3.1-3.4 0.1 0 0.3-0.2 0.4-0.3 0.6-1.1 1.2-2.3 1.6-3.4 0.3-0.8-0.4-1.6-1.1-1.2-1.7 0.9-3.4 2-5.1 3.1-0.2 0.1-0.2 0.3-0.4 0.5-0.9 0.8-1.8 1.7-2.8 2.4-1.9 1.4-4 2.4-5.3 4.5-0.3 0.5-0.9 1-1.3 1.4l-0.3-0.3c0.2-0.4 0.2-0.9 0.5-1.2 1.3-1.7 2.5-3.4 3.8-5.1 2.1-2.8 4.7-5.2 6.2-8.5 0.7-1.7 1.1-1.7 2.7-1h0.8c-0.5-0.7-0.9-1.3-1.4-2 0.6-0.6 1.2-1.3 1.9-1.9 1.4-1.2 2.7-2.6 3.9-4 1.5-1.7 2.3-3.4 2.1-5.6-0.1-0.6-0.1-1.2-0.1-1.8-0.7 0.1-1.4 0.2-2.1 0.4-0.3 0.1-0.5 0.4-0.7 0.6-0.9 0.6-1.7 1.4-2.6 1.8-1.8 0.8-3.3 1.8-4.6 3.4-0.9 1.1-2.1 2.1-3.1 3.2-0.6 0.6-1.3 1.2-1.8 1.9-1 1.6-1.9 3.2-2.8 4.9-0.7 1.5-1.6 3-3.4 1.5zm-99 259.9c-0.2-0.5-0.4-1-0.5-1.5-0.1-0.7-0.1-1.5-0.3-2.2-0.6-1.8-1.3-3.7-2-5.5-0.3-0.8-0.8-1.2-1.6-1-0.7 0.2-1 1.3-0.7 2 1.2 2.7 2.3 5.5 3.5 8.2 0.3 0.7 0.8 1.4 1.7 1 1-0.5 1.3 0 1.6 0.8 0.4 1.4 0.8 2.8 1.2 4.1 1 3.4 2 6.7 3 10.1 0.5 1.7 0.9 3.4 1.5 5 0.1 0.4 0.8 0.7 1.2 1 0.3-0.4 0.8-0.8 0.8-1.1 0-1.1-0.1-2.2-0.3-3.2-0.9-4-1.9-8.1-2.9-12.1-0.5-2-0.8-4.1-1.4-6.1-1-3.3-2.3-6.4-3.4-9.7-0.6-1.6-0.9-3.4-1.6-5-1.1-2.6-2.4-5.2-3.6-7.8s-2.4-5.2-3.6-7.8c-0.8-1.7-1.8-3.3-2.6-4.9-1-2-1.8-4.1-2.9-6-2.5-4.1-5.1-8-7.7-12-0.7-1.2-1.3-2.3-1.4-3.8 0-0.7-0.4-1.7-0.9-2-1.5-0.8-2.5-2-3.2-3.6-0.1-0.3-0.4-0.6-0.6-0.9-1.3-1.6-2.5-3.2-3.8-4.7-0.8-0.9-1.6-1.8-2.9-2-0.6-0.1-1.4-0.6-1.6-1.1-0.5-1.8-2.2-2.5-3.4-3.7-0.3-0.3-1.1-0.3-1.6-0.4 0 0.5-0.1 1.1 0.1 1.5 0.6 1 1.3 1.9 2 2.8 0.9 1.3 1.9 2.7 2.8 4 0.6 0.8 1 1.7 1.6 2.5 1 1.3 2 2.7 3.1 3.9 0.9 0.9 2.1 1.6 3 2.5 0.8 0.8 1.3 1.8 2.5 2.1 0.2 0.1 0.3 0.4 0.5 0.6 0.7 1.2 1.3 2.5 2.1 3.7 1.2 1.9 2.6 3.7 3.6 5.7 1.4 2.7 2.5 5.6 3.8 8.4 0.4 0.9 1 1.6 1.4 2.5 1 2.2 1.4 4.8 3.1 6.7 0.2 0.2 0.3 0.6 0.4 0.9 1.5 3.5 2.8 7.1 4.7 10.4 0.1 0.2 0.1 0.4 0.2 0.6 0.6 1.8 1.3 3.6 1.9 5.4 1.2 3.3 2.4 6.5 3.6 9.8 0.4 0.5 0.5 1.2-0.4 1.9zm71-311.6c0.6 0.9 1 1.5 1.5 2.1 0.3 0.3 0.7 0.6 1 0.6s0.7-0.5 0.9-0.8 0.2-0.8 0.2-1.2c0.2-1.2 0.6-1.4 1.4-0.7 1.5 1.4 3.3 0.9 5 1.2 0.3 0 0.6-0.5 0.9-0.8-0.2-0.2-0.5-0.4-0.7-0.6-0.3-0.2-0.6-0.5-0.9-0.7 0.4-0.1 0.7-0.4 1.1-0.4 2.2-0.2 4.1 0.7 5.9 1.7 0.4 0.2 0.9 0.8 0.9 1.3 0.1 1 0.7 1.1 1.4 0.9 0.8-0.2 1.5-0.6 1.6-1.6 0.1-0.4 0.1-0.9 0.3-1.3 0.1-0.2 0.4-0.4 0.7-0.6 0.1 0.3 0.3 0.5 0.3 0.8 0 0.4-0.2 0.9-0.1 1.3 0.1 0.5 0.3 1.1 0.4 1.6 0.6-0.3 1.4-0.3 1.7-0.8 0.7-1 1.2-2.2 1.6-3.4 0.1-0.3-0.4-1.2-0.8-1.3-3.4-1.1-6.6-3-10.3-2.9-0.7 0-1.4-0.1-2.1-0.2-4.9-0.8-9.4 0.9-13.8 2.6-3.8 1.5-7.4 3.6-11 5.6-2.1 1.2-4.1 2.6-6.1 4l-0.3 0.3c-1.2 1.4-2.5 2.8-3.2 4.6-0.1 0.3-0.3 0.6-0.5 0.8-2.6 2.1-3.2 5.3-4.6 8.1-0.6 1.3-0.1 1.9 1.2 2.5 0.2 0.1 0.4 0.7 0.3 0.9-0.5 1.1 0.1 2 0.6 2.9 0.1 0.2 0.6 0.4 0.8 0.3s0.5-0.4 0.5-0.7c0-0.6 0.2-1.4-0.1-1.9-1-1.7 0-3.6-0.4-5.3-0.1-0.3 0.4-0.8 0.6-1.1 0.3 0.3 0.7 0.6 0.9 1 0.3 1 0.4 2 0.6 3 0.2 0.8 0.6 1.5 1.5 1.4 1-0.1 1-1 1-1.7-0.1-1.5-0.4-2.9-0.7-4.4-0.1-0.7-0.5-1.4 0.4-2.1 0.1 0.5 0.3 0.8 0.3 1.1 0.1 1 0.6 1.6 1.6 1.5 1.1-0.1 1-1.1 0.9-1.8-0.1-1.6-0.4-3.2-0.5-4.8 0-0.4 0.2-0.8 0.3-1.3 0.2 0.4 0.6 0.8 0.7 1.2 0.3 0.7 0.4 1.6 0.7 2.3 0.2 0.3 0.8 0.6 1.2 0.5s0.9-0.7 0.9-0.9c-0.4-1.7 0.7-2.3 1.8-3 0.8-0.5 1-1.2 0.6-2.1-0.1-0.3-0.1-0.7-0.2-1.1 0.3 0.1 0.4 0.1 0.4 0.1 0.8 0.8 1.6 1.7 2.9 1.1 1-0.4 2-1 3-1.4 0.1 0 0.1-0.1 0.1-0.2 0.3-1.2 0.7-2.5 1-3.7 0.1-0.5 0.1-1.1 0.3-1.6 0.2-0.6 0.3-1.3 1.2-1 0.8 0.2 1.1 0.8 0.8 1.6-0.2 0.7-0.1 1.4 0.8 1.6s1.2-0.5 1.3-1.2c0.2-0.4 0.2-1 0.3-1.9zm132.9 434.6c0.2 0 0.3-0.1 0.5-0.1 0-0.3 0.1-0.7 0.1-1 0-1.4 0-2.7-0.2-4.1-0.2-2.5-0.6-4.9-0.9-7.4-0.5-5.6-0.8-11.2-1.3-16.8-0.2-2-0.6-3.9-0.8-5.9-0.3-3-0.4-6.1-0.5-9.1-0.3-7.5-0.6-14.9-0.7-22.4-0.1-4.6 0.2-9.3 0.3-13.9l0.6-17.7c0-1 0.2-2.1 0.1-3.1-0.1-0.5-0.6-1.2-1.1-1.3-0.4-0.1-1.2 0.4-1.5 0.9-0.8 1.7-1.5 3.5-2.1 5.3-0.4 1.4-0.7 3-0.9 4.4-0.1 0.5 0 1.1 0.1 1.7 0.2 1.1 0.6 2.2 0.7 3.4 0.1 2 0.1 4.1 0.1 6.1v6.7c0 3.9-0.1 7.8 0.1 11.7 0.3 5.9 0.8 11.7 1.3 17.6 0.2 2.7 0.6 5.4 0.9 8.1s0.5 5.5 0.7 8.2c0 0.4 0 0.8 0.1 1.2 1 4.3 1.8 8.6 1.7 13 0 0.8 0.1 1.5 0.2 2.3 0.5 3.1 1 6.2 1.6 9.3 0.2 1 0.6 2 0.9 2.9zm-179.8-50.7c-0.1 1.5-0.1 2.7 0.5 3.8 1 2 2 4 2.9 6 0.7 1.4 1.3 2.9 2 4.2 1.5 3 3 5.9 4.5 8.8 1.7 3.2 3.4 6.4 5.2 9.6 0.5 0.9 1 1.8 1.6 2.6 0.4 0.6 0.9 1.1 1.3 1.7 1.3 2 2.6 4.1 3.8 6.2 0.4 0.6 0.8 1.1 1.1 1.7 1.5 2.7 3 5.4 4.5 8.2 2 3.6 4 7.1 5.9 10.7 1.2 2.3 2.2 4.8 3.3 7.2 1.7 3.7 3.4 7.3 5 11 1.1 2.4 2 4.9 3 7.3 0.3 0.8 0.9 1.5 1.5 2.1 0.2 0.2 0.8 0.2 1.1 0.1 0.2-0.1 0.2-0.7 0.1-0.9-0.7-2-1.4-4.1-2.1-6.1l-3-7.8c-1.1-2.7-2-5.4-3.3-8-1.5-3.1-3.3-6.1-4.7-9.3-1.2-2.8-2.4-5.5-4-8-1.6-2.4-3-5-4.5-7.5-0.4-0.7-1.1-1.2-1.4-1.9-1.1-1.9-1.9-3.9-3-5.8-1.7-2.9-3.5-5.6-5.2-8.5-2.3-3.8-4.5-7.7-6.8-11.6-1.5-2.7-2.9-5.4-4.4-8.1-0.3-0.5-0.5-1.1-0.9-1.4-1-1-1.4-2.3-1.7-3.6-0.3-1-0.9-2-2.3-2.7zm52.9-105.3h-0.1v-2.8c0-0.9-0.1-1.8-1.2-1.9-1-0.1-1.6 0.6-1.8 1.6-1.2 4.2-2.5 8.4-3.6 12.7-0.6 2.5-0.8 5-1 7.6-0.2 2.5-0.4 5-0.5 7.5 0 1.9-0.2 4 0.3 5.8 0.9 3.8 2.2 7.6 3.3 11.4 0.1 0.3 0.4 0.6 0.7 0.8 1.4 0.7 2.5-0.1 2.3-1.7-0.1-1.7-0.5-3.3-0.4-5 0.1-2.8 0.7-5.5 0.8-8.3 0.3-6.2 0.4-12.4 0.6-18.7 0-1-0.1-2.1 0-3.1 0.1-2.1 0.4-4 0.6-5.9zm6.3 112.2c-0.1 0-0.3-0.1-0.4-0.1-0.2 0.6-0.5 1.1-0.6 1.7-0.2 0.8-0.4 1.1-1.3 0.9s-1.3 0.3-1.3 1.2c0 0.3 0.2 0.6 0.1 0.9-0.1 0.4-0.1 0.9-0.4 1.1-0.1 0.1-0.8-0.1-1-0.3-1.2-1-1.8-0.9-2.1 0.7s-0.4 3.2-0.5 4.9c0 4.8 0.2 9.7 0 14.5-0.2 5.7 0.8 11.3-0.2 17-0.2 1.2 0.6 1.8 1.8 1.9 0.2 0 0.5 0.2 0.6 0.4 0.2 0.5 0.4 1.1 0.4 1.6 0.1 2.2 0 4.4 0.2 6.6 0 0.6 0.3 1.3 0.6 1.9 0.1 0.2 0.6 0.4 0.8 0.3s0.4-0.4 0.5-0.7c0.1-0.5 0-1.1 0-1.7 0-1.8-0.2-3.5 0.4-5.3 0.6-1.7 1-3.6-0.1-5.5-0.5-0.9-0.8-2.1-0.8-3.1 0.1-4.2 0.4-8.4 0.6-12.6 0.1-2.6 0.2-5.2 0.2-7.8 0-3.7-0.1-7.4-0.1-11.1 0-0.5 0.6-1 0.9-1.5 0.2 0.5 0.5 0.9 0.6 1.4 0.1 0.9 0.1 1.7 1.2 2.4 0.3-3.3 1-6.5-0.1-9.7zm-51.7-352.6c-0.2 0-0.4-0.1-0.6-0.1-0.6 1.1-1.3 2.2-1.7 3.3-0.6 1.5-0.8 3.2-1.4 4.7-0.4 0.9-1 1.9-1.8 2.4-1.5 1-2 2.4-2.2 4.1-0.2 2.3-0.5 4.5-1.7 6.6-0.5 1-0.8 2.2-0.9 3.3-0.1 2.4-0.1 4.8 0 7.2 0.1 1.9 0.6 3.7 0.6 5.6-0.1 2.8 1.6 5 2 7.6 0 0.3 0.7 0.6 1 0.9 0.3-0.4 0.6-0.7 0.8-1.1s0.1-0.9 0.3-1.3c0.2-0.3 0.5-0.7 0.8-0.7s0.7 0.4 0.8 0.7c0.5 1 0.8 2.2 1.5 3.1 0.3 0.5 1.2 0.8 1.8 0.8 0.4 0 1.1-0.8 1-1.3-0.1-1.7-0.3-3.4-0.6-5.1-0.2-1.2-0.7-2.5-0.2-3.7 0-0.1-0.1-0.3-0.2-0.5-1.4 1.2-2 2.7-2.2 4.5-0.4-2.1-0.5-4.2-1.4-6.2-0.5-1.1-0.3-2.6-0.3-4 0-2.2-0.1-4.5 0.2-6.7 0.5-3.9 1.1-7.7 1.9-11.6 0.7-3.5 1.6-6.9 2.4-10.3 0.3-0.7 0.1-1.5 0.1-2.2zm163.3 306.4c-0.3 0.3-0.5 0.4-0.6 0.6-0.6 1.7-1.3 3.4-1.8 5.2-0.4 1.1-0.8 2.3-1 3.4-0.3 1.4-0.9 2.9-0.8 4.3 0.1 2.7 0.6 5.3 0.8 8 0.2 2.2 0.5 4.5 0.5 6.7-0.1 4.2 0.4 8.4 1.1 12.5 0.8 4.5 1.5 9 2.2 13.5 0.7 4.7 1.2 9.3 1.9 14 0.2 1.2 0.6 2.3 0.8 3.5 0.4 3 0.7 5.9 1.2 8.9 0.1 0.4 0.5 0.7 0.8 1 0.2-0.4 0.5-0.7 0.5-1.1 0-1.2 0.1-2.5-0.1-3.7-0.2-1.6-0.7-3.2-0.9-4.8-0.5-3.8-0.1-7.7-1.2-11.5-0.7-2.5-0.7-5.1-0.9-7.7-0.5-5.2-0.9-10.3-1.3-15.5-0.3-4.5-0.6-9.1-0.8-13.6-0.1-2.3 0-4.6 0-6.9 0-2.7-0.2-5.4-0.2-8s-1.3-5.3 0.1-7.9c-0.1-0.5-0.2-0.6-0.3-0.9zm-100.8-317.7l-0.2-0.2c0-0.1 0-0.2 0.1-0.3 0.9-1.9 1.8-3.9 2.7-5.8 0.6-1.2 0.9-2.4 2-3.3 0.8-0.7 1.3-2 1.8-3.1 0.1-0.2 0-0.8-0.2-1s-0.8-0.2-1-0.1c-0.5 0.4-1 0.9-1.3 1.5-0.6 1.3-1.1 2.5-2.8 2.8-0.5 0.1-0.9 0.7-1.3 1.2-0.5 0.6-0.9 1.2-1.5 1.8-1.8 1.9-2.6 4.2-2 6.8 0.4 1.4-0.1 2.6-0.6 3.8-0.2 0.6-0.4 1.3-0.4 1.9 0.1 0.9 0.1 1.7-0.9 2.3-0.3 0.2-0.6 0.9-0.5 1.3s0.7 0.6 1.2 0.8c0.5 0.2 1.1 0.2 1.5 0.5 1.2 0.7 2.1 0.4 2.7-0.8 0.8-1.7 1.8-3.4 2.8-5s2.2-3.1 3.1-4.7c2-3.7 4.1-7.2 6.9-10.2 0.5-0.5 0.9-1.2 0.2-1.7-0.3-0.2-1.1 0.1-1.6 0.4-0.7 0.5-1.2 1.3-2 1.7-1.3 0.7-2.7 1.2-3 2.9 0 0.1-0.2 0.2-0.3 0.4-0.8 0.9-1.7 1.9-2.5 2.8-0.9 0.9-1.9 2.1-2.9 3.3zm-38.8 66.7c-0.1 0-0.2 0.1-0.2 0.1 0.3 0.7 0.6 1.3 1 2 0.3 0.6 0.8 1.1 1.2 1.7 1.2 2.1 2.6 4.1 4.5 5.7 1.3 1.1 2.6 2.4 3.9 3.5 1.5 1.2 3.2 2 5.1 2.1 0.2 0 0.6-0.5 0.7-0.8 0.1-0.7 0-1.4 0.2-2.1 0.2-0.8 0.2-1.4-0.9-1.5-0.4 0-0.9-0.4-1.3-0.7-0.6-0.5-1.2-1.2-1.8-1.8-0.7-0.8-1.6-1.5-2.2-2.3-0.9-1.5-1.4-3.1-2.2-4.6-0.3-0.6-0.6-1.2-1-1.8-0.5-0.8-1.1-1.5-1.6-2.3-1-1.8-1.8-3.8-4-4.6-0.4-0.2-0.6-0.8-1-1.1-0.5-0.4-1.1-1-1.7-1.1-0.8-0.3-1.2 0.3-0.9 1.1 0.4 0.9 1 1.7 1.3 2.6 0.4 1.1 0.8 2.2 0.9 3.4 0.3 0.6 0 1.5 0 2.5zm68-123.6c0.9 0.2 1.7 0.2 2.4 0.5s1.4 0.7 2.1 1.1c2.3 1.2 3.7 2.9 3.5 5.7 0 0.4 0.3 1.2 0.6 1.4 1.5 0.9 2.3 2.1 2.7 3.7 0.2 0.8 0.5 1.5 0.7 2.3 0.2 0.9 0.3 1.8 0.4 2.7 0 0.3 0 0.7 0.1 0.9 0.5 1.4 1 2.9 1.7 4.2 0.3 0.6 1.3 0.9 1.9 1.4 0.3-0.5 0.9-1.1 0.9-1.6 0-7.1-1.4-13.7-6.7-18.9-1.4-1.4-2.9-2.9-4.6-3.9-1.8-1.1-3.7-2-5.7-2.7-1.3-0.5-2.8-0.7-4.2-0.9-0.3 0-1 0.4-1.1 0.7-0.1 0.4 0.2 1.1 0.5 1.3 1 0.6 2.2 0.9 3.3 1.4 0.4 0.2 0.7 0.4 1.2 0.6-1.6 1.4-1.9 2-1.6 3.3 0.1 0.4 0.4 1 0.7 1 0.4 0 1-0.3 1.1-0.6 0.3-0.5 0.3-1.2 0.4-1.8 0-0.6-0.2-1-0.3-1.8zm39.9 20.8c0.1-0.4 0.1-0.7 0.1-1.1-0.1-1.2-0.8-2-1.8-2-1.2 0-0.9 1.1-1.1 1.8-0.9 4.4-1.9 8.8-2.8 13.2-0.4 1.9-1.6 3.6-1 5.7 0.1 0.3-0.5 1-0.8 1.1-0.9 0.2-1.3 0.8-1.6 1.6-1.6 3.6-3.6 6.8-6.6 9.4-1.4 1.3-2.5 2.9-3.8 4.4-0.1 0.2-0.3 0.3-0.3 0.5s0 0.6 0.1 0.6c0.2 0.1 0.6 0.2 0.7 0.1 0.3-0.2 0.5-0.5 0.8-0.7 1.1-1.2 2.2-2.3 3.7-3.1 1.5-0.9 3-2.1 4.1-3.6 1.9-2.6 3.4-5.5 5.2-8.1 2-2.9 3.3-5.9 3.8-9.4 0.2-1.6 1-3.1 1.1-4.6 0.3-2 0.2-3.9 0.2-5.8zm-122.8 60.2c0.2-0.1 0.3-0.2 0.5-0.3-0.5-1.6-0.9-3.1-1.6-4.7-0.2-0.4-0.8-0.9-1.2-1-0.8-0.1-0.8 0.7-1 1.4-0.3 1.5 0.3 3.1-0.6 4.5-0.1 0.2 0 0.5 0 0.8 0 1.4 0.1 2.8 0.1 4.2-0.1 3.7-0.6 7.4 0.4 11.1 0.3 0.9 0.2 2 0.3 3 0.1 1.6 0.1 3.3 0.3 4.9 0.2 1.4 0.6 2.7 0.8 4.1 0.1 0.9 0.4 1.7 1.1 2.3 1.2 1 2.4 2 3 3.6 0.2 0.6 0.9 1.4 1.8 0.9 0.9-0.4 0.7-1.2 0.4-2-0.3-0.7-0.7-1.4-1-2-0.6-1.3-1.7-2.7-1.6-4.1 0.2-2.7-1.9-4.3-2.4-6.6l-0.3-0.9c0.4 0.1 0.8 0.1 1.2 0.3 0.5 0.2 1 0.5 1.5 0.7 0.1-0.5 0.1-0.6 0-0.7-1.5-1.8-2.8-3.8-3.4-6.1-0.2-0.9-0.2-1.8-0.2-2.8 0-0.2 0.5-0.4 0.8-0.5 0.4-0.1 0.8-0.2 1.2-0.2-0.2-0.4-0.4-0.8-0.5-1.1-0.4-1.1-1.2-2.4-1-3.4 0.3-1.8 0.2-3.4-0.7-4.9-0.1-0.2-0.1-0.6-0.1-0.9 0.4 0 0.8-0.1 1.1 0 0.6-0.1 0.8 0.2 1.1 0.4zm-20.3-50.2c0.6 1.7 0.9 3 1.5 4.3 0.3 0.6 1 1 1.6 1.4 0.2 0.1 0.9-0.3 0.9-0.5 0.1-1.2 0.8-0.9 1.3-0.4 0.5 0.4 1.1 0.9 0.7 1.8-0.2 0.4 0.3 1 0.5 1.6 0.4-0.1 0.7-0.3 1.1-0.4 0.1-0.1 0.2-0.2 0.4-0.3 1.7-0.3 3.7 0.9 4 2.6 0.3 1.8 0.4 3.6 0.6 5.3 0.1 0.9 0.3 1.6 1.4 1.4 0.2 0.7 0.2 1.4 0.5 2 0.2 0.4 0.7 0.7 1 1 0.2-0.3 0.4-0.7 0.6-1 0.1-0.2 0.3-0.4 0.5-0.6 0.2 0.2 0.6 0.4 0.6 0.6 0.1 0.7 0 1.4 0.2 2 0.1 0.6 0.4 1.5 0.6 1.6 0.7 0.1 1.6-0.1 2.2-0.5 0.9-0.5 1.2-1.6 0.8-2.5-0.6-1.5-1.5-2.8-2-4.3-1.1-3.9-3.9-6.6-6.7-9.1-2.7-2.4-5.8-4.4-9.4-5.4-0.9-0.4-1.8-0.4-2.9-0.6zm158.9 371.4c0.3 0.6 0.6 1.7 0.9 1.7 1 0.1 1.2-0.9 1.4-1.8v-0.6c0.1-0.6 0.2-1.3 0.4-1.9 0.5-1.9 1.1-3.7 1.7-5.6 0.8-2.8 1.3-5.7 2.3-8.4 0.9-2.8 0.8-5.8 2.7-8.3v-0.1c1.2-3.5 2.3-6.9 3.5-10.4 0.4-1.4 0.8-2.8 1-4.2 0.1-0.4-0.2-1.2-0.5-1.3-0.6-0.2-1.2 0.1-1.4 0.9-0.6 1.7-1.3 3.3-1.8 5.1-0.7 2.4-1.6 4.8-2.7 7.1-0.8 1.7-0.8 3.8-1.2 5.7-0.1 0.4-0.1 0.9-0.3 1.3-1.6 2.6-1.9 5.6-3 8.4-0.4 1-0.6 2-0.8 3-0.4 2-0.7 4.1-1.1 6.1 0 0.2-0.1 0.4-0.2 0.6-0.2 0.8-0.5 1.6-0.9 2.7zm-73.5-378.7c-0.2 1.8 0.1 2.1 2.1 2.9 2.6 0.9 3.5 0.4 3.7-2.4v-0.6c0-3.4 1.2-6.6 2.1-9.9 0.2-0.8 0.6-1.5-0.4-2-1.5-0.7-2.9-0.5-3.4 0.4-0.8 1.3-2.2 2.2-2.4 3.9 0 0.1-0.1 0.2-0.2 0.3-1.4 1-1.9 2.5-2.4 4-0.3 0.8-0.2 1.4 0.4 2 0.3 0.3 0.3 0.9 0.5 1.4zm-76.1 326.9h-0.3c-0.2 3.5-0.5 7.1-0.5 10.6 0.1 4.7 0.4 9.5 0.7 14.2 0 0.4 0.1 0.8 0.3 1 0.4 0.4 0.9 0.8 1.3 1.1 0.2-0.5 0.6-1 0.6-1.5-0.1-4.1-0.3-8.3-0.3-12.4 0-6.3 0.1-12.7 0.1-19 0-1.2-0.2-2.4 0-3.6 0.4-2.7 0.3-2.9-2.3-3.1-0.3 0-1 0.1-1 0.3-0.1 0.4 0 0.9 0.3 1.1 1.2 1 1.1 2.3 1.1 3.6v7.7zm160.6 48.4h0.3c-0.1-1.2-0.2-2.3-0.4-3.4-0.1-0.4-0.5-0.8-0.8-1.2-0.3 0.4-0.7 0.7-0.8 1.2-0.5 1.6-0.9 3.3-1.4 4.9-0.4 1.3-0.3 2.3 0.4 3.4 0.4 0.7 0.7 1.5 0.8 2.3 0.8 5.5 1.5 11 2.4 16.5 0.3 2.1 1.1 4.1 1.7 6.1 0.1 0.3 0.5 0.5 0.8 0.7l0.6-0.9c0.1-0.2 0-0.4-0.1-0.6-0.6-3.7-1.2-7.5-1.7-11.2-0.4-3.6-0.7-7.2-1.1-10.7-0.2-2.4-0.4-4.8-0.7-7.1zm-182.5-11.4c0.2 0 0.4-0.1 0.7-0.1 0.1-0.5 0.2-1 0.2-1.4-0.3-3.5-0.6-7.1-0.8-10.6 0-0.5 0.3-0.9 0.4-1.4 0.4 0.4 0.8 0.8 1.1 1.3 0.2 0.4 0.2 0.9 0.3 1.4 0.2 1.7 0.3 3.5 0.5 5.2 0.1 0.9 0.4 1.8 0.8 2.5 0.3 0.4 1 0.5 1.6 0.8 0.2-0.5 0.5-0.9 0.5-1.4-0.1-3.5-0.2-7.1-1.6-10.5-0.2-0.4-0.1-0.8-0.2-1.2-0.3-1.2-0.5-2.5-1-3.7-0.2-0.5-1-0.8-1.5-1.2-0.1 0.6-0.3 1.1-0.4 1.7 0 0.1 0 0.3 0.1 0.5 0 0.7-0.2 1.1-1 1.1-0.4 0-0.8 0-1.2 0.2-2 0.6-2 0.6-1.6 2.7 0.3 1.1 0.7 2.2 0.9 3.3 0.4 2.5 0.6 5 1.1 7.5 0.2 1.1 0.7 2.2 1.1 3.3zm80.4-365.1c1.9 0 2.2-0.4 2.6-2.2 0.6-2.4 1.3-4.8 2-7.2 0.4-1.3 1-2.5 1.7-3.7 1-1.5 2.2-2.9 3.2-4.4 0.3-0.4 0.5-1 0.5-1.5 0-0.8-0.5-1.3-1.2-0.7-2.1 1.8-4.4 3.6-6.2 5.7-1.2 1.4-1.9 3.3-2.6 5-0.8 2.1-1.4 4.3-2 6.5-0.5 2.1-0.1 2.5 2 2.5zm34.2 6.2c0.1 0 0.2 0 0.2 0.1 0 0.3 0 0.6 0.1 1 0.2 1 1.7 2.2 2.8 2.3 1 0 1.5-0.6 1.8-1.5 1.3-4.2 2.1-8.5 2.1-12.9 0-0.4-0.1-0.8-0.1-1.2-0.1-0.8-0.4-1.4-1.3-1.4s-1.4 0.3-1.7 1.2c-0.8 2.2-1.6 4.3-2.3 6.5-0.7 1.9-1.1 3.9-1.6 5.9zm0.4-15.5c-0.2-0.3-0.4-0.8-0.7-0.9s-0.8 0.2-1.1 0.5c-0.9 0.9-1.7 1.9-2.5 2.9-0.4 0.5-0.8 1-1.1 1.6-0.7 1.7-1.2 3.5-1.9 5.3-0.2 0.5-0.7 1-1 1.4-0.5 0.6-1 1.1-1.4 1.8-0.5 0.7-0.2 1.3 0.6 1.6 0.5 0.2 1.1 0.3 1.4 0.6 1.5 1.8 3.2 1.2 4.9 0.4 1-0.4 1-1.1 0.4-1.9-0.4-0.6-0.8-1.3-0.8-2 0.1-0.9 0.6-1.8 0.9-2.8 0.7-2.4 1.4-4.9 2-7.3 0.2-0.4 0.2-0.7 0.3-1.2zm-90.2 90c0.1-0.3 0.2-0.3 0.2-0.4s0-0.3-0.1-0.3c-1-1.1-1.1-2.3-0.7-3.7 0.1-0.3-0.1-0.8-0.3-1.2-0.4-0.8-0.5-1.5 0.4-2.1 1.4-1 1.6-2 1.1-3.7-0.1-0.3-0.1-0.8 0-1.1 0.2-0.8 0.6-1.5 0.6-2.2 0.1-2.7 0.1-5.4 0.1-8 0-0.5 0-1-0.1-1.4-0.1-0.2-0.7-0.5-0.7-0.5-0.6 0.6-1.4 1.1-1.7 1.9-0.4 1.1-0.5 2.3-0.6 3.4-0.2 1.7-0.4 3.5-0.3 5.3 0.1 1 1.1 2-0.1 3.1-0.1 0.1 0.1 0.5 0.1 0.8-0.1 0.5-0.2 1.2-0.5 1.4-1.1 0.6-1.3 1.4-1.3 2.5 0 1.2-0.1 2.4-0.1 3.6 0 1 0 2.1 0.2 3.1 0 0.3 0.4 0.8 0.7 0.8 0.5 0 1-0.2 1.3-0.5s0.5-0.9 0.7-1.4c0.5 0 0.8 0.3 1.1 0.6zm52.6 412.1c0.1 0 0.2 0 0.4-0.1 0.1-0.4 0.3-0.7 0.3-1.1 0-1.1-0.1-2.2-0.3-3.3-0.5-2.5-1.1-4.9-1.6-7.4-0.5-2.6-1-5.2-2.3-7.6-0.1-0.3-0.2-0.7-0.1-0.9 0.6-1.3 0.1-2.4-0.5-3.5-0.2-0.5-0.4-1-0.4-1.5 0.2-2-1.3-3.2-2.4-4.5-0.2-0.3-1-0.3-1.4-0.2-0.2 0.1-0.5 0.8-0.4 1.1 0.5 1.6 0.9 3.2 1.7 4.6 0.9 1.4 1.2 2.8 1.5 4.4 0.4 1.8 1 3.5 1.5 5.3 0.1 0.5 0.4 0.9 0.5 1.3 1 4.2 2 8.4 3.1 12.7-0.1 0.1 0.2 0.4 0.4 0.7zm18.1-513c1.8 2.1 3.1 1.9 4.3-0.5 0.4-0.7 0.9-1.4 1.4-2 0.8-1 1.5-0.9 2.3 0.1 0.6 0.8 1.1 0.8 1.6-0.1 0.2-0.3 0.4-0.7 0.5-1.1 0.3-1-0.6-2.6-1.5-2.6-1.1 0-2.2-0.1-3.2 0.3-2.9 1.1-5.8 2-8.3 4.1-1.2 1-1.9 1.7-1.3 3.2 0.2 0.5 0.5 1.1 0.8 1.6 0.6-0.3 1.2-0.5 1.7-0.9 0.7-0.6 1.1-1.3 1.7-2.1zm-39.6-7.1c0.1-1.3 0-1.5-1.1-1.2-0.5 0.1-0.9 0.2-1.4 0.2-2.4 0.2-3.9 2.1-3.6 4.5 0.2 1.3 0.2 2.7 0 4-0.4 2.9-0.4 2.9 2.4 2.6 1.7-0.2 2.6-1.1 2.8-2.8 0-0.4 0.1-0.8 0.3-1.1 0.9-1.8 1.4-3.7 0.6-5.7v-0.5zm-16.7 20.3c0.1-0.7 0.3-1.1 0.3-1.5 0.1-0.6 0-1.2 0.1-1.8 0.7-3.7 2.5-6.9 4.5-10.1 0.8-1.4 1.4-2.9 2-4.4 0.2-0.5 0.6-1.5-0.3-1.6-0.8-0.1-2.4 0.2-2.5 0.7-0.6 1.6-1.6 2.6-2.9 3.5-0.4 0.3-0.7 1.1-0.7 1.6 0.2 1.9-0.1 3.8-1.2 5.3-1.9 2.3-1 5.9 0.7 8.3zm133 392.6c-0.3-0.4-0.6-1.1-1-1.1s-0.9 0.6-1.3 0.9c-0.1 0.1-0.1 0.5-0.2 0.7-0.3 1.2-0.5 2.5-0.8 3.7-0.3 1.3-0.9 2.6-1.2 3.9-0.4 1.6-0.6 3.3-1.2 4.8-0.9 2.3-1.7 4.6-1.9 7 0 0.4-0.2 0.8-0.5 1.1-1.8 1.6-1.2 4.2-2.5 6-0.2 0.2 0.4 1 0.6 1.6 0.4-0.4 0.9-0.7 1.2-1.1s0.2-1 0.5-1.3c1-1.1 1.1-2.3 1.1-3.7 0-0.5-0.1-1.1 0.2-1.4 1.2-1.1 1.5-2.6 1.9-4.1 1.1-3.4 2.7-6.6 2.8-10.2 0-0.4 0.3-0.8 0.4-1.2 0.7-1.7 1.3-3.5 1.9-5.6zm-145.1 59.3c-0.2 0.1-0.3 0.2-0.5 0.3 0.1 0.5 0.2 1.2 0.4 1.6 2.3 4.2 3.6 8.9 6.4 12.9 1.8 2.6 3.3 5.5 4.9 8.2 1.1 1.9 2.2 3.9 3.3 5.7 0.2 0.4 0.9 0.5 1.3 0.7 0-0.5 0.2-1.1 0-1.4-1.2-2-2.5-3.8-3.7-5.8l-0.6-1.2c-1.7-3.4-3.2-6.8-5-10.2-1.7-3.2-3.5-6.2-5.3-9.3-0.3-0.5-0.8-1-1.2-1.5zm120.4-196.2c-0.3-0.4-0.6-0.8-0.8-1.2-0.4 0.3-1 0.5-1.2 0.9-0.6 1.5-1 3-1.5 4.6-0.6 2.1-1.2 4.1-1.9 6.2-1.2 3.5-2.4 7.1-3.6 10.6-0.3 1 0.4 1.6 1.4 1.2 0.4-0.2 0.8-0.7 1.1-1.2 0.4-0.6 0.7-1.3 0.9-1.9 0.3-0.9 0.7-1.8 0.9-2.7 0.5-2.3 0.9-4.7 1.3-7 0-0.2 0.1-0.4 0.2-0.6 0.6-1.4 1.3-2.7 1.9-4.1 0.5-1.6 0.9-3.1 1.3-4.8zm-71 165.9h0.1c-0.1-0.7 0-1.4-0.2-2-0.2-0.4-0.7-0.7-1.1-1-0.2 0.4-0.5 0.9-0.5 1.3 0 1.6 0.2 3.1 0.2 4.7 0 1.7-0.2 3.4-0.2 5.1v16.9c0 0.3 0.4 0.6 0.6 0.9 0.4-0.3 1-0.5 1-0.8 0.2-1.6 0.4-3.2 0.4-4.7 0.1-3.7 0.1-7.5 0-11.2 0-3.3-0.2-6.3-0.3-9.2zm-26.4 47.4c0.1-0.1 0.3-0.1 0.4-0.2 0-0.5 0.1-1 0-1.5-0.6-1.5-1.2-3-1.9-4.4-1.6-3.2-3.4-6.3-5.1-9.5-0.4-0.8-0.6-2-1.3-2.4-1.7-1-2.3-2.7-3-4.3 0 0 0-0.1-0.1-0.1-0.4-0.3-0.9-0.6-1.3-0.9 0 0.6-0.1 1.1-0.1 1.7 0 0.2 0.3 0.4 0.4 0.6 0.5 0.8 1.1 1.6 1.6 2.5 0.8 1.5 1.5 3 2.3 4.5 0.6 1 1.3 2 1.9 3 1.7 3.1 3.3 6.3 4.9 9.4 0.3 0.7 0.8 1.1 1.3 1.6zm-13.4-8.4c-0.4-0.8-0.9-1.5-1.3-2.2-1-1.7-2.5-3.4-3-5.3-0.6-2-1.4-3.9-2.5-5.6-1.3-2.1-2.3-4.2-3-6.6-0.1-0.5-0.5-0.9-0.9-1.2s-0.9-0.3-1.4-0.4c-0.1 0.5-0.2 1-0.2 1.4s0.3 0.8 0.5 1.2c1.5 2.8 3 5.5 4.4 8.3 0.5 1 0.9 2.1 1.4 3.1 0.8 1.3 1.7 2.6 2.5 3.9 0.7 1.2 1.2 2.4 1.8 3.6 0.2 0.3 0.7 0.6 1 0.6 0.2 0.2 0.4-0.4 0.7-0.8zm59.7-327.2c0.7-0.5 1.3-0.8 1.8-1.3 1.1-1 2.3-2.1 3.3-3.3 1-1.3 1.9-2.7 2.6-4.2 0.5-1.1-0.7-2.1-1.8-1.6-0.6 0.2-1 0.8-1.4 1.3-0.8 0.9-1.4 1.9-2.2 2.8-1 1.1-2.3 1.9-3.2 3-0.4 0.5-0.5 1.5-0.5 2.3 0 0.4 0.8 0.6 1.4 1zm-63.3-111.8c0.1 0.1 0.2 0.3 0.3 0.4 0.4-0.3 0.9-0.6 1.1-1 0.1-0.3-0.2-1-0.4-1.1-1.3-0.2-1-1.1-0.9-1.9 0.1-0.7 0.5-1.3 0.6-1.9 0.1-0.4 0.2-1.2 0.1-1.2-1-0.3-2-0.5-3-0.6-0.3 0-0.7 0.4-0.8 0.7-0.7 1.5-1.2 3.1-1.9 4.7-0.4 1.1 0.1 1.7 0.8 2.4s1.4 0.7 2.3 0.2c0.5-0.3 1.2-0.5 1.8-0.7zm-1.7 29.4c0.5-0.2 0.9-0.2 1.1-0.4 0.6-0.7 1.2-0.8 2-0.5 0.2 0.1 0.9-0.5 0.9-0.7-0.1-1.5 0.2-2.8 0.9-4.1 0.2-0.3 0.1-0.7 0.1-1.1-0.2-1.5-0.3-2.9-0.6-4.4-0.1-0.4-0.4-0.8-0.7-1.1-0.4 0.4-0.9 0.7-1.1 1.1-0.8 3-1.6 6-2.3 9-0.2 0.7-0.2 1.3-0.3 2.2zm91.9 258.5c0.4 0.4 0.8 0.8 1.1 1.2 0.3-0.4 0.7-0.8 0.8-1.2 0.3-1 0.5-2 0.8-3 0.3-1.2 0.7-2.3 0.8-3.5s0.5-2.1 1.6-2.7c0.4-0.2 0.8-0.8 0.8-1.3 0.1-0.7 0-1.5-0.2-2.2-0.2-0.5-0.7-1-1.1-1.2-0.4-0.1-1.1 0.2-1.3 0.6-0.4 0.7-0.7 1.6-0.8 2.4-0.5 2.5-0.8 5-1.3 7.4-0.2 1.2-0.7 2.3-1.2 3.5zm-12.5 34.4c0 0.4 0 0.6-0.1 0.8-0.1 0.6-0.3 1.3 0.6 1.4 0.8 0.1 1.4-0.3 1.5-1.2 0.1-0.5 0.3-1 0.4-1.5 0.6-2.9 3-5.2 2.9-8.4 0-0.2 0.2-0.4 0.3-0.6 0.6-1.3 1.3-2.5 1.8-3.9 0.1-0.4-0.2-0.9-0.4-1.3-0.4 0.3-0.9 0.6-1.1 1-0.8 1.7-1.5 3.5-2.3 5.2-0.4 0.8-1.3 1.5-0.6 2.5 0.1 0.2-0.1 0.6-0.2 0.9-0.4 0.5-0.8 1-1.3 1.4-1 1.1-2 2.1-1.5 3.7zm-102.1-281.3c-0.2 0-0.3 0-0.5-0.1-0.2 0.7-0.3 1.4-0.4 2.1-0.1 0.5-0.1 1.1-0.2 1.6-0.9 3.7-1.5 7.3-0.5 11.1 0.1 0.2 0 0.5 0 0.7-0.1 1.5-0.2 2.9-0.2 4.4 0 0.7 0.3 1.4 1.2 1.3 1-0.2 0.8-0.9 0.6-1.6-0.3-1.4-0.6-2.9-0.9-4.3-0.1-0.3 0.1-0.6 0.2-0.9 0.1-0.9 0.3-1.8 0.4-2.7 0.1-0.8 0.1-1.6 0.2-2.4 0.2-2.7 0.4-5.4 0.5-8.1-0.1-0.3-0.3-0.7-0.4-1.1zm128.2-53.4c0.3 1 0.6 1.7 0.8 2.5 0.1 0.4 0.1 0.8 0.1 1.2 0.1 0.9 0.7 1.2 1.5 1.1s1-0.7 1-1.5c0-1.2 0.3-2.3 0.5-3.4 0.1-0.5 0.4-1 0.5-1.6 0.3-1.1 0.5-2.2 0.8-3.3 0.1-0.3 0.4-0.7 0.3-1 0-0.4-0.2-0.9-0.5-1.1-0.3-0.1-1 0-1.1 0.2-0.6 0.9-1.4 1.8-1.6 2.8-0.4 1.7-0.7 3.4-2.3 4.1zm-98.7 446.5c-0.1 0.1-0.1 0.2-0.2 0.2 0.7 1.7 1.4 3.4 2.2 5.1 0.5 1 1.6 1.8 2.1 2.8 1.5 2.8 2.9 5.7 4.3 8.5 0.2 0.4 0.7 0.7 1.1 1 0.2-0.5 0.4-1.1 0.5-1.6 0-0.2-0.1-0.5-0.2-0.7-0.6-0.9-1.2-1.8-1.7-2.8-1.2-2.1-2.5-4.2-3.4-6.4-0.8-2.1-2.2-3.6-3.5-5.3-0.3-0.3-0.8-0.5-1.2-0.8zm-26-200.1c-0.1 0.1-0.2 0.1-0.3 0.2 0 0.3-0.1 0.6 0 0.8 1.1 1.9 0.7 4 1 6.1 0.2 1.4 0.6 2.8 1.1 4.1 0.3 0.8 2 1.1 2.9 0.6 0.8-0.5 0.5-1.2 0.3-1.9-0.4-1-0.8-2.1-1.2-3.1-0.7-1.6-1.3-3.3-2.1-4.9-0.5-0.8-1.2-1.3-1.7-1.9zm140.5 191.3c-0.1-0.1-0.3-0.1-0.4-0.2-0.2 0.2-0.5 0.5-0.6 0.7-0.8 1.7-1.6 3.4-2.5 5.1-0.2 0.4-0.5 0.8-0.8 1.2-0.4 0.6-0.7 1.2-1 1.9-1.5 3.1-2.9 6.2-4.3 9.4-0.2 0.4-0.1 0.9-0.1 1.4 0.5-0.2 1.2-0.3 1.4-0.7 0.9-1.4 1.6-2.9 2.3-4.4 1.1-2.3 2-4.6 3.1-6.8 0.1-0.3 0.4-0.5 0.5-0.8 0.4-0.8 0.7-1.6 1-2.4 0.4-1 0.7-2 1.1-3 0-0.4 0.1-0.9 0.3-1.4zm-128.6-138.1c0-0.6 0-1.2-0.1-1.8-0.2-0.8-1.1-1.2-1.7-0.7-0.3 0.3-0.5 0.8-0.5 1.2-0.1 3.4 1 6.7-0.1 10.1v0.4c0 0.7 0.2 1.4 1.1 1.4s1.2-0.5 1.3-1.3c0.1-1.9 0.9-3.8-0.1-5.8-0.2-0.4-0.1-1.1 0-1.6-0.1-0.6 0-1.3 0.1-1.9zm129.1 135.7c0.2 0.1 0.5 0.2 0.7 0.3 0.4-0.7 0.7-1.4 1.1-2.1l0.9-1.8c0.2-0.3 0.4-0.6 0.4-1 0.1-2.4 1.4-4.3 2.5-6.2 0.6-1 0.9-2.2 1.2-3.3 0.1-0.3-0.4-1.1-0.5-1.1-0.5 0-1 0.3-1.5 0.6-0.2 0.2-0.2 0.7-0.4 1-1.1 2.4-0.9 5.3-2.7 7.5-0.1 0.1-0.1 0.4-0.2 0.6-0.2 0.7-0.5 1.4-0.7 2.2-0.2 1-0.5 2.1-0.8 3.3zm-96.4-443.4c-0.1 0-0.3 0.1-0.4 0.1 0.4 1 0.8 1.9 1.2 2.9 0.1 0.2 0.5 0.4 0.7 0.5 0.2-0.3 0.5-0.5 0.5-0.8 0.1-2 0.2-4.1 0.1-6.1 0-0.8-0.1-1.4 0.5-2 0.3-0.3 0.3-1.1 0.1-1.6-0.1-0.3-0.9-0.4-1.3-0.4-0.5 0-1 0.4-1.5 0.5-0.8 0.2-0.9 0.6-0.8 1.4 0.5 1.8 0.7 3.7 0.9 5.5zm-30.8 8.5c-0.1-0.2-0.2-0.6-0.4-0.7s-0.7 0.1-0.8 0.3c-0.4 0.7-1 1.4-1.1 2.2s-0.5 1.2-1.2 1.3c-1 0.2-1.6 0.7-1.5 1.8s0.8 1.5 1.7 1.6c0.8 0.1 1.6 0.2 1.9 1.1 0.1 0.2 0.6 0.5 0.9 0.4 0.2-0.1 0.4-0.5 0.5-0.8 0.2-0.5 0.3-0.9 0.5-1.4s0.3-1 0.5-1.5c-0.5 0-1-0.1-1.5-0.1-0.2 0-0.5 0-0.6-0.1s0-0.4 0-0.6c0.4-1.2 0.7-2.3 1.1-3.5zm43-10.7c-0.3 0.2-0.5 0.3-0.5 0.4-0.5 1.4-1.2 2.7-1.6 4.1-0.2 0.7 0.8 1.5 1.6 1.3 1-0.2 1.9-0.5 2.9-0.8 0.3-0.1 0.6-0.4 0.7-0.7 0.4-2 0.7-4 1-6 0-0.3-0.1-0.6-0.2-0.9-0.1 0-0.3 0-0.4-0.1l-1.5 3.3c-0.2 0.5-0.4 1.1-0.8 1.5-0.5 0.6-1 0.4-1.1-0.4-0.2-0.5-0.1-1-0.1-1.7zm-81.8 312.4c0.1 0 0.2-0.1 0.3-0.1-0.2-0.5-0.2-1.1-0.5-1.6-0.8-1.6-1.6-3.1-2.4-4.7-0.5-1-0.9-1.9-1.4-2.9-0.1-0.2-0.5-0.3-0.7-0.5-0.1 0.3-0.4 0.5-0.4 0.8 0 0.4 0 0.9 0.2 1.3 1 2.8 1.9 5.5 3 8.3 0.2 0.6 0.7 1.2 1.1 1.7 0.2 0.2 0.7 0.2 1.1 0.3 0.1-0.4 0.3-0.8 0.2-1.2 0-0.5-0.3-1-0.5-1.4zm142.3-3.7c0.1 0 0.1 0 0.2 0.1v1c0 0.8 0.6 1.2 1.3 1 0.4-0.1 0.9-0.6 1-1 0.4-1.5 0.3-3.2 1.1-4.4 0.7-1 1.4-1.9 1.6-3.1 0.1-0.4 0-1.1-0.1-1.1-0.5-0.1-1.3-0.2-1.5 0.1-0.9 1.2-2.3 2.1-2.4 3.9 0 0.5-0.4 1-0.6 1.6-0.1 0.5-0.3 1.2-0.6 1.9zm-49.1-331c-0.2 0-0.5-0.1-0.7 0-0.4 0.2-0.7 0.5-1.1 0.7 0.3 0.3 0.6 0.7 1 0.8 1.5 0.4 2.5 1.5 3.2 2.7s1.6 1.7 2.8 2c0.4 0.1 0.8 0 1.2-0.1-0.1-0.4-0.1-0.9-0.3-1.3-0.1-0.3-0.4-0.5-0.5-0.8-0.7-2.8-2.7-4-5.6-4zm43.6 337.8c-0.3-0.4-0.6-0.8-0.9-1.2-0.4 0.4-1.1 0.6-1.2 1.1-0.6 1.6-0.9 3.2-1.4 4.8-0.7 2-0.3 4.3-1.9 6.1-0.1 0.2-0.2 0.5-0.1 0.7 0.1 0.3 0.4 0.8 0.7 0.8s0.8-0.3 0.9-0.5c0.5-1.2 0.9-2.5 1.3-3.8 0.5-1.5 0.9-3 1.4-4.4 0.3-1.1 0.8-2.3 1.2-3.6zm-62.9-311.9c0.1 1.5 0.2 2.9 0.4 4.4 0.1 0.4 0.1 0.9 0.4 1.1 0.4 0.3 1.1 0.5 1.5 0.3 0.3-0.1 0.5-0.8 0.4-1.3-0.2-2.6-0.5-5.2-0.8-7.8-0.1-0.6-0.1-1.1-0.3-1.6-0.1-0.3-0.5-0.6-0.7-0.6-0.3 0-0.7 0.3-0.8 0.6-0.2 0.6-0.3 1.2-0.3 1.7 0 1 0.1 2.1 0.2 3.2zm-30.5 52.9c0.1 1.3-0.2 2.8 1.3 3.6 0.4 0.2 1 0.5 1.4 0.3s0.6-0.8 0.7-1.3c0.1-0.8 0.2-1.7 0.2-2.5 0-0.9 0-1.9-0.4-2.7-0.3-0.6-1.2-1-1.8-1.1-0.2-0.1-0.9 0.8-1 1.3-0.4 0.8-0.4 1.6-0.4 2.4zm-3.1 379.8c-0.4 0.6-0.9 0.9-0.8 1.2 0.1 0.6 0.4 1.1 0.7 1.7 0.3 0.4 0.8 0.7 1 1.1 0.6 1.2 1.1 2.5 1.7 3.7 1.1 2 2.3 4 3.5 5.9 0.2 0.3 0.8 0.3 1.2 0.5 0-0.5 0.1-1 0.1-1.5 0-0.2-0.3-0.4-0.4-0.5-1-1.2-2.1-2.4-2.4-4-0.1-0.4-0.4-0.8-0.6-1.3-0.9-1.8-1.9-3.6-2.9-5.3-0.3-0.5-0.6-0.9-1.1-1.5zm8.2-327c0.1 0 0.1-0.1 0.2-0.1 0-0.1 0.1-0.3 0-0.4-0.2-0.5-0.3-1.1-0.6-1.3s-1.1-0.2-1.4 0-0.5 0.9-0.4 1.3c0.3 1.2 0.8 2.4 1.2 3.6 0.5 1.2 1.1 2.5 1.7 3.7 0.2 0.4 0.5 1.1 0.7 1.1 0.5-0.1 1.1-0.4 1.4-0.7 0.2-0.3 0.2-0.9 0-1.3-0.5-1-1.1-1.8-1.6-2.8-0.4-0.9-0.8-2-1.2-3.1zm37.2-56.8c1.5-1.4 0.9-2.8-0.4-3.7-0.3-0.2-0.5-0.6-0.7-1-0.7-1.4-1.4-2.8-1.7-4.5-0.2-1-1.4-1.9-2.2-2.7-0.3-0.3-0.8-0.4-1.2-0.6-0.1 0.5-0.1 1-0.1 1.4 0 0.2 0.1 0.4 0.2 0.6 0.9 1.4 1.7 2.8 2.8 4.1 0.9 1.1 1.3 2.2 1.5 3.6 0.1 0.4 0.3 0.8 0.5 1.2 0.3 0.5 0.8 1 1.3 1.6zm2.7 65.5c0.1-2.5-1.1-4.7 0-6.9 0.1-0.1 0-0.5-0.1-0.6-0.4-0.3-0.9-0.7-1.4-0.7-0.3 0-0.7 0.6-0.8 1-0.2 0.9-0.4 1.9 0.4 2.7 0.1 0.1 0.1 0.5 0 0.7-0.9 1-0.3 2.1-0.2 3.2 0.1 0.6 0.1 1.2 0 1.7s-0.6 1.2 0.1 1.4c0.5 0.1 1.3-0.3 1.6-0.8 0.4-0.4 0.3-1.2 0.4-1.7zm-9.2-143.1c-1 0.2-2 0.4-2.6 1.6-1 2-2 3.9-3 5.8-0.1 0.3 0.1 0.7 0.1 1 0.3-0.1 0.8-0.2 1-0.4 0.3-0.3 0.4-0.9 0.7-1.1 1.8-0.9 2.1-3 3.5-4.2 0.5-0.4 0.8-1 1.1-1.6 0.4-0.7 0.1-1.2-0.8-1.1zm10 487c0.2-0.5 0.5-1 0.5-1.5 0.1-2.3 0.1-4.7 0-7 0-1-0.6-1.9-2.1-2.1 0.6 3.6-0.8 7.3 1.6 10.6zm56.2-163.7c0.4 0.3 0.7 0.9 1.2 1.1 0.8 0.2 1.4-0.2 1.5-1.2 0.1-0.8 0.3-1.6 0.4-2.5 0.2-1.5 0.4-3.1 0.6-4.6 0-0.3-0.4-0.6-0.6-0.9-0.2 0.3-0.6 0.6-0.7 1-0.3 0.7-0.6 1.4-0.8 2.2-0.5 1.4-1 3-1.6 4.9zm-54.6 40.9c-0.1-0.5-0.2-1.1-0.4-1.6-0.2-0.3-0.6-0.8-0.9-0.7-0.3 0-0.8 0.5-0.9 0.8-0.1 0.6-0.2 1.3 0 1.9 0.3 1.4 0.3 2.7-0.4 3.9-0.6 1.1 0.3 1.9 0.7 2.7 0 0.1 0.9-0.1 0.9-0.2 0.3-0.9 0.4-1.9 0.6-2.8 0.1-0.9 0.1-1.8 0.2-2.7-0.1-0.4 0-0.8 0.2-1.3zm27.8-206.8c0.3-0.1 0.6-0.1 0.7-0.2 1-0.9 2-1.9 3-2.9 0.6-0.6 1.2-1.3 1.7-2.1 0.3-0.4 0.5-1 0.5-1.5 0-0.2-0.8-0.7-1-0.6-0.4 0.3-0.7 0.8-1.1 1.2-0.4 0.5-0.7 1.2-1.1 1.6-1.1 0.9-2.3 1.7-3.4 2.6-0.2 0.2-0.4 0.8-0.2 1.1 0.1 0.4 0.6 0.6 0.9 0.8zm55.2 105.1c-0.1-0.1-0.3-0.2-0.4-0.2-0.5 0.8-1.2 1.5-1.6 2.3-0.7 1.2-0.3 1.7 1 1.7 0.7 0 1.2 0 1.5 0.8 0.1 0.3 0.7 0.6 1.1 0.6 1.4-0.1 2-1.1 1.7-2.6-0.1-0.7-0.4-0.8-1-0.5-2 0.7-2 0.7-2.2-1.5 0-0.3 0-0.5-0.1-0.6zm-117 246.6c-0.2 0.3-0.4 0.6-0.4 0.8 0.2 0.5 0.4 0.9 0.7 1.3 0.6 0.9 1.4 1.7 1.6 2.6 0.4 1.8 1.5 2.9 2.8 4.1 0.3 0.3 0.7 0.3 1.1 0.5 0-0.4 0-0.9-0.2-1.3-1.1-2-2.3-3.9-3.5-5.8-0.4-0.6-0.8-1.1-1.3-1.6-0.1-0.1-0.4-0.3-0.8-0.6zm146.3-147c-0.3-0.4-0.4-0.9-0.7-1-0.2-0.1-0.7 0.3-0.9 0.5-0.7 1.5-1.3 3.1-2 4.7l-0.6 1.5c-0.2 0.4-0.5 0.8-0.5 1.2 0 0.3 0.3 0.7 0.5 1.1 0.3-0.2 0.8-0.4 1-0.7s0-0.8 0.2-1.2c0.1-0.5 0.3-1.2 0.6-1.3 2.1-1 1.3-3.3 2.4-4.8zm-4.5-145.9h-0.4c-0.1 0.1-0.2 0.3-0.2 0.4 0.2 1.1-0.5 1.6-1.4 2-1.4 0.6-1.8 1.8-1.9 3.2 0 0.5 0.3 1.3 0.6 1.3 0.5 0.1 1.4-0.1 1.7-0.5 0.5-0.8 0.8-1.8 1.1-2.7s0.5-1.7 0.7-2.6c-0.1-0.4-0.2-0.8-0.2-1.1zm-141.9-63.4l0.4-0.4c-0.3-0.6-0.9-1.1-0.9-1.7-0.3-2.8-2.6-4-4.2-5.8-0.1-0.2-0.5-0.1-0.7-0.2 0 0.3-0.1 0.6 0.1 0.8l1.5 2.7c0.5 0.8 0.9 1.6 1.5 2.3 0.6 0.8 1.5 1.5 2.3 2.3zm-8.6-23.3c-0.1 0-0.2-0.1-0.3-0.1 0.4-2-0.6-3.2-2.1-4.1-0.3-0.2-0.5-0.3-0.8-0.4-0.1 0.3-0.3 0.6-0.2 0.9 0.2 1.3 0.6 2.6 0.8 3.8 0.2 1.1 1.1 1.3 1.9 1.1 0.3-0.1 0.5-0.8 0.7-1.2zm-20.4 147.7c-0.1 0.2-0.3 0.4-0.3 0.5 0.5 2.1 0.9 4.2 1.4 6.4 0 0.2 0.3 0.4 0.5 0.5 0.3 0.2 0.7 0.4 1.1 0.6 0.1-0.4 0.4-1 0.3-1.3-0.7-2.1-1.6-4.1-2.4-6.1 0-0.2-0.3-0.4-0.6-0.6zm27.9-256c0.3 0.3 0.7 1 1 0.9 0.5-0.2 1.1-0.6 1.3-1.1 0.4-1.6 0.7-3.2 1-4.9 0.1-0.3-0.1-0.7-0.1-1.1-0.4 0.1-0.8 0.2-1.1 0.3-0.3 0.2-0.5 0.4-0.6 0.7-0.6 1.7-1 3.3-1.5 5.2zm96.4 76.5c-0.4-1-0.7-1.9-1.2-2.9-0.1-0.3-0.6-0.4-0.9-0.6-0.1 0.3-0.4 0.7-0.4 1.1-0.2 1.2-0.3 2.5-0.5 3.7-0.1 0.8 0.2 1.2 1 1.2 1.3 0.2 1.7-0.4 2-2.5zm69.6 242.9c0.1 0.9 0.1 1.8 0.3 2.6 0.1 0.3 0.5 0.6 0.8 0.7 0.2 0 0.7-0.4 0.7-0.6 0.1-1.6 0.2-3.2 0.2-4.9 0-0.3-0.7-0.7-1.1-0.7-0.3 0-0.7 0.6-0.8 0.9-0.2 0.7-0.1 1.3-0.1 2zm-134.6-191.4h-0.4c-0.1 0.3-0.2 0.5-0.2 0.8v5.8c0 0.3 0.5 0.6 0.7 0.8 0.3-0.3 0.9-0.6 0.9-1 0-1.2-0.1-2.5-0.2-3.7-0.2-0.8-0.6-1.8-0.8-2.7zm-27.6-105.7c0.6-0.2 1.4-0.3 1.6-0.7 0.6-1 1.1-2.1 1.4-3.2 0.2-0.6-0.5-0.7-1-0.3-0.9 0.8-1.9 1.7-2.8 2.6-0.2 0.2-0.4 0.8-0.3 1 0.3 0.3 0.7 0.4 1.1 0.6zm21 443c0.1-0.1 0.3-0.2 0.4-0.3 0.3-2.3-0.9-4.3-1.3-6.4-0.1-0.3-0.8-0.4-1.2-0.6-0.1 0.5-0.3 1-0.2 1.5 0.4 1.5 0.9 3 1.5 4.5 0.3 0.4 0.6 0.8 0.8 1.3zm-36.2-24.1c0.2-0.1 0.4-0.2 0.7-0.3-0.2-0.7-0.2-1.4-0.6-1.9-1.1-1.8-2.3-3.4-3.5-5.1-0.2-0.3-0.5-0.4-0.8-0.6-0.1 0.4-0.3 0.8-0.2 1 0.4 0.7 1.1 1.4 1.5 2.1 0.5 0.7 0.8 1.6 1.3 2.3 0.5 0.8 1 1.6 1.6 2.5zm97.2-145.8c0.1 0.6 0 1.1 0.2 1.4 0.1 0.3 0.3 0.6 0.5 0.7 0.2 0 0.6-0.3 0.7-0.5 0.4-1.5 0.8-3 1.1-4.5 0.1-0.8-0.4-1-1-0.6-0.3 0.2-0.7 0.6-0.8 1-0.5 0.8-0.6 1.8-0.7 2.5zm-20.1-270c-0.1 0-0.5 0.1-0.6 0.3s0 0.6 0.1 0.9c0.3 0.6 0.5 1.1 0.9 1.7 0.5 0.9 1.6 1 2 0.2 0.3-0.7 0.5-1.5 0.4-2.3 0-0.3-1-0.4-1.6-0.6-0.4-0.1-0.7-0.1-1.2-0.2zm-100.6 383.8h-0.2c0.3 1.1 0.5 2.2 0.8 3.2 0.1 0.4 0.6 0.6 0.9 0.9 0.2-0.4 0.5-0.8 0.5-1.2-0.1-1.2-0.3-2.5-0.6-3.7-0.1-0.4-0.5-0.7-0.8-1-0.2 0.4-0.5 0.8-0.7 1.2 0.1 0.3 0.1 0.4 0.1 0.6zm106.7-339.9c-1.1 0.3-2.1 0.6-3 0.9-0.5 0.2-1 0.5-1.4 0.8-0.3 0.3-0.3 0.7-0.5 1.1 0.4 0.1 0.9 0.4 1.3 0.4 1.8 0 3-1 3.6-3.2zm-66.3 66.3c0.1-0.2 0.1-0.3 0.2-0.5 0.2-1.2 0.5-1.3 1.5-0.7 0.3 0.2 0.6 0.4 1 0.4 0.2 0 0.5-0.2 0.8-0.4-0.2-0.2-0.3-0.4-0.5-0.6-0.4-0.3-0.9-0.5-1.3-0.8-0.6-0.6-1.1-0.7-1.6 0-0.2 0.3-0.7 0.4-1.1 0.4-0.4 0.1-0.8 0-1.3 0 0.1 1.4 0.9 2 2.3 2.2zm49.9 371.6c-0.4-0.6-0.7-1.1-1-1.6-0.5 0.4-1.2 0.7-1.4 1.2-0.3 0.9-0.4 1.9-0.4 2.8 0 0.6 0.4 1 0.9 0.5 0.6-0.8 1.2-1.8 1.9-2.9zm-61.6-475c-0.2-0.3-0.5-0.7-0.7-1.2-0.4 0.3-0.9 0.5-1.2 0.8-0.4 0.4-0.6 0.9-0.8 1.4-0.3 0.7-0.2 1.3 0.6 1.6s1.5 0.2 1.8-0.8c0.1-0.4 0.2-1 0.3-1.8zm96.6 245.7c0-0.8-0.8-1.6-1.2-1.1-0.9 0.8-1.8 1.5-3 1.6-0.1 0-0.2 0.5-0.3 0.8 0.2 0.1 0.5 0.2 0.7 0.3 0.6 0.1 1.3 0.1 1.9 0.1 0.8 0 1.9-0.8 1.9-1.7zm-15.6-157c1 0 2.2-1.9 1.8-2.9-0.4-0.9-1.6-1-2.1-0.1-0.3 0.4-0.4 0.9-0.6 1.3-0.7 1-0.2 1.7 0.9 1.7zm-92.6 253.5c0-0.6 0.2-1.2 0-1.6-0.2-0.5-0.8-1.2-1.2-1.1-0.8 0-1 0.8-0.8 1.5 0.2 0.9 0.5 1.7 0.8 2.5 0.1 0.3 0.5 0.4 0.8 0.7 0.2-0.3 0.4-0.5 0.5-0.8-0.1-0.5-0.1-0.8-0.1-1.2zm40.3-335.3c-0.5-0.9-0.9-1.7-1.5-2.5-0.2-0.2-0.7-0.4-0.9-0.3-0.3 0.2-0.6 0.7-0.6 0.9 0.2 0.9 0.5 1.8 1 2.6 0.2 0.3 0.9 0.4 1.3 0.3 0.2 0 0.3-0.5 0.7-1zm-39.5 82.2c-0.3-1.5-0.8-2.7-1.9-3.6-0.3-0.2-1-0.3-1.2-0.1-0.3 0.3-0.4 0.9-0.2 1.2 0.5 1.5 1.7 2.1 3.3 2.5zm108 362.2c-0.3-0.4-0.5-0.9-0.9-1.2-0.1-0.1-0.8 0-0.8 0.2-0.6 1.2-1.1 2.4-1.5 3.6-0.1 0.2 0.2 0.6 0.4 0.7s0.8-0.2 0.8-0.3c0.1-1 0.8-1.5 1.5-2 0.3-0.2 0.3-0.6 0.5-1zm-57.3-129.8c-0.2 0.3-0.4 0.4-0.4 0.6-0.2 1.7-0.4 3.5-0.5 5.2 0 0.2 0.3 0.4 0.5 0.7 0.2-0.2 0.7-0.4 0.7-0.7 0.1-1.6 0.1-3.2 0.1-4.8 0.1-0.3-0.2-0.6-0.4-1zm-35.2-344c-0.1-0.3-0.1-0.9-0.4-1.3-0.2-0.4-0.7-0.8-1-0.7-0.3 0-0.7 0.5-0.8 0.9-0.2 0.3-0.1 0.8-0.2 1.2-0.1 0.6-0.3 1.2 0.6 1.3 1 0.1 1.7-0.4 1.8-1.4zm-20.9 97c-0.5-0.8-0.9-1.6-1.6-2.3-0.5-0.5-1.2-0.2-1.1 0.6s0.4 1.6 0.7 2.3c0.2 0.3 0.7 0.5 1.1 0.7 0.3-0.3 0.6-0.7 0.9-1.3zm113.1 373.2c0.1 0.2 0.2 0.8 0.6 0.9 0.3 0.1 0.9-0.1 1.3-0.3 0.7-0.5 1.2-1.3 0.7-2.2-0.2-0.4-0.9-0.7-1.4-0.6-1.1 0.1-0.8 1.2-1.1 1.9-0.1-0.1-0.1-0.1-0.1 0.3zm-107.6-479.5c1.2-0.8 2.5-1.5 3.1-2.8 0.1-0.2 0.1-0.7-0.1-0.9s-0.6-0.2-0.9-0.1c-1.1 0.2-2.4 2.5-2.1 3.8zm-15.6 18.8c-0.5 0.7-0.9 1.1-0.9 1.4 0 0.9-0.1 2 1.1 2.2s1.4-1 1.4-1.7c-0.1-0.5-0.9-1-1.6-1.9zm62.7-36.8c0.7-0.5 1.4-0.8 1.9-1.4 0.6-0.6 0.1-1.4-0.7-1.6-1.2-0.2-1.7 0.7-2.1 1.6-0.4 0.8-0.2 1.2 0.9 1.4zm29.8 528c-0.2-0.1-0.3-0.1-0.5-0.2-0.3 0.4-0.5 0.9-0.8 1.3-0.4 0.7-0.7 1.5-1 2.3-0.2 0.4-0.4 0.9-0.5 1.3 0 0.4 0.2 0.8 0.3 1.1 0.3-0.3 0.6-0.6 0.8-1 0.3-0.6 0.3-1.5 0.7-1.9 1.1-0.9 0.9-1.9 1-2.9zm-62.7-483c1.3-0.3 2.9-2.9 2.8-3.9 0-0.2-0.3-0.6-0.4-0.6-0.3 0-0.8 0.2-0.9 0.4-0.6 1.4-1.1 2.8-1.5 4.1zm54 335.9c1.4 0 2-0.5 2-1.4 0-0.8-0.2-1.3-1.1-1.4-1.1 0-1.4 0.8-1.3 1.7-0.1 0.4 0.2 0.8 0.4 1.1zm-39 118.1c-0.5-0.5-1.1-1.2-1.7-1.8-0.1-0.1-0.5 0-0.6 0.1s-0.1 0.5 0 0.7c0.6 1.3 1.3 2.6 2 3.9 0.1 0.2 0.5 0.2 0.8 0.3 0-0.3 0.1-0.7 0-0.8-0.9-0.5-1-1.2-0.5-2.4zm82.8-412.5c0.9-0.9 1.5-4 1.1-4.8-0.1-0.2-0.3-0.4-0.5-0.4s-0.4 0.2-0.5 0.4c-0.4 1.5-0.2 3-0.1 4.8zm30.3 161.5c-0.2-0.1-0.5-0.7-0.8-0.7-1-0.1-2 0.9-1.8 1.7 0.1 0.3 0.6 0.8 0.9 0.8 0.9 0.1 1.7-0.6 1.7-1.8zm-22.1-214.5c0-0.8-0.2-1.5-1.1-1.5-0.6 0-1.5 0-1.4 1 0 0.9 0.5 1.5 1.5 1.5 0.7 0.1 1.1-0.2 1-1zm-38.5 485.6c-0.3-0.2-0.6-0.7-1.1-0.8-0.8-0.2-0.8 0.5-0.8 1.1 0 0.2 0 0.3-0.1 0.5-0.1 0.6-0.7 1.4 0.3 1.7s1.2-0.7 1.5-1.4c0.1-0.3 0.1-0.5 0.2-1.1zm-43.1-506.4c-0.3-0.3-0.5-0.8-0.8-0.8s-0.9 0.3-1 0.6c-0.3 0.6-0.4 1.2-0.4 1.8 0 0.3 0.3 0.8 0.5 0.9 0.3 0.1 0.8-0.2 1-0.4 0.3-0.6 0.4-1.3 0.7-2.1zm66 25.7c0.2 0 0.4 0 0.6 0.1 0.4-1.1 0.8-2.2 1-3.3 0.1-0.2-0.6-0.6-1-1-0.2 0.3-0.6 0.6-0.7 0.9-0.2 0.7-0.2 1.3-0.2 2 0.1 0.5 0.2 0.9 0.3 1.3zm-114.7 91.4c-0.2 0.1-0.3 0.2-0.5 0.4 0.4 0.9 0.8 1.8 1.4 2.7 0.2 0.3 0.8 0.4 1.3 0.5 0.1-0.5 0.3-1.1 0.1-1.4-0.7-0.8-1.6-1.5-2.3-2.2zm30.9-13.2c0.2-0.1 0.4-0.2 0.7-0.3-0.3-0.9-0.5-1.9-0.9-2.7-0.1-0.3-0.8-0.5-1.1-0.4-0.2 0.1-0.5 0.8-0.4 1.1 0.5 0.8 1.1 1.5 1.7 2.3zm65.6 243c-0.2-0.3-0.4-0.6-0.7-0.9-0.3 0.2-0.6 0.4-0.8 0.7-0.3 0.6-0.6 1.2-0.7 1.8-0.1 0.3 0.2 0.7 0.3 1.1 0.3-0.2 0.8-0.2 1-0.5 0.4-0.7 0.6-1.4 0.9-2.2zm-55.7-41.3c-0.6 0.8-1.1 3.2-0.8 4 0.1 0.2 0.2 0.4 0.4 0.4s0.5-0.1 0.6-0.3c0.5-0.6 0.4-3.1-0.2-4.1zm-44.1-192.4l1.8 3c0.1 0.1 0.5 0.1 0.5 0.1 0.1-0.2 0.3-0.5 0.2-0.7-0.4-1-0.8-1.9-1.2-2.8-0.1-0.2-0.5-0.3-0.7-0.5-0.2 0.2-0.3 0.5-0.6 0.9zm38.5 13.7c-0.1 0.2-0.3 0.3-0.4 0.5 0.7 0.9 1.5 1.8 2.3 2.6 0.2 0.2 0.7 0 1.1-0.1 0-0.3 0.1-0.8-0.1-1-1-0.7-1.9-1.4-2.9-2zm-56.3 223.2c0.1 0.8 0.4 1.6 0.7 2.3 0.1 0.2 0.4 0.4 0.6 0.4s0.5-0.4 0.4-0.6c-0.2-1.1-0.5-2.1-0.8-3.2 0-0.1-0.4-0.3-0.6-0.2-0.1 0-0.3 0.3-0.3 0.4-0.1 0.4 0 0.7 0 0.9zm24.3 51.3c-0.6-0.6-1.1-1.1-1.6-1.5-0.3 0.3-1 0.8-0.9 1 0.4 0.7 0.9 1.3 1.4 1.9 0.3-0.5 0.6-0.8 1.1-1.4zm145.3-154.4l0.3 0.3c0.6-0.5 1.3-1 1.8-1.6 0.3-0.4 0.1-1 0.1-1.6-0.5 0.1-1.2 0.1-1.4 0.4-0.4 0.7-0.6 1.6-0.8 2.5zm-126.6 242.4c-0.1 0.1-0.2 0.2-0.3 0.2 0.2 0.4 0.4 0.9 0.6 1.3 0.2 0.5 0.4 1.1 0.6 1.6 0.2 0.3 0.3 0.7 0.6 0.9 0.1 0.1 0.7 0 0.7-0.2 0.1-0.4 0.1-0.8 0-1.1-0.3-0.7-0.7-1.4-1.2-2-0.2-0.3-0.6-0.5-1-0.7zm2.7-424.8c0.2 0.8 0.4 1.4 0.7 1.9 0.1 0.2 0.6 0.3 0.9 0.3 0.1 0 0.3-0.5 0.3-0.8-0.1-0.5-0.2-1.1-0.4-1.6-0.1-0.3-0.5-0.5-0.8-0.8-0.3 0.4-0.5 0.7-0.7 1zm-14.7 377c-0.4-0.9-0.7-1.6-1.1-2.4-0.1-0.2-0.5-0.5-0.6-0.4-0.2 0.1-0.5 0.4-0.6 0.7-0.4 1 0.5 2 2.3 2.1zm145.9-215.2c-1.2 0.2-1.9 0.7-2.1 1.6-0.1 0.4 0.1 0.8 0.2 1.2 0.4-0.2 1.1-0.3 1.3-0.6 0.3-0.6 0.3-1.3 0.6-2.2zm-68.5 285.4c0.7 0.5 1.1 1 1.5 1 0.9 0 1.1-0.8 1-1.4-0.1-0.3-0.7-0.9-0.9-0.8-0.5 0.1-0.9 0.6-1.6 1.2zm-26.8-473.6c0.3 0.7 0.6 1.3 0.9 1.8 0 0 0.5 0 0.5-0.1 0.1-0.6 0.3-1.3 0.3-1.9 0-0.4-0.5-0.7-0.8-1-0.3 0.3-0.5 0.7-0.9 1.2zm28.3 174.9c0.6 0.5 0.9 0.8 1.3 1.1 0.4-0.5 0.8-1 1-1.6 0.1-0.2-0.5-0.6-0.8-1-0.4 0.5-0.9 0.9-1.5 1.5zm-50.3-79.7c-0.1-1.3-0.8-1.5-1.7-1.6-0.3 0-0.6 0.3-0.9 0.5 0.6 0.5 1.2 1.1 1.8 1.5 0.1 0.1 0.6-0.3 0.8-0.4zm121.6 85c-0.1-0.1-0.3-0.2-0.4-0.2-0.6 1-1.1 2-1.7 3 0.3 0.1 0.6 0.4 0.8 0.3 0.8-0.3 1.5-2.2 1.3-3.1zm-145.3 173.7h-0.5c-0.2 0.4-0.5 0.8-0.5 1.1 0 0.7 0 1.5 1 1.5 0.3 0 0.9-0.5 0.9-0.7-0.3-0.7-0.6-1.3-0.9-1.9zm51.7-350.9c0.5 0.6 0.7 1.1 1 1.5 0.4-0.5 0.9-1 1.2-1.6 0-0.1-0.6-0.8-0.9-0.8-0.4 0.1-0.7 0.5-1.3 0.9zm-55 86.3c0 1.6 0.6 2.4 1.5 2.3 0.3 0 0.7-0.2 0.8-0.4s0-0.7-0.2-0.8c-0.6-0.4-1.3-0.7-2.1-1.1zm39.5-18c-0.5 0.6-1.1 1.2-1.1 1.3 0.3 0.5 0.8 0.9 1.3 1.1 0.2 0.1 1-0.6 0.9-0.8-0.1-0.4-0.6-0.9-1.1-1.6zm35 250.7c-0.2-0.2-0.3-0.5-0.5-0.7-0.2 0.3-0.6 0.7-0.6 1 0.1 0.7 0.1 1.3-0.5 1.8-0.1 0.1 0 0.5 0 0.8 0.3-0.1 0.8-0.2 0.9-0.4 0.2-0.7 0.4-1.6 0.7-2.5zm-80.6 8.7c-0.5-0.7-0.9-1.4-1.2-2-0.2 0.3-0.6 0.7-0.5 1 0.2 0.7 0.6 1.4 0.9 2 0.2-0.3 0.5-0.6 0.8-1zm147.9-129.8c-1 0.1-1.9 1.1-1.7 1.7 0.1 0.3 0.6 0.6 0.8 0.6 1.1-0.4 1-1.3 0.9-2.3zm-63.4 278.4c-1.6 0.7-2.1 1.9-1.8 3.9 0.6-1.4 2-2.2 1.8-3.9zm-95.2-261.8h-0.5c-0.2 0.4-0.5 0.9-0.4 1.2 0.1 0.4 0.5 0.8 0.8 1.2 0.3-0.4 0.9-0.8 0.9-1.3 0.1-0.3-0.5-0.7-0.8-1.1zm14.3-137.4c-0.1 0.1-0.3 0.2-0.4 0.3 0.3 0.8 0.6 1.7 1 2.5 0.1 0.3 0.6 0.4 1 0.5 0.1-0.2 0.3-0.5 0.3-0.6-0.8-0.9-1.4-1.8-1.9-2.7zm51.2 257.8c1.2-0.9 1.4-1.9 0.8-2.5-0.2-0.2-0.6-0.4-0.8-0.3s-0.4 0.5-0.4 0.7c0.1 0.7 0.3 1.3 0.4 2.1zm-21.7-59.3c0.4 0.6 0.7 0.9 1 1.3 0.3-0.6 0.6-1.1 0.8-1.7 0.1-0.3-0.4-0.7-0.6-1-0.3 0.4-0.7 0.9-1.2 1.4zm34.5-285.2c-0.7-0.4-1.1-0.9-1.3-0.8-0.5 0.2-0.8 0.6-1.3 1 0.3 0.3 0.7 1 1 0.9 0.5-0.1 0.9-0.6 1.6-1.1zm-31.1 271c1.4-0.9 1.6-2 0.8-3.1-1.1 0.8-1.1 1.8-0.8 3.1zm-21.5 149c-0.2-1.2-0.9-1.3-1.7-1.4-0.2 0-0.4 0.3-0.6 0.5 0.5 0.5 1 1 1.6 1.4 0.1 0 0.5-0.4 0.7-0.5zm0.9-70.3c0.4 0.6 0.8 1.1 1.2 1.5 0.2-0.3 0.7-0.8 0.6-1-0.2-0.6-0.6-1.1-1-1.7-0.3 0.3-0.5 0.6-0.8 1.2zm131.5-149.9h-0.5c-0.2 0.5-0.6 0.9-0.6 1.4 0 0.3 0.4 0.6 0.6 0.9 0.4-0.4 0.9-0.8 1.1-1.3 0.2-0.2-0.3-0.7-0.6-1zm-123.9-205.7c-0.4-0.5-0.6-0.8-0.8-1-0.4 0.6-0.9 1.1-1.3 1.7-0.1 0.1 0.4 0.5 0.6 0.7 0.5-0.4 1-0.9 1.5-1.4zm51.6 492.7c-0.7-0.5-1-1-1.5-1.1-0.2-0.1-0.6 0.5-0.9 0.7 0.4 0.4 0.7 0.9 1.2 1.2 0.1 0.1 0.6-0.4 1.2-0.8zm-15.4-250.8c-0.5-0.5-0.8-1-1.3-1.1-0.2-0.1-0.6 0.5-0.9 0.8 0.4 0.4 0.8 0.9 1.2 1.3 0.3-0.3 0.6-0.5 1-1zm-83.2 89.2c-0.7-1.1-1.1-1.7-1.5-2.4-0.2 0.3-0.6 0.7-0.6 0.9 0.3 0.6 0.7 1.2 1.1 1.8 0.1 0 0.6-0.2 1-0.3zm59.6-218.9c-0.4 0.6-0.9 1.1-0.8 1.2 0.3 0.4 0.7 0.8 1.2 1.1 0.1 0 0.7-0.5 0.7-0.7-0.3-0.4-0.6-0.9-1.1-1.6zm10.5 217.6c-0.5-0.5-0.8-0.9-1.2-1.2-0.3 0.3-0.8 0.7-0.7 0.9 0.2 0.4 0.6 0.8 1 1.2l0.9-0.9zm-0.8-69.1c0.4 0.5 0.7 0.8 1 1.2 0.2-0.3 0.7-0.7 0.6-0.9-0.1-0.4-0.5-0.7-0.8-1.1l-0.8 0.8zm68.3-8.6c-0.4 0.5-0.7 0.8-0.7 0.9 0.3 0.5 0.7 0.9 1 1.3 0.2-0.2 0.7-0.6 0.7-0.7-0.2-0.4-0.5-0.8-1-1.5zm21.6-15.4v-0.5c-0.4-0.2-0.8-0.5-1.3-0.5-0.3 0-0.6 0.4-0.8 0.6 0.3 0.3 0.6 0.7 0.9 0.8 0.4 0.1 0.8-0.3 1.2-0.4zm-51.5 100.4c-0.6-0.3-1-0.7-1.2-0.7-0.4 0.3-0.7 0.7-0.9 1.1 0 0.1 0.5 0.7 0.6 0.6 0.5-0.2 0.9-0.5 1.5-1zm-26.2-370.3c0.4-0.5 0.8-0.9 0.9-1.3 0.1-0.2-0.4-0.5-0.6-0.8-0.4 0.4-0.7 0.7-1 1.1-0.1 0.1 0.3 0.5 0.7 1zm-21.3 353.4c-0.1 0-0.3 0.1-0.4 0.1 0.1 0.5 0 1 0.2 1.4 0.2 0.3 0.6 0.4 1 0.6 0-0.4 0.2-0.8 0-1.1-0.1-0.4-0.5-0.7-0.8-1zm50.6-272.1c-0.8 0.4-1.4 0.7-2 1.1 0.2 0.2 0.4 0.7 0.6 0.7 0.8 0 1.3-0.5 1.4-1.8zm-59.1 258.6c0.4 0.4 0.7 1 0.9 0.9 0.4-0.1 0.6-0.5 0.9-0.8-0.3-0.3-0.6-0.7-1-0.9-0.1-0.1-0.4 0.4-0.8 0.8zm-13.1 69.3l-1.2-1.2c-0.1 0.2-0.4 0.5-0.4 0.6 0.2 0.5 0.5 1 0.8 1.5 0.2-0.2 0.4-0.4 0.8-0.9zm-51-73.2c0.4-0.6 0.8-0.9 0.7-1.2s-0.5-0.6-0.8-0.8c-0.3 0.3-0.7 0.6-0.7 0.9s0.4 0.6 0.8 1.1zm158.1-311.3h0.4c0.2-0.3 0.5-0.6 0.5-0.8-0.1-0.4-0.4-0.8-0.7-1.3-0.2 0.3-0.6 0.6-0.6 0.8-0.1 0.5 0.2 0.9 0.4 1.3zm-73.1 456.6c-0.1-0.2-0.2-0.4-0.3-0.5l-1-1c-0.2 0.3-0.6 0.6-0.5 0.8 0.2 0.4 0.5 0.8 0.8 1.1 0.2 0 0.6-0.3 1-0.4zm-12.5 28.2c-0.3 0.6-0.6 1-0.5 1.2 0.3 0.4 0.7 0.8 1 1.1 0.2-0.2 0.5-0.6 0.5-0.7-0.2-0.5-0.5-0.9-1-1.6zm42.8-134.9c-0.7-0.4-1-0.8-1.4-0.8-0.2 0-0.5 0.4-0.8 0.6 0.3 0.3 0.6 0.6 1 0.8 0.2 0 0.6-0.3 1.2-0.6zm-60.5 41.3c-0.3 0.5-0.7 0.9-0.6 1.1 0.2 0.4 0.6 0.7 0.9 1.1 0.2-0.2 0.6-0.5 0.6-0.6-0.2-0.5-0.5-0.9-0.9-1.6zm-22.5-31.4c0.3-0.1 0.5-0.1 0.8-0.2-0.2-0.6-0.3-1.1-0.5-1.7 0 0-0.5 0.1-0.7 0.2 0.1 0.6 0.3 1.2 0.4 1.7zm-44.9-84.5l-0.3 0.3c0.2 0.5 0.4 1 0.7 1.5 0.1 0.2 0.5 0.2 0.7 0.3 0.1-0.2 0.3-0.6 0.2-0.7-0.4-0.5-0.9-0.9-1.3-1.4zm50.6-238.3c-0.4-0.4-0.7-0.8-0.8-0.8-0.3 0.2-0.7 0.5-0.8 0.8-0.1 0.2 0.4 0.6 0.6 0.8 0.3-0.1 0.6-0.4 1-0.8zm-54.2 236.9c0.1 1.5 0.6 1.8 1.9 1.4-0.7-0.6-1.3-1-1.9-1.4zm94.9 5.4c0.4-0.7 0.7-1 0.8-1.4 0.1-0.2-0.3-0.5-0.5-0.7-0.3 0.3-0.7 0.6-0.9 0.9-0.1 0.2 0.3 0.6 0.6 1.2zm-38 162.8c-0.1 0.1-0.2 0.1-0.4 0.2-0.4 1.1-0.1 1.7 1.4 1.9-0.4-0.9-0.7-1.5-1-2.1zm56.3-80.7c-0.3-0.4-0.5-0.6-0.7-0.8-0.3 0.3-0.7 0.5-0.8 0.8-0.1 0.2 0.4 0.5 0.6 0.8 0.3-0.2 0.5-0.4 0.9-0.8zm46.3 117.9c0.5-0.6 0.8-0.9 0.9-1.3 0.1-0.2-0.3-0.5-0.5-0.7-0.3 0.2-0.6 0.4-0.7 0.7s0.1 0.6 0.3 1.3zm-68.4 11c-0.2 0.2-0.4 0.3-0.6 0.5 0.4 0.4 0.7 0.8 1.1 1.2 0 0 0.4-0.3 0.6-0.4-0.4-0.4-0.7-0.8-1.1-1.3zm-39.4-124.6c0.2 0.9 0.4 1.6 0.6 2.3 0.8-1.3 0.6-1.7-0.6-2.3zm49.6-381.5c-0.4 0.6-0.6 0.9-0.7 1.2 0 0.2 0.3 0.4 0.5 0.6 0.3-0.3 0.6-0.5 0.8-0.8 0.1-0.2-0.3-0.5-0.6-1zm-49.7 61.7h-0.4c-0.4 0.7-0.6 1.4 0.4 2.2v-2.2zm159.3 146.6c0.4 0.3 0.7 0.7 0.9 0.7s0.7-0.4 0.7-0.6c0-0.3-0.4-0.6-0.6-0.7-0.3 0-0.6 0.4-1 0.6zm-132.6-188.2c-0.3-0.7-0.6-1.1-1.4-0.8-0.1 0.1-0.3 0.5-0.2 0.7 0.4 0.7 1 0.5 1.6 0.1zm-10.6 11.9h0.6c0-0.5 0.1-1.1 0.1-1.6 0 0-0.4-0.1-0.7-0.1v1.7zm102.3 257.6c-0.4-0.3-0.8-0.6-0.9-0.5-0.3 0.2-0.6 0.5-0.7 0.8 0 0.2 0.3 0.4 0.5 0.7 0.4-0.3 0.6-0.6 1.1-1zm-78.7-272.1c-0.4-0.3-0.7-0.7-1-0.6-0.2 0-0.4 0.4-0.6 0.6 0.2 0.2 0.5 0.5 0.8 0.6 0.2 0 0.4-0.3 0.8-0.6zm108.4 219.2l0.6 0.3c0.2-0.4 0.4-0.9 0.5-1.3 0 0-0.3-0.2-0.5-0.3-0.1 0.5-0.3 0.9-0.6 1.3zm-147.5 136.7c-0.2 0.1-0.4 0.2-0.5 0.3 0.3 0.4 0.5 0.9 0.8 1.3 0 0 0.3-0.2 0.5-0.3-0.2-0.4-0.5-0.8-0.8-1.3zm34.2-52.6h-0.7c0.1 0.5 0.1 1 0.2 1.5h0.5v-1.5zm20.9 56.1c-0.2 0-0.4 0.1-0.6 0.1l0.3 1.8c0.2 0 0.3-0.1 0.5-0.1-0.1-0.6-0.2-1.2-0.2-1.8zm-31.3 107.9c-0.4-0.3-0.6-0.6-0.9-0.8-0.1 0-0.4 0.4-0.4 0.4 0.2 0.3 0.4 0.6 0.7 0.8 0 0.1 0.3-0.2 0.6-0.4zm-33.4-225.1c-0.3 0.4-0.6 0.7-0.5 0.8 0.1 0.3 0.3 0.6 0.5 0.8 0.2-0.2 0.5-0.4 0.5-0.5-0.1-0.2-0.3-0.5-0.5-1.1zm90.4 78.2c2-2.7 2.2-6 2.7-9.2-0.8 3-2.6 5.8-2.7 9.2zm5.3-17.2c-0.6 1.9-1.2 3.8-1.8 5.8 1.7-2.1 2.5-4.6 1.8-5.8zm-1.4 21.5l1.8-5.4c-0.2-0.1-0.3-0.1-0.5-0.2-0.6 1.8-1.3 3.6-1.9 5.3 0.3 0.2 0.4 0.3 0.6 0.3zm4.5-27.8c0.4-1 0.7-2 1.1-3-0.2-0.1-0.3-0.1-0.5-0.2-0.4 1-0.7 2-1.1 3 0.2 0.1 0.3 0.2 0.5 0.2zm7-14.3c-0.4 0.4-0.9 0.7-1.3 1.1-0.2 0.2-0.1 0.5-0.2 0.8 0.3-0.1 0.7-0.1 0.9-0.2 0.4-0.4 0.6-1 0.9-1.5-0.1-0.1-0.2-0.2-0.3-0.2zm-8.2 6c0.6-0.9 1.1-1.8 1.7-2.8-0.1-0.1-0.2-0.1-0.3-0.2-0.6 0.9-1.2 1.8-1.7 2.7 0 0.1 0.1 0.2 0.3 0.3zm48.4 79.9c-0.2 0.8-0.4 1.6-0.7 2.4-0.3 0.7-0.7 1.4-1 2.1-0.4 0.9-0.6 1.9-1 2.8l-2.7 8.1c-0.4 1.2-0.7 2.4-1.1 3.5-1.1 2.8-2.2 5.6-3.3 8.3-0.1 0.4-0.1 0.8-0.2 1.2-0.1 0.6-0.3 1.3-0.5 1.8-0.6 1.6-1.2 3.3-1.8 4.9-0.4 1-0.8 1.9-1.2 2.9-0.3 0.7-0.5 1.5-0.7 2.3-0.2 0.7-0.3 1.3-0.5 2l-3.3 9.9c-0.1 0.4-0.1 0.9-0.2 1.4 0.1 0 0.3 0.1 0.4 0.1 0.5-0.9 1-1.7 1.3-2.6 1.8-5.3 3.7-10.5 5.3-15.9 1.6-5.1 3.3-10 5-15 1.3-3.7 2.5-7.4 3.7-11.1 0.2-0.6 0.5-1.1 0.7-1.6 0.6-1.3 1.2-2.5 1.7-3.8s0.9-2.6 1.3-3.9c0.2-0.6 0.3-1.3 0.5-2.2-1.4 0.6-1.5 1.6-1.7 2.4zm-32.2 79.1c0.4-0.7 0.9-1.4 1.1-2.1 1.6-4.5 3.1-9.1 4.6-13.7 1.6-4.7 3.1-9.4 4.8-14.1 1-2.7 1.5-5.6 2.3-8.5-0.1 0-0.2-0.1-0.3-0.1-0.4 0.9-0.9 1.7-1.2 2.6-0.7 2.2-1.2 4.3-1.9 6.5 0 0.1-0.1 0.2-0.1 0.3-0.7 1.7-1.7 3.3-2.1 5-1 4.3-2.8 8.3-4.3 12.4-0.3 0.7-0.6 1.5-0.8 2.2-0.8 2.7-1.5 5.4-2.3 8-0.1 0.4-0.1 0.8-0.2 1.2 0.1 0.2 0.2 0.2 0.4 0.3zm-8.3-11.9c-0.2 0.4-0.4 0.7-0.5 1.1-1.3 3.9-2.5 7.7-3.8 11.6-0.4 1.3-0.9 2.6-1.2 3.9-0.2 0.8-0.3 1.6-0.5 2.4-0.3 1.2-0.5 2.4-0.8 3.6 0.2 0 0.3 0.1 0.5 0.1 2.2-7.5 4.7-14.9 6.7-22.5-0.1-0.1-0.3-0.2-0.4-0.2zm49.3-61.2c-1.1 3.5-2.2 7-3.2 10.5-0.1 0.5 0 1 0.1 1.5 0.2 0 0.4 0 0.6 0.1 1.1-4.1 2.9-8.1 2.9-12.5-0.2 0.1-0.4 0.3-0.4 0.4zm-36.7 74.3c0.3-0.5 0.8-0.9 1-1.4 0.3-0.6 0.3-1.2 0.5-1.8 1.3-3.5 2.6-7.1 3.9-10.6 0.2-0.4 0.2-0.9 0.3-1.4-0.1 0-0.2-0.1-0.4-0.1-0.2 0.4-0.4 0.7-0.5 1.1-0.9 2.2-1.7 4.3-2.6 6.5-1 2.5-2.1 5-2.2 7.7zm-23.2 21.9c0.4-0.6 0.7-1.2 0.8-1.9 0.3-1.8 0.8-3.4 1.7-5 0.7-1.3 0.9-2.9 1.3-4.4-2.6 3.4-3 7.4-3.8 11.3zm23.2-21.9c-1.6 1-2.2 2.6-2.3 4.4 0 0.3 0.2 0.6 0.3 0.8 0.2-0.2 0.6-0.4 0.7-0.6 0.4-1.5 0.8-3.1 1.3-4.6zm12.9-51.3c-0.9 0.9-1.9 4.2-1.5 5.2 0.7-1.8 1.3-3.4 1.9-5-0.1-0.1-0.2-0.2-0.4-0.2zm-3.9 10.5c0.7-1.1 1.7-2.1 1.4-3.5-0.1-0.1-0.3-0.1-0.4-0.2-0.5 1.2-0.9 2.4-1.4 3.6 0.1 0 0.2 0.1 0.4 0.1zm-18.7 20.7c0.2-1.2 0.4-2.2 0.6-3.3-1.1 0.8-1.3 2.1-0.6 3.3zm-1.7 5.8c0.2-0.9 0.3-1.8 0.5-2.7-0.2 0-0.4-0.1-0.6-0.1-0.2 0.9-0.3 1.8-0.5 2.7 0.2 0 0.4 0 0.6 0.1zm-60.4-5.2c0.1-1.3-2.1-5.2-3.5-5.5 1.1 2.1 2.1 3.9 3.1 5.7 0.1 0 0.2-0.1 0.4-0.2zm10.3 47c0.3 2 0.6 4.1 1 6.1 0 0.2 0.4 0.3 0.6 0.4 0.1-0.2 0.4-0.5 0.3-0.6-0.5-2-1.1-4-1.6-6-0.1 0.1-0.2 0.1-0.3 0.1zm-1.5-4.1c0 1 0.1 1.9 0.9 2.5 0.2-0.1 0.3-0.1 0.5-0.2-0.3-0.9-0.6-1.7-0.8-2.6-0.2 0.2-0.4 0.3-0.6 0.3zm9.4-176.6c0.4-0.6 0.6-1.2 0.6-1.8 0-2.7-0.1-5.3 0-8 0.2-3.9 1.1-7.7 0.5-11.7-0.2-1.3-0.1-2.6-0.2-3.8-0.9 8.3-1.6 16.8-0.9 25.3zm-0.4 1v8.6h0.5c0.3-2.9 0.7-5.7 0.1-8.6h-0.6zm0.3 15.3v-5.8c-1.1 1.5-1.2 4.4-0.3 5.8h0.3zm0.9-45.6c-0.1 0.9-0.2 1.6-0.3 2.3 1.4-0.7 1.5-1.2 0.3-2.3zm-45.5 102.7c0-0.4 0.1-0.9 0-1.3-0.3-1.9-1.2-3.7-0.5-5.7 0.1-0.2-0.1-0.5-0.1-0.7-0.4-2.3-0.7-4.5-1.1-6.8-0.1-0.6-0.4-1.1-0.6-1.7-0.2 0.1-0.3 0.1-0.5 0.2 0.3 5.4 0.6 10.8 2.4 16h0.4zm-0.5-39.5c-0.9 2-0.6 14.7 0.4 15.8v-15.8h-0.4zm-1.5-14.9c-1.1-3.5-0.9-7.3-1.1-10.9-0.1 0.8-0.1 1.6-0.1 2.5-0.1 2.4-0.2 4.9-0.3 7.3 0 0.5 0.2 1 0.3 1.5 0.1 0.2 0.3 0.4 0.5 0.5 0.7 0.1 1.5 0.2 2.3 0.3v-2.1c-0.1-0.1-0.2-0.1-0.3-0.2-0.3 0.4-0.5 0.9-0.8 1.3-0.2-0.2-0.3-0.2-0.5-0.2zm-2 17.5h0.5v-8.4c-1.8 2.7-0.5 5.5-0.5 8.4zm4.8 26.8c-0.1-2.7 0.2-5.5-1-8.1-1.1 2.9 0.4 5.4 1 8.1zm-4.2-36.4c0.3-1.9 0.3-3.8 0.3-5.7 0-0.8-0.6-0.9-1.1-0.7 0.2 2.3 0.5 4.3 0.8 6.4zm3.3 4.1v-5.2h-0.3v5.2h0.3zm-4.8-42.9c-0.1-0.8-0.2-1.6-0.2-2.3-0.2 0-0.4 0.1-0.6 0.1 0.1 0.8 0.2 1.6 0.3 2.3 0.2-0.1 0.4-0.1 0.5-0.1zm1.8 13.2c-0.2-1.4-0.3-2.8-0.5-4.2h-0.3c0.2 1.4 0.3 2.8 0.5 4.2h0.3zm36-232.6c-0.1 2.5 0.7 4.9 1.7 7.2 0.2 0.6 0.7 0.8 1.3 0.4l1.2-0.9c-0.4-0.3-0.8-0.6-1.2-1 0 0-0.1 0-0.1-0.1-0.3-0.4-0.7-0.9-0.8-1.3 0-0.2 0.6-0.5 0.9-0.9 0.3-0.3 0.7-0.8 0.7-1.1-0.1-0.8-0.4-1.5-0.7-2.5-1.2 1-2.1 1.4-3 0.2zm5.9-10.7c0.3 1.1 0.8 2.1 1.1 3.1 0.5 1.9 0.9 3.8 1.4 5.7 0.1 0.4 0.3 0.7 0.4 1 0 0 0.5 0 0.5-0.1 0.1-0.4 0.2-0.8 0.1-1.1-0.5-2-1.2-3.9-1.7-5.8-0.2-0.9-0.4-1.8-0.5-2.7 0-0.2 0.2-0.4 0.4-0.5 0.3-0.3 0.5-0.6 0.8-0.8-0.4-0.2-0.7-0.4-0.9-0.4-1.6-0.2-2 0.4-1.6 1.6zm-19.2 216.2c0.9-2.1 1.6-4.2 2.6-6.3 0.9-2 2.1-3.9 3.2-5.8-0.1-0.1-0.3-0.2-0.4-0.3l-0.9 0.9c-0.5 0.7-0.9 1.7-1.6 2.2-0.8 0.7-1.1 1.5-1.5 2.5-0.7 2-1.5 3.9-2.3 5.7s-1.7 3.6-2.5 5.4c-0.2 0.5 0 1.1 0.1 1.9 1.3-2.2 2.4-4.2 3.3-6.2zm12.5-23c-0.1 0.1-0.2 0.5-0.1 0.7 0 0.1 0.5 0.2 0.6 0.1 0.8-0.4 1.6-0.7 2.3-1.2s0.8-1.2 0.2-2.2c-1.1 1-2.1 1.8-3 2.6zm23.4-134.4c0.6-1.1 1.7-2.1 1.6-3.6-0.1-0.1-0.3-0.1-0.4-0.2-0.6 1.2-1.1 2.4-1.7 3.6 0.2 0.1 0.4 0.2 0.5 0.2zm-14.6 272.2c1.2-0.1 2.5-0.2 3.7-0.4 0.8-0.1 1.5-0.5 2.3-0.7 1-0.2 1.9-0.5 2.4-1.5-1.4-0.7-2.5-0.5-3.4 0.5-0.3 0.3-0.8 0.5-1.2 0.6-1.5 0.3-3.1 0.5-4.9 0.8 0.5 0.4 0.8 0.7 1.1 0.7zm34.7-24.5c0.5-0.3 1.3-0.6 1.5-1 0.5-1.2 0.8-2.6 1.2-3.9-1.9 1-2.3 2.9-3.1 4.5l0.4 0.4zm-14.2 14.3c-1.8 0.7-3.3 1.4-4.4 3 1.9 0.1 3.9-1.2 4.4-3zm12.1-12.2c-1.2 1.6-2.4 3.1-3.6 4.8 1.1 0.1 1.8-0.2 2.1-1.1 0.2-0.5 0.5-0.9 0.7-1.3l1.2-2.1c-0.1-0.2-0.3-0.3-0.4-0.3zm-10.2 10.9c1-0.6 1.9-1.2 2.8-1.7-1.4-0.1-2.6 0.8-2.8 1.7zm-11.6 7.9c0.6-0.3 1.3-0.7 1.9-1-0.1-0.1-0.1-0.3-0.2-0.4-0.6 0.3-1.3 0.6-1.9 0.9 0 0.2 0.1 0.4 0.2 0.5zm-26.9-369.6c-0.3-0.8-0.6-1.5-1-2.4-0.5 1.5-0.3 2.1 1 2.4zm17.9 20.3c-0.6 2.2-0.4 3.2 1.2 3.9-0.4-1.4-0.8-2.6-1.2-3.9z" fill="#020202"/></g>
</svg>